<?xml version="1.0" encoding="UTF-8" standalone="no"?>
<!-- Generator: Adobe Illustrator 16.0.0, SVG Export Plug-In . SVG Version: 6.00 Build 0)  -->

<svg
   xmlns:dc="http://purl.org/dc/elements/1.1/"
   xmlns:cc="http://creativecommons.org/ns#"
   xmlns:rdf="http://www.w3.org/1999/02/22-rdf-syntax-ns#"
   xmlns:svg="http://www.w3.org/2000/svg"
   xmlns="http://www.w3.org/2000/svg"
   xmlns:sodipodi="http://sodipodi.sourceforge.net/DTD/sodipodi-0.dtd"
   xmlns:inkscape="http://www.inkscape.org/namespaces/inkscape"
   version="1.1"
   id="Capa_1"
   x="0px"
   y="0px"
   width="79.542px"
   height="79.542px"
   viewBox="0 0 79.542 79.542"
   style="enable-background:new 0 0 79.542 79.542;"
   xml:space="preserve"
   inkscape:version="0.91 r13725"
   sodipodi:docname="hammer23.svg"><metadata
     id="metadata122"><rdf:RDF><cc:Work
         rdf:about=""><dc:format>image/svg+xml</dc:format><dc:type
           rdf:resource="http://purl.org/dc/dcmitype/StillImage" /></cc:Work></rdf:RDF></metadata><defs
     id="defs120" /><sodipodi:namedview
     pagecolor="#ffffff"
     bordercolor="#666666"
     borderopacity="1"
     objecttolerance="10"
     gridtolerance="10"
     guidetolerance="10"
     inkscape:pageopacity="0"
     inkscape:pageshadow="2"
     inkscape:window-width="1440"
     inkscape:window-height="851"
     id="namedview118"
     showgrid="false"
     inkscape:zoom="2.966986"
     inkscape:cx="39.771"
     inkscape:cy="26.289305"
     inkscape:window-x="0"
     inkscape:window-y="1"
     inkscape:window-maximized="1"
     inkscape:current-layer="Capa_1" /><g
     id="g84"
     style="fill:#00352e;fill-opacity:1"><path
       style="fill:#00352e;fill-opacity:1"
       d="M60.263,48.543l15.887-15.967l2.507,2.48l0,0c1.181,1.183,1.181,3.083,0,4.254l-11.703,11.65   c-1.165,1.171-3.086,1.171-4.267,0l0,0L60.263,48.543z M0,67.185c1.113,4.105,4.661,7.42,8.547,8.569l30.968-30.69l-8.565-8.57   L0,67.185z M58.431,42.894c0.124,0.274,0.248,0.539,0.341,0.812c0.083,0.223,0.146,0.436,0.202,0.617   c0.109,0.414,0.213,0.808,0.233,1.201c4.567-4.536,9.134-9.067,13.701-13.585c0,0-8.679-0.484-11.351-11.363   c-0.803-0.811-1.631-1.618-2.434-2.439C47.908,6.926,36.074,2.939,24.959,3.936c-0.611,0.049-1.836,0.228-2.949,0.388   c-1.973,0.303-2.151,3.182-0.005,3.208c1.007,0.01,2.053,0.021,2.534,0.08c2.038,0.274,4.008,0.481,5.955,1.209   c8.298,3.169,13.665,12.174,6.587,19.188c-1.9,1.867-5.676,5.605-5.676,5.605L42.808,44.81c0,0,0.813-0.979,1.32-1.414   c2.278-1.874,6.954-4.95,11.692-3.086c0.74,0.285,1.315,0.762,1.781,1.289c0.218,0.275,0.445,0.564,0.632,0.891   C58.306,42.63,58.357,42.759,58.431,42.894z"
       id="path86" /></g><g
     id="g88" /><g
     id="g90" /><g
     id="g92" /><g
     id="g94" /><g
     id="g96" /><g
     id="g98" /><g
     id="g100" /><g
     id="g102" /><g
     id="g104" /><g
     id="g106" /><g
     id="g108" /><g
     id="g110" /><g
     id="g112" /><g
     id="g114" /><g
     id="g116" /></svg>