<?xml version="1.0" encoding="utf-8"?>
<!-- Generator: Adobe Illustrator 19.2.1, SVG Export Plug-In . SVG Version: 6.00 Build 0)  -->
<svg version="1.1" id="Layer_1" xmlns="http://www.w3.org/2000/svg" xmlns:xlink="http://www.w3.org/1999/xlink" x="0px" y="0px"
	 viewBox="0 0 319 327" style="enable-background:new 0 0 319 327;" xml:space="preserve">
<style type="text/css">
	.st0{fill:#FFFFFF;}
	.st1{fill:#CA7E00;}
	.st2{fill:#008265;}
	.st3{fill:#0C3E85;}
</style>
<title>call</title>
<g>
	<g id="Layer_1_1_">
		<path class="st0" d="M279.8,133.5c-1.8-72.6-43.1-110.8-120-110.8S41.5,61,39.8,133.5H50c0-0.2,0.1-0.4,0.1-0.6l-0.1-1l0.1,1
			c3.8-24.1,11.7-44,23.6-59.4c19.1-24.6,48.1-37.1,86.1-37.1s67,12.5,86.1,37.1c11.9,15.3,19.9,35.3,23.6,59.4v-0.8v0.8
			c0,0.2,0.1,0.4,0.1,0.6H279.8z"/>
		<path class="st0" d="M252.5,149.2c-12-10.9-33.9-19.2-61.6-22.1c5,4.4,8.5,10.2,10.2,16.7c-16.1-11.7-49.9-15.4-61.1-28
			c-14.9-9.9-20.6-23.4-22.2-23.4c-0.3,0-0.5,0.5-0.5,1.6c-0.8,33.6-24.6,59.8-51,63.5c-0.1,3.7-0.3,7.4-0.3,11.3
			c0,13,2.1,26,6.2,38.4l0.4,0.2l-0.4-0.2c0,0.1,0.1,0.3,0.1,0.4c14.9,17.9,39.4,22.9,61.1,24.3c4-6.4,13-10.9,23.6-10.9
			c14.3,0,25.8,8.2,25.8,18.3s-11.5,18.3-25.8,18.3c-11,0-20.3-4.8-24.1-11.7c-15.1-0.9-31.8-3.5-46.7-10.5c0.1,0.1,0.1,0.2,0.2,0.3
			l1.4,0.9l-1.4-0.9c20.9,30.6,53.2,46.8,73.3,46.8c31.8,0,93.7-40.2,93.7-113.8C253.4,161.9,253,155.4,252.5,149.2z M131.7,179.6
			c-2.9,2.9-6.8,4.5-10.8,4.5c-8.5,0-15.4-6.8-15.4-15.3s6.8-15.4,15.3-15.4c8.5,0,15.4,6.8,15.4,15.3
			C136.2,172.8,134.5,176.7,131.7,179.6z M214.1,168.7c0,8.5-6.9,15.4-15.4,15.4s-15.4-6.9-15.4-15.4s6.9-15.4,15.4-15.4
			S214.1,160.2,214.1,168.7L214.1,168.7z"/>
		
			<image style="overflow:visible;opacity:0.16;enable-background:new    ;" width="320" height="328" xlink:href="60F3051C322FA6E6.png"  transform="matrix(0.9969 0 0 0.9969 0 -0.2856)">
		</image>
		<path class="st1" d="M295.7,136.8c-0.3-41.6-12.4-74.1-36.1-96.5C236.2,18,202.5,6.7,159.6,6.7s-76.5,11.2-100,33.5
			c-23.7,22.5-35.8,54.9-36.1,96.5c-8.6,4.6-14,13.6-14,23.4v29.3l0,0c0,14.7,11.9,26.6,26.6,26.6h18.6v-1.3l-4.2-2.7l4.2,2.7v-0.5
			c0,0.1,0.1,0.2,0.1,0.3l-0.9-16.3l-1.5-0.7l1.5,0.7l-3.8-65.4c0,0.2-0.1,0.4-0.1,0.6H39.8c1.7-72.5,43.1-110.8,120-110.8
			s118.3,38.3,120,110.8h-10.3l0,0v-0.1l-5.2,81.5c0.1-0.2,0.1-0.4,0.2-0.6v1.8l18.6,0.1l0,0c14.7,0,26.6-11.9,26.6-26.6v-29.3
			C309.6,150.4,304.3,141.5,295.7,136.8z"/>
		<path class="st2" d="M274.9,268.8c7.5,1.1,15.3,0.1,22.3-2.8c-12.2-3.2-30.1-15.7-36.4-25.5c-1.1-3.8-1.9-7.7-2.5-11.6
			c2.3-4.6,4.3-9.3,6-14.1l5.2-81.5c-3.7-24.3-11.6-44.4-23.6-59.9c-19.1-24.6-48.1-37.1-86.1-37.1s-67,12.5-86.1,37.1
			c-11.9,15.4-19.9,35.3-23.6,59.4l3.8,65.4l18.2,8.9c-4.1-12.4-6.2-25.3-6.2-38.3c0-3.9,0.1-7.6,0.3-11.3
			c26.5-3.7,50.3-29.9,51-63.5c0.2-7,4.9,9.9,22.7,21.7c11.2,12.6,45,16.2,61.1,28c-1.7-6.5-5.2-12.3-10.2-16.7
			c27.7,3,49.7,11.2,61.7,22.2c0.5,6.2,0.9,12.7,0.9,19.5l0,0c0,73.7-61.9,113.8-93.8,113.8c-20.2,0-52.5-16.2-73.4-46.9l-31.3-20.7
			c1.8,4.7,3.7,9.4,5.9,14c-0.9,6.4-2.6,12.7-4.9,18.8c-8.1,7.6-20.1,14.9-29.1,17.3c5.7,2.4,11.8,3.5,17.9,3.2
			c-8.1,10.4-19.1,18.2-31.6,22.4c33,29.7,87.3,30.4,125.2,7.3c13.8,4.4,28.7,4.4,42.5,0c38,23.1,92.3,22.4,125.2-7.3
			C293.7,286.5,282.9,278.9,274.9,268.8z"/>
		<path class="st3" d="M86.1,235.4c14.9,7,31.5,9.6,46.7,10.5c3.8,6.8,13.1,11.7,24.1,11.7c14.2,0,25.8-8.2,25.8-18.3
			S171.2,221,156.9,221c-10.5,0-19.6,4.5-23.6,10.9c-21.7-1.3-46.3-6.4-61.1-24.3c-0.1-0.2-0.1-0.3-0.1-0.5l-18.2-8.9l0.9,16.3
			c0.1,0.1,0.1,0.3,0.2,0.4l31.3,20.7C86.2,235.5,86.1,235.5,86.1,235.4z"/>
		<circle class="st2" cx="120.8" cy="168.7" r="15.4"/>
		<circle class="st2" cx="198.7" cy="168.7" r="15.4"/>
	</g>
</g>
</svg>
