<svg id="Layer_1" xmlns="http://www.w3.org/2000/svg" xmlns:xlink="http://www.w3.org/1999/xlink" viewBox="0 0 324 339"><style>.st0{fill:#008265}.st1{fill:#fff}.st2{fill:#ca7e00;stroke:#0c3e85;stroke-width:4;stroke-miterlimit:10}</style><title>money</title><g id="Layer_1_1_"><image width="324" height="289" xlink:href="90244E76701C93D.png" transform="translate(0 50)" overflow="visible" opacity=".16"/><path class="st0" d="M278.1 103C266 91.9 252 83 236.8 76.8c-2 3-4.2 5.8-6.8 8.3-3.4 3.4-7.2 6.3-11.3 8.6 4.3 1.4 8.5 3.1 12.6 5 3.9 1.8 5.5 6.4 3.7 10.3l-.3.6c-2 3.5-6.4 4.9-10 3.1-27.5-13-58.2-10.6-71.7-8.5-4 .6-7.8-1.9-8.7-5.8-1-4.2 1.6-8.4 5.7-9.4.2-.1.4-.1.7-.1 2.4-.4 5.4-.8 8.7-1.1-1-.9-2-1.8-2.9-2.7-4.7-4.7-8.5-10.3-11.1-16.5-.3-.6-.6-1.3-.8-2-4.1.7-8.2 1.6-12.1 2.6-23.1-13.4-50.8-13.5-67.3-11.9-5.7.6-9.8 5.6-9.3 11.3.1 1.2.5 2.4 1 3.5l14 28.6c-15.5 13.5-27.2 30.1-33.8 48.5l-17-.1c-5.7 0-10.4 4.6-10.4 10.3v38.2c0 3.9 2.1 7.4 5.6 9.2l22.1 11.5c9.2 25.5 28.4 47.3 53.6 62.4v33.8c0 6.7 5.4 12.1 12.1 12.1h31c4.8 0 9.1-2.9 11.1-7.2l7.8-17.8c6.8.8 13.6 1.2 20.4 1.2 10.7 0 21.4-1 31.9-3v14.8c0 6.7 5.4 12.1 12.1 12.1H248c4.5 0 8.6-2.5 10.7-6.4 16.4-30.8 34.2-61.8 47.4-94 6.5-16 9.2-33.4 7.6-50.6-2.4-27.8-15.1-53.8-35.6-72.7z"/><path class="st1" d="M92.9 136.1c8.6 0 15.5 6.9 15.5 15.5s-6.9 15.5-15.5 15.5-15.5-6.9-15.5-15.5c0-8.5 6.9-15.5 15.5-15.5z"/><image width="102" height="102" xlink:href="90244E76701C942.png" transform="translate(139)" overflow="visible" opacity=".16"/><path class="st2" d="M175.1 87c4.9 1.9 10.1 2.9 15.3 2.9 2.6 0 5.2-.2 7.7-.7 22.6-4.2 37.5-26 33.3-48.7-4.2-22.6-26-37.5-48.7-33.3-22.6 4.2-37.5 26-33.3 48.7 2.7 14.1 12.4 25.8 25.7 31.1z"/></g></svg>