<svg id="Layer_1" xmlns="http://www.w3.org/2000/svg" viewBox="0 0 308.1 94.1"><style>.st0{fill:#fff}</style><path class="st0" d="M68.8 0H0v94.1h42c.2-1 .4-3.2 0-4.1-1.7-1.4-4-.4-6-.7-2.1-.4-6-1.9-8.2-2.9-2.6-1.1-4.8-2.8-6-4.8.3-2.1 2.6-2.9 3.6-4.3.8-1.1 1-2.5 1.9-3.6 2.9-3.5 7.1-5.4 9.6-9.4-1.3-2.5-7.2-.5-9.6-1.2 3.2-6 10.1-8.1 13.4-13.9-2.5-1.1-4.1-3.1-7.4-3.4 1.6-4.7 6.7-8.2 9.6-13 .4-.7.5-1.7 1-2.6.4-.7 1.1-1.4 1.4-2.2 1.3-3 1.4-7.5 5.5-7.7.5 3.8 1.2 6.4 3.4 9.1 1.2 1.5 3.9 3 4.1 4.1.9 4.2-5 6.3-4.6 9.8.3 2 3.7 2 4.6 3.1-.7 2-2.7 3.2-4.1 4.6-4.2 4.1-7.9 9-11.3 14.2.9 2.4 5.5 1.2 7.4 2.6 1.3 2.8-1.3 4.5-2.6 6-2.5 2.8-4.8 5.8-7.9 8.2 3.3 3.5 9.8 2.3 15.1 3.8.2 2.8-.5 6-.3 8.2h8.7c-.2-3.8.3-9.8.1-12.8-2.2.5-16.7 2.9-18.2-.7-1-2.4 2.5-3.6 4.3-4.6 3.5-3.2 7.3-6.2 10.3-9.8-3.5-1.1-11.4.8-11.8-2.7-.2-1.8 2.3-3.3 3.6-5 3.4-4.7 8-10.3 10.6-14.6-.5-1.2-3.4-.1-4.1-1.2-.2-2.1 2-3 3.1-4.6 1.3-1.8 2.2-4.1 3.6-5.8.9-1.1 3.2-2.6 4-3.9V0zm24.5 37.4v16h-3.6L83 43.3v10.1h-1.6v-16h2.9l7.3 10.9V37.4h1.7zm9.2-.3c4.7 0 7 2.8 7 8.3s-2.4 8.3-7.1 8.3-7.1-2.8-7.1-8.5c-.1-5.4 2.4-8.1 7.2-8.1zm-.1 1.3c-.9 0-1.5.5-1.8 1.4-.3 1-.5 2.8-.5 5.5s.2 4.6.5 5.5c.3 1 .9 1.4 1.8 1.4s1.5-.5 1.8-1.4c.3-1 .5-2.8.5-5.5s-.2-4.6-.5-5.5c-.4-.9-1-1.4-1.8-1.4zm9.1 15v-16h6.9c1.8 0 3.2.4 4.3 1.1 1.1.8 1.6 1.8 1.6 3 0 1.9-1.1 3.2-3.4 3.8 1.2.4 1.9.9 2.3 1.4.3.5.6 1.5.7 3 .1 1.8.4 3 .9 3.6h-5c-.3-.7-.5-1.7-.5-2.8v-2.1c0-1.8-.7-2.8-2.2-2.8h-.8v7.7h-4.8v.1zm4.7-9h.9c1.8 0 2.6-.9 2.6-2.8s-.9-2.8-2.6-2.8h-.9v5.6zm20.9-2.5l-2.2.4c.1-.4.1-.8.1-1.1 0-1.9-1.1-2.8-3.4-2.8-1.8 0-2.7.6-2.7 1.9 0 1 1 1.8 3 2.5 3.8 1.3 5.8 3.3 5.8 5.9 0 1.5-.5 2.7-1.6 3.7-1.1.9-2.5 1.4-4.3 1.4-4 0-5.9-1.5-5.9-4.6 0-.2 0-.6.1-.9l2.2-.5c-.2.7-.3 1.3-.3 1.8 0 2 1.1 3 3.4 3 1.8 0 2.7-.7 2.7-2.1 0-1.1-1.1-2-3.3-2.8-3.1-1.2-4.7-3-4.7-5.5 0-1.4.5-2.6 1.6-3.5s2.4-1.3 4.1-1.3c3.7-.3 5.4 1.3 5.4 4.5zm14-4.5V39h-3.9v14.4h-4.9V39h-3.9v-1.6h12.7zm8.5 0l4.5 16h-4.7l-.9-3.5h-4.8l-1 3.5h-1.8l4.7-16h4zM154 48.3h3.9l-1.9-7.1-2 7.1zm11.3 5.1v-16h6.9c1.8 0 3.2.4 4.3 1.1 1.1.8 1.6 1.8 1.6 3 0 1.9-1.1 3.2-3.4 3.8 1.2.4 1.9.9 2.3 1.4.3.5.6 1.5.7 3 .1 1.8.4 3 .9 3.6h-5c-.3-.7-.5-1.7-.5-2.8v-2.1c0-1.8-.7-2.8-2.2-2.8h-.8v7.7h-4.8v.1zm4.6-9h.9c1.8 0 2.6-.9 2.6-2.8s-.9-2.8-2.6-2.8h-.9v5.6zm-78 15V61h-5.7v4.8H91v1.6h-4.8v6.3h6.7v1.6H81.6v-16l10.3.1zm14.2 0v16h-3.6l-6.7-10.1v10.1h-1.6v-16h2.9l7.3 10.9V59.4h1.7zm14.2 0l-4.6 16h-4.2l-4.2-16h4.7l3.2 12.1 3.5-12.1h1.6zm5.8 0v16h-4.6v-16h4.6zm2.8 16v-16h6.9c1.8 0 3.2.4 4.3 1.1 1.1.8 1.6 1.8 1.6 3 0 1.9-1.1 3.2-3.4 3.8 1.2.4 1.9.9 2.3 1.4.3.5.6 1.5.7 3 .1 1.8.4 3 .9 3.6h-5c-.3-.7-.5-1.7-.5-2.8v-2.1c0-1.8-.7-2.8-2.2-2.8h-.8v7.7h-4.8v.1zm4.7-9h.9c1.8 0 2.6-.9 2.6-2.8 0-1.8-.9-2.8-2.6-2.8h-.9v5.6zm17-7.3c4.7 0 7 2.8 7 8.3s-2.4 8.3-7.1 8.3c-4.7 0-7.1-2.8-7.1-8.5 0-5.4 2.4-8.1 7.2-8.1zm-.1 1.3c-.9 0-1.5.5-1.8 1.4-.3 1-.5 2.8-.5 5.5s.2 4.6.5 5.5c.3 1 .9 1.4 1.8 1.4s1.5-.5 1.8-1.4c.3-1 .5-2.8.5-5.5s-.2-4.6-.5-5.5-.9-1.4-1.8-1.4zm20.8-1v16h-3.6L161 65.3v10.1h-1.6v-16h2.9l7.3 10.9V59.4h1.7zm17.6 0v16h-4.5V64.2l-3.1 11.1h-2.6l-3.2-10.9v10.9h-1.6v-16h4.7l2.7 9.7 2.7-9.7h4.9v.1zm13.1 0V61h-5.7v4.8h4.8v1.6h-4.8v6.3h6.7v1.6h-11.3v-16l10.3.1zm14.1 0v16h-3.6l-6.7-10.1v10.1h-1.6v-16h2.9l7.3 10.9V59.4h1.7zm13.9 0V61h-3.9v14.4h-4.9V61h-3.9v-1.6H230zm8.5 0l4.5 16h-4.7l-.9-3.5h-4.8l-1 3.5h-1.8l4.7-16h4zM233 70.3h3.9l-1.9-7.1-2 7.1zm15.8-10.9v14.4h6.6v1.6h-11.2v-16h4.6zm19.4 0v14.4h6.6v1.6h-11.2v-16h4.6zm18.8 0V61h-3.9v14.4h-4.9V61h-3.9v-1.6H287zm1.2 16v-16h6.6c4.7 0 7.1 2.7 7.1 8s-2.4 8-7.3 8h-6.4zm4.7-1.3h1.2c1.1 0 1.9-.5 2.3-1.4.4-1 .6-2.7.6-5.2s-.2-4.3-.6-5.2c-.4-1-1.2-1.4-2.3-1.4h-1.2v13.2zm13.1-2.6c1.4 0 2.1.7 2.1 2.1s-.7 2.1-2.1 2.1-2.1-.7-2.1-2.1.7-2.1 2.1-2.1z"/></svg>