<svg id="_ÎÓÈ_1" data-name="—ÎÓÈ_1" xmlns="http://www.w3.org/2000/svg" viewBox="0 0 1190.55 1190.55"><defs><style>.cls-1{fill:#dffccd}.cls-2{fill:#f4ffb3}.cls-10,.cls-11,.cls-12,.cls-13,.cls-14,.cls-15,.cls-16,.cls-17,.cls-18,.cls-19,.cls-2,.cls-20,.cls-21,.cls-22,.cls-23,.cls-24,.cls-25,.cls-26,.cls-27,.cls-28,.cls-29,.cls-3,.cls-30,.cls-31,.cls-32,.cls-33,.cls-34,.cls-35,.cls-36,.cls-39,.cls-4,.cls-5,.cls-6,.cls-7,.cls-8,.cls-9{fill-rule:evenodd}.cls-3{fill:#e3eab5}.cls-4{fill:#fff}.cls-5{fill:#edf9bd}.cls-6{fill:#edf7ff}.cls-7{fill:#d2efbf}.cls-8{fill:#adc99b}.cls-38,.cls-9{fill:#c4e2b0}.cls-10{fill:#91a882}.cls-11{fill:#a5aa44}.cls-12{fill:#6f802c}.cls-13{fill:#96963e}.cls-14{fill:#b7c157}.cls-15{fill:#a9ad50}.cls-16{fill:#889e31}.cls-17{fill:#633}.cls-18{fill:#542525}.cls-19{fill:#749029}.cls-20{fill:#94ab38}.cls-21{fill:#dae573}.cls-22{fill:#784141}.cls-23{fill:#c1c660}.cls-24{fill:#592a2a}.cls-25{fill:#88993d}.cls-26{fill:#666}.cls-27{fill:#999}.cls-28{fill:#ccc}.cls-29{fill:#e6e6e6}.cls-30{fill:#938b89}.cls-31{fill:#cec8c8}.cls-32{fill:#b3b3b3}.cls-33{fill:#647d1e}.cls-34{fill:#698223}.cls-35{fill:#6d8725}.cls-36{fill:#6b8524}.cls-37{fill:#ebf2f1}.cls-39{fill:#e0e0e0}</style></defs><title>park</title><path class="cls-1" d="M0 0h1190.55v1190.55H0z"/><path class="cls-2" d="M419 537c139.38 0 253-100 253-222.52S558.38 92 419 92s-253 99.94-253 222.48S279.66 537 419 537z" transform="translate(-.27 -2.16)"/><path class="cls-3" d="M981 128h.44a10.64 10.64 0 0 1-.41-2.24c-.51-6.75 5.41-12.78 13.22-13.47s14.55 4.21 15.05 11v.59c11.2-10.24 31.71-8.92 33.43 6.44.36 3.21-.5-4.54 7.43-6 7.11-2 8.53 5.21 10.69 4.61 32.16-9 35.56 37.37 2.69 40.3-14.29 1.27-25.27-1.86-27.44-7-2.33.88-2.27 1.24-7.56 1.71s-15-1.83-19.33-6.22c.6 1.35.83.53 1 3.65s-7.9 10.43-17.38 11.54-17.57-7.4-19-11.87a15.31 15.31 0 0 1-5 1.49c-15.25 1.78-28.06-5.52-31.46-16.19-4.58-14.35 18.91-20.48 19-14.59a15.71 15.71 0 0 1 10.27-5.75c8.49-1 12.36.21 14.36 2z" transform="translate(-.27 -2.16)"/><path class="cls-4" d="M939.16 150.18c-3.55-3.9-3.72-12.06.26-16.24 3.69-3.86 12.21-7.24 17.37-3.61 3.73-6.4 15.74-7.56 22.26-5.7-.6-15 22.54-21.28 31.36-4.89 10.13-5.63 23.51-8.21 30.9 2.9l1.83 3.36c3.77-4.4 9.58-5.66 15.16-1.91a8.9 8.9 0 0 1 2.62 2.62c13.07-2.77 24.66 1.93 26.61 16.63.72 5.4-.74 14.74-6.39 17.47a20 20 0 0 0 4.46-16.93c-2.39-13-11.75-16.67-23.85-13.93-3.63.82-2.61-.57-4.51-2.25-4.38-3.85-10.09-2.27-12.54 3.19-2.07-.84-3.15-1.19-3.75-1.41-1.4-.51-.21-.36-3-4.4-6.77-9.65-18.89-4.92-27.16.07-6.14-2.72-2.6-.55-5.4-4.84-7.12-10.91-25.29-5.61-22.08 7l-3.5 1.16a.68.68 0 0 0 .14.24c-2.46-2.11-18.76-3-21.2 4.21l-2.65.28c-3.34-4.25-12.22-.79-15.25 2-4.84 4.52-2.42 9.85-1.6 14.89zm40.54-21.72z" transform="translate(-.27 -2.16)"/><path class="cls-5" d="M913.27 154l.58-.07a14.22 14.22 0 0 1-.55-3c-.67-9 7.2-17 17.59-17.93s19.36 5.61 20 14.59v.78c14.91-13.63 42.2-11.88 44.5 8.58.48 4.28-.67-6 9.89-8 9.47-2.72 11.36 6.93 14.22 6.13 42.8-12 47.33 49.74 3.58 53.63-19 1.69-33.63-2.47-36.53-9.3-3.1 1.17-3 1.65-10.06 2.28s-20-2.44-25.73-8.28c.79 1.8 1.1.7 1.34 4.86s-10.43 13.91-23.1 15.38-23.38-9.85-25.31-15.8a20.35 20.35 0 0 1-6.68 2c-20.3 2.37-37.34-7.34-41.87-21.54-6.09-19.09 25.17-27.25 25.33-19.41a20.91 20.91 0 0 1 13.6-7.46c11.35-1.34 16.49.2 19.2 2.56z" transform="translate(-.27 -2.16)"/><path class="cls-4" d="M857.54 183.55c-4.73-5.19-5-16.06.35-21.61 4.91-5.14 16.25-9.63 23.12-4.81 5-8.51 20.95-10.06 29.63-7.58-.8-19.94 30-28.32 41.74-6.5 13.48-7.5 31.29-10.92 41.12 3.87l2.43 4.47c5-5.86 12.75-7.54 20.18-2.54a11.86 11.86 0 0 1 3.48 3.49c17.4-3.69 32.82 2.56 35.42 22.13 1 7.19-1 19.61-8.51 23.25a26.67 26.67 0 0 0 5.93-22.53c-3.18-17.29-15.64-22.18-31.75-18.54-4.83 1.09-3.47-.76-6-3-5.83-5.12-13.44-3-16.69 4.24-2.75-1.12-4.19-1.58-5-1.87h-.05c-1.86-.68-.28-.48-4.05-5.86-9-12.84-25.14-6.55-36.15.09-8.18-3.62-3.46-.73-7.19-6.45-9.47-14.52-33.65-7.47-29.39 9.38l-4.66 1.55a.89.89 0 0 0 .18.32c-3.28-2.81-25-3.94-28.22 5.6L880 161c-4.45-5.66-16.27-1.06-20.29 2.7-6.44 6-3.22 13.11-2.12 19.82zm54-28.9z" transform="translate(-.27 -2.16)"/><path class="cls-6" d="M882.08 109.16h-.34a8.34 8.34 0 0 0 .32-1.75c.4-5.26-4.22-10-10.3-10.5s-11.34 3.28-11.74 8.55v.46c-8.73-8-24.72-7-26.06 5-.28 2.51.39-3.54-5.79-4.69-5.54-1.59-6.65 4.06-8.33 3.59-25.07-7-27.72 29.14-2.1 31.41 11.14 1 19.7-1.45 21.39-5.45 1.82.69 1.77 1 5.89 1.33s11.73-1.43 15.07-4.85c-.47 1.05-.65.41-.78 2.85s6.16 8.13 13.55 9 13.7-5.77 14.82-9.26a11.91 11.91 0 0 0 3.91 1.16c11.89 1.39 21.87-4.3 24.53-12.62 3.57-11.18-14.75-16-14.83-11.37a12.25 12.25 0 0 0-8-4.37c-6.61-.78-9.62.12-11.21 1.51z" transform="translate(-.27 -2.16)"/><path class="cls-4" d="M914.72 126.47c2.77-3 2.9-9.4-.2-12.66-2.87-3-9.52-5.64-13.54-2.82-2.9-5-12.27-5.89-17.35-4.44.47-11.68-17.57-16.59-24.45-3.81-7.9-4.39-18.33-6.4-24.09 2.26l-1.42 2.62c-2.94-3.43-7.47-4.41-11.82-1.49a6.94 6.94 0 0 0-2 2c-10.19-2.16-19.22 1.5-20.75 13-.56 4.21.58 11.49 5 13.62a15.62 15.62 0 0 1-3.47-13.19c1.86-10.13 9.16-13 18.59-10.86 2.83.64 2-.45 3.52-1.75 3.41-3 7.87-1.77 9.78 2.49 1.61-.66 2.45-.92 2.93-1.1 1.09-.4.16-.28 2.37-3.43 5.28-7.52 14.73-3.84 21.17.05 4.79-2.12 2-.43 4.21-3.78 5.55-8.51 19.71-4.37 17.22 5.49l2.73.9a.52.52 0 0 1-.11.19c1.92-1.64 14.62-2.31 16.53 3.28l2.06.22c2.6-3.31 9.53-.62 11.89 1.58 3.77 3.52 1.88 7.68 1.24 11.61zm-31.6-16.93z" transform="translate(-.27 -2.16)"/><path class="cls-7" d="M760.47 54.69h142l2 282h42l-4-166h52l2 162 112 8 82.08 18v185.18l-518.27-50.24-433.69.47L0 534.15V340.69l11.47 82 27-4-7-205 36-2-4-59h29l1 26 24 1 5.6 150.02 74.4-9.02v-98l86-4 2 58h26v44l44-2 2-118 30-2 2-76 96-2 4 126h80v38l126-2 4-162h54l7-66z"/><path class="cls-8" d="M187.24 524.86c-7.14.7-14-250-14-250l96-6 10 111 64-1 4.33 110.47 97.67-14.47-2-252 59.62-1.45 7.69 161.53 82.9 2.07 20.78 77.85 92 28 41-11.69 4-295.31h90l-6 178h110l-3 78.76 133.34 3.47 23.66-306.22 72 6-14 334 33.58 22v71L.27 597.43l31-127.58 25.47-13.63-3.5-103.87 44.82-3.79 4.1 123.2z" transform="translate(-.27 -2.16)"/><path class="cls-9" d="M1118.97 527.21l-3.09-1.82 22.1-353.38 3.09 1.82-22.1 353.38zm-26.8-10.5l-3.09-1.82 22.1-353.38 3.09 1.82-22.1 353.38zm12.81 4.65l-3.09-1.82 22.1-353.38 3.09 1.82-22.1 353.38z"/><path class="cls-10" d="M206.47 520.7l-5-38 46-5-1-81 146-6 4-106h26l5 75h17l1 68 19 2 4 23 123-1 3.81-152.42 32.19 28.42v104l34 4v-56l30 24 2 70 89 5.5-.74 37.44-575.26 4.06zm594.18 2.03l2.17-72.99h18.79l1.45-46.25 140.19-2.17.73 36.13h23.85l1.44 47.7 11.38.36-3.97 52.03-196.03-14.81z"/><path class="cls-9" d="M812.92 492.1l.62-3.54 164.84.29-.63 3.53-164.83-.28zm2.97-30.33l.62-3.54 164.84.29-.62 3.54-164.84-.29zm-1.25 14.47l.62-3.54 164.84.29-.62 3.54-164.84-.29z"/><path class="cls-10" d="M0 438.25l71.23-8.52.66 34.33 9.39-.59 1.37 35.43 94.04-7.49 4.09 41.57L0 569.78V438.25z"/><path class="cls-10" d="M94.39 244.46l40.87-1.36 1.95 58.57 20.43-.68 8.63 258.81-28.61.96-.27-8.17-32.69 1.08-10.31-309.21z"/><path class="cls-10" d="M1068.82 306.32l-45.5-26-21.6 258.33c68.08 7 126.52 1.47 168 7.37l9.17-100.51h-48.46l-5.63 61.69h-19l10.53-115.46H1061z" transform="translate(-.27 -2.16)"/><path class="cls-11" d="M457.54 885C279.83 839.85 102.12 824.21.27 818.79v373.92h1190.55V965.37C1059 960.31 679.63 941.33 457.54 885z" transform="translate(-.27 -2.16)"/><path class="cls-12" d="M551.48 1111.74h43l130.52 23.6s-91 21.9-122.5 18.9-16-2-16-2l-45.5-21.5s-1.52-18 10.48-19z" transform="translate(-.27 -2.16)"/><path class="cls-13" d="M272.28 955.07S172 927.52 171.17 916.25s2.48-28.82 2.48-28.82 9.36-15 6.52-15.87-41.44-2.92-36.49 10.44 10.86 11.28 11.3 14.2 10.16-.83 10.16-.83.53 20.88-1.68 24.64-25.32 1.67-37.14-15-3.87-21.72-3.87-21.72 4.81-20-5.71-22.55-21.94-10.86-32.21-4.18-39.44 7.44-45.34 17.5S.27 902.58.27 902.58v67L3.17 991s12-11.7 32.49-14.2-1.86 15 6.87 21.72 17.78 11.7 34.37 3.34 31.61-24.23 31.61-24.23l29.49-2.49 54.64 11.54 46.5-32z" transform="translate(-.27 -2.16)"/><path class="cls-14" d="M.27 818.79c101.85 5.42 279.56 21.06 457.28 66.17 222.09 56.37 601.5 75.35 733.28 80.41V595.61c-105.2 9-348 32.76-477.28 69.27-137 38.71-561.43 31.5-713.28 27.52v126.39z" transform="translate(-.27 -2.16)"/><path class="cls-15" d="M432.96 792.58l20.25-3.75 46.5 9.39 10.68 1.78-20.43 5.08-10.16-3.13-31.34 7.13-14.25-5-1.25-11.5z"/><path class="cls-15" d="M1137 843s-62.4-17.14-62.93-24.16 1.54-17.94 1.54-17.94 5.82-9.36 4.06-9.88-25.79-1.82-22.71 6.5 6.76 7 7 8.84 6.32-.52 6.32-.52.33 13-1 15.34-15.76 1-23.11-9.36-2.41-13.52-2.41-13.52 3-12.48-3.56-14-13.65-6.76-20-2.6-24.54 4.68-28.21 10.92c-2.22 3.77-26 8.64-41.64 17.83-10.25 6-5.06 25.38-5.06 25.38l13.48 16.26 10.8 13.31a37.43 37.43 0 0 1 20.22-8.84c12.74-1.56-1.16 9.36 4.28 13.52s11.06 7.28 21.39 2.08 19.54-15.11 19.54-15.11l18.34-1.56 47 3.49.4-20.84z" transform="translate(-.27 -2.16)"/><path class="cls-16" d="M1025.49 757.25s-11.2 8.71-24.27-.62-10-5-24.89-12.45-8.71-28.63 3.73-30.5 41.7 1.25 50.41 3.73 29 16.59 18.87 21.05-23.85 18.79-23.85 18.79zm106.09-109.17c-5.82-12.17-23.29-11.34-34.52-7.48-17.52 6-34-19.85-49.79-14.25s-18.67 15.31-44.19 21.57-28.64 24.89-28.64 24.89 14.64 12.69 24.91 12.69-10.27 14.27 10 19.49 19.41 8.38 35.16 2.78 23.93-17.07 41.7-15.66 49.81 6.92 61-4.18c33.74-33.53-13.32-35.04-15.63-39.85z" transform="translate(-.27 -2.16)"/><path class="cls-17" d="M1116.55 833.47s-15.65-14.52-18.4-55.18-2.76-46.88-2.76-46.88l37.34-32.41 13.69-33.61-2.23-1.34-17.68 30.59-32.36 15.56-8.71-6.85-41.59-18.35-13.18-22.67h-3.11l12.76 25.7 16.8 9.46-24.27 3.11-25.38-3.6-1.39 2.31 26.76 4.67 27.38-.93 17.43 11.2-5.6 24.9-25.52-5.6-28 7.47.93 3.42 26.76-7.16 23.34 8.71s-.93 65.35-6.54 75.93c-11.5 21.73-23.88 18.52 8.4 17.12 0 0 14.63 16.8 21.78 18.36l7.16 1.56s-7.47-16.8-7.47-18.36.62-1.24 0-3.11 20.23 4 29.56 4 18.36.62 18.36.62-.3-4.28-24.26-8.64z" transform="translate(-.27 -2.16)"/><path class="cls-18" d="M1096.3 837.41s-10.75-28.82-8.89-35 7.16-8.4 4-18-5-31.12-5-31.12 2.49-15.87-2.18-19.6-6.84-12.75-6.84-12.75 38.58-17.13 42.94-19.93 7.39-4.59 7.39-4.59l17.52-31.57 1.12.67-13.63 33.48-38.47 31.12 2.26 23.12 15.29-9.83 4.36 2.48-19.25 13.78s1.84 35.92 6.19 47.7 13.43 26.06 13.43 26.06 14.75 2.09 20.19 5.53 4.08 3.19 4.08 3.19l-19.2-.64z" transform="translate(-.27 -2.16)"/><path class="cls-17" d="M1094.26 761c2.73-.17 25.83-18 25.83-18l-3.11-2.8-26.14 16.8s-2.84 3.36 3.42 4z" transform="translate(-.27 -2.16)"/><path class="cls-16" d="M1125.41 750.18s19.26.5 24.36-13.13-7-9.38-13.6-16.16.93-11.65-27.58-8.6-33.61 4.56-30.21 11.63 12.46 2 20.4 9.09 11.76 10.99 26.63 17.17z" transform="translate(-.27 -2.16)"/><path class="cls-19" d="M1099.17 677.79c4.45 1.34 9.66 5.61 12 4.23 1.22-.73.52-2.42-.66-4.3-1.83-2.91-4.83-6.26-3.7-7.21 1.87-1.56 19 9 29.25-7.16 3.19-5 4.22-8.79 4.12-11.59 10.6 3.4 26 9 15.9 25.42a59.63 59.63 0 0 1-8.89 10.76c-2.88 2.86-7.15 4.62-12.2 5.62l6.59-16.18 4.87-12-1.12-.67-1.12-.67-7.72 13.36-9.9 17.13c-13.47.77-29.58-1.6-40.4-2.46a34.53 34.53 0 0 0-18.29 3.51l-24-10.64-4-7h.72c6.25.19 13.07 1.65 15.24 1.5 2.9-.19 8.93-.78 13.53-1.63h.14c2.73-.51 4.93-1.11 5.63-1.77 1.17-1.12 2.09-.14 3.24 1.76.68 1.13 1.44 2.6 2.37 4.15 2.49 4.15 9.65-1.87 14.32-4.21a5.69 5.69 0 0 1 4.08.05zM1040.31 688l16.8 9.46-24.27 3.11-1.3-.18c.34-2.45-.63-6.78-2.55-13.73-1.55-5.59 1.71-7.79 6.47-8.45zm-7.46 16l21.36-.73a65 65 0 0 1-9.74 4.49c-15.57 5.53-15 2.51-34.46-2.6-1.78-.48-6.22-2.12-7.48-3.21-3.42-3-2.56-5.37-2.56-5.37s2.84.74 6.73 1.72l-.62 1 20.06 3.5zm-2.38 13.42c7 2 21.35 11.41 21.64 17.38l-5.57-1.22-28 7.47.93 3.42 26.76-7.16 3.11 1.16c-10.16 4.46-23.85 18.78-23.85 18.78s-11.2 8.71-24.27-.62-10-5-24.89-12.45a18 18 0 0 1-1.68-1l-5.5-6.07s20 12.45 28.1 8.65 15.56 2.49 15.56 2.49l-3-11.27a126.62 126.62 0 0 1 12.91-11.14c2.57-1.92.68-6-2.9-10.48a88.87 88.87 0 0 1 10.65 2.06zm81.34 26.03a70.9 70.9 0 0 1-10.29-8 166.42 166.42 0 0 0 21.48 1.65c10.58 0 11.83.93 14.16-.78s4.82-1.4 3.27-4.2-2.8-5.29-3.73-5.91-4.67-1.4-4.51-5.29a46.38 46.38 0 0 1 .61-5.33 18.38 18.38 0 0 0 3.42 5.31c6.59 6.77 18.7 2.52 13.6 16.16s-24.36 13.13-24.36 13.13c-3.68-1.53-6.68-2.91-9.23-4.25-1.67-.85-3.1-1.67-4.42-2.49z" transform="translate(-.27 -2.16)"/><path class="cls-20" d="M1077.46 720.85c-.12-3.26 3.7-4.94 14.66-6.57 4.32-.64 9.74-1.28 16.47-2 3.38-.36 6.25-.61 8.7-.76l1.1-.06c11.18-.57 12.87 1.18 14.37 4.11l-.11.68a15 15 0 0 0-3.38-1.25c-6.66-2.09-15.37-2.09-13.67 1.91a9.5 9.5 0 0 1-4.29.68h-1.5c-5.66-.16-12.5-1-9.64 3.1a1 1 0 0 1 .1.17c-1.06.69-19.4-.53-12.21 7.78-4.14-.59-7.7-.8-9.6-4.56l-.07-.15a8 8 0 0 1-.93-3.08zm-52.1-73.61c-1.48 2.24-11.72 2.32-17.26 5.72l-3.15 2.38c-4.78 1.33-9.63-1.1-17 4.45a11.54 11.54 0 0 0-2.55 2.78l-.17.2a3.92 3.92 0 0 0-.49.87 21.11 21.11 0 0 0-2.5 13.37c.06.31.13.61.21.9a10.81 10.81 0 0 0 .36 1.1c-.58-.37-1.14-.75-1.68-1.12l-1.34-.94c-3.21-2.29-5.34-4.13-5.34-4.13s3.12-18.63 28.64-24.89A83.76 83.76 0 0 0 1020 642c11.29-5.47 16-11.64 27.32-15.68 15.74-5.61 32.27 20.27 49.79 14.25 11.23-3.86 28.7-4.69 34.52 7.48l.06.11c-7.05-3.07-15.15-6.3-20.34-4.48-6.32 2.2-1 4.3-15.42 3.31-9.57-.66-7.77-.45-15.17-3.57-8.22-3.46-3.49 3-11.78-4.1-7.54-6.47-23.77-10.48-29.27 1.09-2 1.67-7.15-2-12.86 4.88a22.46 22.46 0 0 0-1.49 1.95zm-45.3 66.45c5.71-.86 15-.67 24.13 0-5.08 1.82.59 5.2-5.33 5.39-20.8.7.38 3.43-19 4.66-11.15.71-5.81 3.94-9.61 8a6.75 6.75 0 0 0-1.88 3.54c-2.98-8.96 2.75-20.28 11.69-21.59z" transform="translate(-.27 -2.16)"/><path class="cls-19" d="M1099.17 677.79c4.45 1.34 9.66 5.61 12 4.23 1.22-.73.52-2.42-.66-4.3-1.83-2.91-4.83-6.26-3.7-7.21 1.87-1.56 19 9 29.25-7.16 3.19-5 4.22-8.79 4.12-11.59 10.6 3.4 26 9 15.9 25.42a59.63 59.63 0 0 1-8.89 10.76c-2.88 2.86-7.15 4.62-12.2 5.62l6.59-16.18 4.87-12-1.12-.67-1.12-.67-7.72 13.36-9.9 17.13c-13.47.77-29.58-1.6-40.4-2.46a34.53 34.53 0 0 0-18.29 3.51l-24-10.64-4-7h.72c6.25.19 13.07 1.65 15.24 1.5 2.9-.19 8.93-.78 13.53-1.63h.14c2.73-.51 4.93-1.11 5.63-1.77 1.17-1.12 2.09-.14 3.24 1.76.68 1.13 1.44 2.6 2.37 4.15 2.49 4.15 9.65-1.87 14.32-4.21a5.69 5.69 0 0 1 4.08.05zM1040.31 688l16.8 9.46-24.27 3.11-1.3-.18c.34-2.45-.63-6.78-2.55-13.73-1.55-5.59 1.71-7.79 6.47-8.45z" transform="translate(-.27 -2.16)"/><path class="cls-20" d="M1025.36 647.24c-1.48 2.24-11.72 2.32-17.26 5.72l-3.15 2.38c-4.78 1.33-9.63-1.1-17 4.45a11.54 11.54 0 0 0-2.55 2.78l-.17.2a3.92 3.92 0 0 0-.49.87 21.11 21.11 0 0 0-2.5 13.37c.06.31.13.61.21.9a10.81 10.81 0 0 0 .36 1.1c-.58-.37-1.14-.75-1.68-1.12l-1.34-.94c-3.21-2.29-5.34-4.13-5.34-4.13s3.12-18.63 28.64-24.89A83.76 83.76 0 0 0 1020 642c11.29-5.47 16-11.64 27.32-15.68 15.74-5.61 32.27 20.27 49.79 14.25 11.23-3.86 28.7-4.69 34.52 7.48l.06.11c-7.05-3.07-15.15-6.3-20.34-4.48-6.32 2.2-1 4.3-15.42 3.31-9.57-.66-7.77-.45-15.17-3.57-8.22-3.46-3.49 3-11.78-4.1-7.54-6.47-23.77-10.48-29.27 1.09-2 1.67-7.15-2-12.86 4.88a22.46 22.46 0 0 0-1.49 1.95z" transform="translate(-.27 -2.16)"/><path class="cls-15" d="M475.48 835.75l73.1-4.9L713.86 856 685 874.41s-59 4.34-77.54 4.34-27.5-5.5-27.5-5.5 6.5-3.5-8-6.5-19-10.5-19-10.5a38.93 38.93 0 0 0-8.5 0c-5 .5-12.5 4-19.5.5s-6.5-11-14.5-6-21.5-2-21.5-2-22.96-5.5-13.48-13z" transform="translate(-.27 -2.16)"/><path class="cls-16" d="M312.92 823.21s18 14 39-1 16-8 40-20 14-46-6-49-67 2-81 6-46.63 26.66-30.31 33.79 38.31 30.21 38.31 30.21z" transform="translate(-.27 -2.16)"/><path class="cls-21" d="M.27 692.41c151.85 4 576.25 11.19 713.28-27.52 129.23-36.51 372.08-60.26 477.28-69.27V546c-91.69-12.88-234.15-29.88-425.32-43.91q-71.45-5.25-152-9.83C284.4 473.75 86.33 512.67.27 536.31v156.1z" transform="translate(-.27 -2.16)"/><path class="cls-16" d="M507.81 445.38s-14.7-15.65-6.29-31.54 3.61-12.36 9-30.91 35-7.87 41.05 8.56 10.57 54.16 9.86 65.2-13.25 35.79-22.07 22-31.55-33.31-31.55-33.31z" transform="translate(-.27 -2.16)"/><path class="cls-19" d="M561.47 456.7c-.57 8.83-8.7 26.42-16.44 26.08v-6.21l-13.59-19.62 8.56 17.86 3.14 6.16c.48.94.1 4.1 0 4.59-1.66 7-35.32-40.17-35.32-40.17s-14.7-15.65-6.29-31.54 3.61-12.36 9-30.91a16.25 16.25 0 0 1 .76-2.08l6.35-6.42S507.22 399 514.55 410s1.29 20 1.29 20l13.9-2.48s8.85 7.76 18.38 18.17c3.27 3.57 8 1.61 12.89-2.51a105.53 105.53 0 0 1 .46 13.52z" transform="translate(-.27 -2.16)"/><path class="cls-20" d="M551.61 391.5c2.79 7.54 5.25 19.56 7 31.42-3.87-6.84-6.63.15-8.63-7.59-7-27.18-4.38.08-11.66-25.28-4.19-14.6-6.87-8-13.34-13.49a12.89 12.89 0 0 0-5.19-2.87c10.97-2.83 27.45 6 31.82 17.81z" transform="translate(-.27 -2.16)"/><path class="cls-22" d="M530.38 565.19s-8.59-25.68-3.92-42.11 23.31-27 22.95-39.51 2.51-28.08 2.51-28.08h-2.47l-5.19 28.6-13.36 17.41-7.39.26-12.39-11.44-9.38-14.32-2.11 1.56 7.65 14.3 9.13 14.3a47 47 0 0 1-2.52 17.16c-3.11 8.58-5.25 34.57-5.25 34.57l14.95 1.75 3.62 4.44z" transform="translate(-.27 -2.16)"/><path class="cls-16" d="M479.52 472.9s6.62 19.78 25.73 21.65 9.19-9.45 15.24-17.83 15-1.91.45-30.25-18.41-33.18-26-28 2.15 13.21-3.77 23-9.47 14.75-11.65 31.43z" transform="translate(-.27 -2.16)"/><path class="cls-19" d="M482.87 457.38a62.63 62.63 0 0 1 6.19-12.45 148.64 148.64 0 0 0 6 22.28c4 10.8 3.28 12.3 6.31 14.26s3.58 4.58 6.53 2.31 5.61-4.15 6-5.26 0-5.11 5-5.9c2.11-.34 4.69-.55 7-.68a20.05 20.05 0 0 0-5.41 4.79c-6.06 8.38 3.86 19.7-15.24 17.83s-25.73-21.65-25.73-21.65a96.75 96.75 0 0 1 1.88-10.46c.45-1.86.94-3.52 1.47-5.07z" transform="translate(-.27 -2.16)"/><path class="cls-20" d="M498.42 416.79c4.06-.92 7.62 2.56 13.8 13.35 2.44 4.25 5.28 9.63 8.72 16.32 1.73 3.36 3.13 6.23 4.24 8.7l.49 1.1c4.93 11.27 3.36 13.42.23 15.67l-.9.07a12.51 12.51 0 0 0 .3-3.75c.13-7.31-3.15-16.2-7.55-13.48a9.89 9.89 0 0 1-2.47-4.21c-.18-.49-.36-1-.54-1.53-1.93-5.81-3.41-13-7.54-9.08a1.08 1.08 0 0 1-.17.14c-1.27-.92-6.64-19.93-14.4-10.56-.82-4.36-1.9-8.06 2.13-10.91l.16-.11a10.57 10.57 0 0 1 3.5-1.72z" transform="translate(-.27 -2.16)"/><path class="cls-22" d="M543.38 485.3l-.5-6.49-11.44-23.4.8-.72 13.39 20.8-2.25 9.81z"/><path class="cls-23" d="M460.35 559.54l-9.35-6.38c1.88-5.07 8.64-11.65 8.64-11.65l11.27 9.58.75 5.45-11.27 3zm-3 6.39a22.71 22.71 0 0 1 12.4-4.51l8.27-1.88 52.37 5.64-3.17-1.09-3.62-4.44-14.95-1.75s.14-1.76.41-4.51c-15.26-2.15-35.93-4.75-35.93-4.75l-17.29-13.14s-18.79-6-24.42-5.26-16.53 2.63-19.91 7.51 6 10.52 6 10.52-4.88 2.63 3.38 8.27 17.28.38 17.28.38 13.16 13.52 19.17 9.01z" transform="translate(-.27 -2.16)"/><path class="cls-24" d="M518.86 507.89c0-3.76-3.19-7-2.63-8.27a12.77 12.77 0 0 1 2.14-2.6l-3.55-3.28a13 13 0 0 1-5.71 1l7.29 11.42a47 47 0 0 1-2.52 17.16c-2.3 6.35-4.07 22.24-4.83 30.07-.27 2.75-.41 4.51-.41 4.51l4.45.52c1.07-13.79 5.77-47.29 5.77-50.53z" transform="translate(-.27 -2.16)"/><path class="cls-25" d="M444.4 565.28l14.1-2.61 32.38 6.54 7.44 1.24-14.23 3.54-7.07-2.18-21.82 4.96-9.92-3.48-.88-8.01z"/><path class="cls-26" d="M454.92 567.75l7.27-16.63 2.91 8.94h5.62l.21 12.89-10.4-1.25-5.61-3.95z"/><path class="cls-27" d="M490.26 561.1l.62 8.11-19.95 3.74-.21-12.89 8.31 1.25 9.57-6.65 1.66 6.44z"/><path class="cls-28" d="M481.94 549.04l-19.75 2.08.22.67 2.69 8.27h5.62l8.31 1.25 8.98-6.25.59-.4-6.66-5.62z"/><path class="cls-29" d="M462.86 554.49c1.89 5 1 2.59 2.7 7.47 6.63-.1 6.61 0 13.67 1.19 5.92-4 2.94-2 9.05-5.93-1.71 1.29-7 5.35-8.81 6.5-.36.23-7.87-1.05-8.52-1.16l-5.58-.08c-.62-.05-2.37-7.39-2.51-7.99z" transform="translate(-.27 -2.16)"/><path class="cls-28" d="M479.73 563.39a43.17 43.17 0 0 1 0 5.09 50 50 0 0 1-.79-5.09h.74z" transform="translate(-.27 -2.16)"/><path class="cls-29" d="M465.92 562a19.14 19.14 0 0 1-.56 4.26c-.26-.41-.14-3.15-.15-4.05zm1.2.2a3.78 3.78 0 0 1-.31 1.91 12.88 12.88 0 0 1-.41-1.72z" transform="translate(-.27 -2.16)"/><path class="cls-26" d="M482.83 569.82l3.13-7.16 1.25 3.85h2.42l.09 5.55-4.47-.54-2.42-1.7z"/><path class="cls-27" d="M498.05 566.96l.27 3.49-8.6 1.61-.09-5.55 3.58.54 4.12-2.87.72 2.78z"/><path class="cls-28" d="M494.47 561.76l-8.51.9.1.29 1.15 3.56h2.42l3.58.54 3.87-2.69.25-.18-2.86-2.42z"/><path class="cls-29" d="M486.4 565.34c.81 2.16.44 1.12 1.16 3.21a22.49 22.49 0 0 1 5.89.51c2.55-1.71 1.27-.87 3.9-2.55-.74.56-3 2.3-3.79 2.8a36.94 36.94 0 0 1-3.67-.5h-2.4c-.27-.05-1.02-3.21-1.09-3.47z" transform="translate(-.27 -2.16)"/><path class="cls-28" d="M493.67 569.17a18.71 18.71 0 0 1 0 2.19 21.49 21.49 0 0 1-.34-2.19h.32z" transform="translate(-.27 -2.16)"/><path class="cls-29" d="M487.72 568.59a8.26 8.26 0 0 1-.24 1.84 8.75 8.75 0 0 1-.06-1.75zm.52.07a1.63 1.63 0 0 1-.13.83 5.59 5.59 0 0 1-.18-.74z" transform="translate(-.27 -2.16)"/><path class="cls-25" d="M454.84 623.47l47.16-3.16 106.6 16.23L590 648.4s-38.08 2.8-50 2.8-17.74-3.55-17.74-3.55 4.19-2.26-5.16-4.19-12.25-6.77-12.25-6.77a25.12 25.12 0 0 0-5.48 0c-3.23.32-8.06 2.58-12.58.32s-4.19-7.09-9.35-3.87-13.87-1.29-13.87-1.29-14.86-3.55-8.73-8.38z" transform="translate(-.27 -2.16)"/><path class="cls-16" d="M118.63 552.53s-10.71-11.4-4.58-23 2.63-9 6.58-22.52 25.48-5.74 29.91 6.24 7.7 39.46 7.18 47.51-9.65 26.08-16.08 16-23.01-24.23-23.01-24.23z" transform="translate(-.27 -2.16)"/><path class="cls-19" d="M157.72 560.78c-.41 6.44-6.34 19.25-12 19v-4.53l-9.9-14.25 6.27 13 2.29 4.49a8.58 8.58 0 0 1 0 3.34c-1.21 5.12-25.73-29.27-25.73-29.27s-10.71-11.4-4.58-23 2.63-9 6.58-22.52a11.73 11.73 0 0 1 .55-1.51l4.63-4.68s-7.61 17.92-2.27 25.91.94 14.54.94 14.54l10.13-1.81s6.37 5.65 13.37 13.23c2.38 2.6 5.86 1.17 9.39-1.83a76.86 76.86 0 0 1 .33 9.89z" transform="translate(-.27 -2.16)"/><path class="cls-20" d="M150.54 513.27c2 5.49 3.82 14.25 5.11 22.9-2.82-5-4.83.1-6.29-5.53-5.1-19.8-3.19.05-8.49-18.42-3.05-10.64-5-5.87-9.72-9.83a9.39 9.39 0 0 0-3.78-2.09c7.98-2.07 19.98 4.37 23.17 12.97z" transform="translate(-.27 -2.16)"/><path class="cls-22" d="M135.07 639.83s-6.26-18.71-2.85-30.69 17-19.7 16.72-28.79 1.83-20.46 1.83-20.46H149l-3.78 20.84-9.74 12.69-5.38.19-9-8.33-6.83-10.42-1.61 1.14 5.57 10.42 6.65 10.42a34.25 34.25 0 0 1-1.84 12.5c-2.27 6.25-3.82 25.19-3.82 25.19l10.89 1.28 2.63 3.23z" transform="translate(-.27 -2.16)"/><path class="cls-16" d="M98 572.59s4.82 14.41 18.75 15.77 6.69-6.89 11.11-13 11-1.39.33-22-13.42-24.18-19-20.39 1.57 9.63-2.75 16.79-6.84 10.67-8.44 22.83z" transform="translate(-.27 -2.16)"/><path class="cls-19" d="M100.45 561.28a45.63 45.63 0 0 1 4.55-9.08 108.4 108.4 0 0 0 4.39 16.23c2.9 7.87 2.39 9 4.6 10.39s2.61 3.34 4.75 1.68 4.09-3 4.4-3.83 0-3.72 3.62-4.3c1.54-.25 3.42-.4 5.07-.5a14.61 14.61 0 0 0-3.94 3.49c-4.41 6.11 2.81 14.35-11.11 13S98 572.59 98 572.59a70.64 70.64 0 0 1 1.38-7.59c.33-1.39.69-2.6 1.07-3.72z" transform="translate(-.27 -2.16)"/><path class="cls-20" d="M111.78 531.7c3-.67 5.55 1.87 10.05 9.73 1.77 3.1 3.85 7 6.36 11.89 1.26 2.45 2.28 4.54 3.09 6.34l.36.8c3.59 8.21 2.45 9.78.17 11.41h-.66a9.11 9.11 0 0 0 .22-2.73c.09-5.33-2.3-11.8-5.5-9.82a7.2 7.2 0 0 1-1.8-3.07c-.13-.36-.27-.73-.39-1.12-1.41-4.24-2.48-9.48-5.5-6.62l-.12.1c-.92-.67-4.84-14.52-10.5-7.7-.6-3.18-1.38-5.87 1.55-8l.12-.08a7.71 7.71 0 0 1 2.55-1.13z" transform="translate(-.27 -2.16)"/><path class="cls-22" d="M144.47 581.03l-.36-4.73-8.34-17.05.58-.52 9.76 15.15-1.64 7.15z"/><path class="cls-23" d="M84 635.72l-6.84-4.65c1.37-3.7 6.3-8.49 6.3-8.49l8.21 7 .55 4-8.22 2.14zm-2.19 4.65a16.54 16.54 0 0 1 9-3.29l6-1.37 38.16 4.11-2.31-.79-2.63-3.23-10.89-1.28s.11-1.28.3-3.28c-11.12-1.57-26.18-3.46-26.18-3.46l-12.5-9.58s-13.69-4.38-17.76-3.84-12 1.92-14.51 5.47 4.38 7.66 4.38 7.66-3.56 1.92 2.46 6 12.59.27 12.59.27 9.55 9.89 13.93 6.61z" transform="translate(-.27 -2.16)"/><path class="cls-24" d="M126.68 598.07c0-2.74-2.33-5.06-1.92-6a9.32 9.32 0 0 1 1.56-1.9l-2.59-2.39a9.45 9.45 0 0 1-4.16.74l5.31 8.32a34.25 34.25 0 0 1-1.84 12.5c-1.68 4.63-3 16.2-3.52 21.91-.19 2-.3 3.28-.3 3.28l3.24.38c.79-10.06 4.22-34.47 4.22-36.84z" transform="translate(-.27 -2.16)"/><path class="cls-30" d="M329.29 1192.71q3.72-3.54 7.46-7C511.2 1023.6 741.06 955.59 808.49 939.74c-1.37-2.28-9.06 1.19-10.45-1l-1.44-.15c-67-6.8-134.53-16.89-198.1-25.33q-2.65-.35-5.31-.66C376.46 887.53 62 1076.2.27 1112.42v80.29h329z" transform="translate(-.27 -2.16)"/><path class="cls-31" d="M430.43 693c153.65 51.68 279 104.11 367.19 245l24.7 3.08c85.4 8.22 168.22 14 237.13 17.95 0 0-72.42-121.2-239.91-201.6C754 726 678.47 702.58 610.83 685.78q-5.46-1.35-10.84-2.65c-50.17 4.87-108.62 7.95-169.56 9.87z" transform="translate(-.27 -2.16)"/><path class="cls-29" d="M839.58 507.88c-130.88 28-443.22 58.24-615.37 187.76 66.42.15 201.68 1.58 206.23-2.65 75.85-70.5 418.56-148.13 517.65-175.37-43.34-4.21-57.67-5.75-108.51-9.74z" transform="translate(-.27 -2.16)"/><path class="cls-9" d="M1033.92 356.47l7.58.57-.2 3.7-7.58-.58.2-3.69zm14.12 33.33l7.58.58-.2 3.69-7.58-.58.2-3.69zm34.41 32.85l7.58.57-.19 3.69-7.59-.57.2-3.69zm-52.16-2.06l7.58.58-.19 3.69-7.59-.57.2-3.7zm25.22 1.03l7.58.58-.2 3.69-7.58-.57.2-3.7zm-26.75 28.9l7.58.58-.2 3.69-7.58-.58.2-3.69zm49.63 31.32l7.58.57-.19 3.7-7.59-.58.2-3.69zm-52.16-2.05l7.59.57-.2 3.69-7.59-.57.2-3.69zm25.22 1.02l7.58.58-.2 3.69-7.58-.57.2-3.7zm24.18 29.8l7.58.58-.2 3.69-7.58-.58.2-3.69zm-26.95-1.02l7.59.57-.2 3.69-7.58-.57.19-3.69zm-8.53-43.57l7.58.58-.2 3.69-7.58-.57.2-3.7zm27.78-28.37l7.58.58-.19 3.69-7.59-.57.2-3.7zM122.44 313.24l2.55.14 6.86 180.37-2.54-.14-6.87-180.37zm21.74-1.4l2.54.14 6.87 180.37-2.55-.14-6.86-180.37zm-10.37.85l2.55.14 6.87 180.37-2.55-.14-6.87-180.37z"/><path class="cls-16" d="M142.46 647.79c9.35-19.55 37.43-18.23 55.47-12 28.14 9.68 54.71-31.9 80-22.89s30 24.6 71 34.66 46 40 46 40-23.52 20.39-40 20.39 16.5 22.92-16 31.31-31.18 13.46-56.5 4.47-38.46-27.43-67-25.16-80 11.12-98-6.71c-54.3-53.92 21.33-56.33 25.03-64.07z" transform="translate(-.27 -2.16)"/><path class="cls-17" d="M166.61 945.67s25.14-23.33 29.57-88.66 4.43-75.34 4.43-75.34l-60-52-22-54 3.58-2.15 28.42 49.15 52 25 14-11 66.82-29.57 21.18-36.43h5L289.11 712l-27 15.21 39 5 40.77-5.71 2.23 3.71-43 7.5-44-1.5-28 18 9 40 41-9 45 12-1.5 5.5-43-11.5-37.5 14s1.5 105 10.5 122c18.48 34.92 38.37 29.75-13.5 27.5 0 0-23.5 27-35 29.5l-11.5 2.5s12-27 12-29.5-1-2 0-5-32.5 6.5-47.5 6.5-29.5 1-29.5 1 .5-7.03 39-14.04z" transform="translate(-.27 -2.16)"/><path class="cls-18" d="M199.15 952s17.28-46.31 14.28-56.31-11.5-13.5-6.5-29 8-50 8-50-4-25.5 3.5-31.5 11-20.48 11-20.48-62-27.52-69-32-11.87-7.37-11.87-7.37l-28.16-50.75-1.79 1.08 22 54 61.81 50-3.63 37.15L174.22 801l-7 4 30.93 22.14s-3 57.72-10 76.64-21.58 41.88-21.58 41.88-23.7 3.36-32.44 8.88-6.56 5.12-6.56 5.12l30.85-1z" transform="translate(-.27 -2.16)"/><path class="cls-17" d="M202.43 829.21c-4.39-.28-41.5-29-41.5-29l5-4.5 42 27s4.5 5.5-5.5 6.5z" transform="translate(-.27 -2.16)"/><path class="cls-16" d="M152.38 811.84s-31 .81-39.15-21.09 11.26-15.08 21.85-26-1.49-18.68 44.32-13.75 54 7.33 48.54 18.69-20 3.25-32.77 14.6-18.9 17.64-42.79 27.55z" transform="translate(-.27 -2.16)"/><path class="cls-19" d="M194.53 695.53c-7.14 2.16-15.52 9-19.23 6.79-2-1.18-.84-3.9 1.06-6.92 2.94-4.67 7.76-10.06 5.94-11.58-3-2.5-30.5 14.5-47-11.5-5.12-8.08-6.78-14.12-6.62-18.63-17 5.46-41.71 14.52-25.55 40.85a95.8 95.8 0 0 0 14.29 17.29c4.63 4.6 11.48 7.42 19.6 9l-10.59-26-7.83-19.21 1.79-1.08 1.79-1.08L134.6 695l15.91 27.52c21.65 1.25 47.53-2.58 64.91-4a55.49 55.49 0 0 1 29.38 5.64l38.62-17.09 6.5-11.18h-1.15c-10.05.3-21 2.65-24.49 2.41-4.66-.31-14.35-1.25-21.74-2.61h-.22c-4.39-.82-7.92-1.78-9-2.85-1.88-1.79-3.37-.23-5.2 2.83-1.09 1.82-2.31 4.18-3.8 6.66-4 6.66-15.5-3-23-6.76-1.96-.98-4.32-.79-6.79-.04zM289.11 712l-27 15.21 39 5 2.1-.29c-.55-3.94 1-10.9 4.1-22.05 2.49-9-2.75-12.52-10.4-13.57zm12 25.67l-34.33-1.17a104.23 104.23 0 0 0 15.64 7.21c25 8.89 24 4 55.36-4.18 2.86-.77 10-3.4 12-5.16 5.5-4.75 4.11-8.62 4.11-8.62s-4.56 1.19-10.81 2.77l1 1.65-32.23 5.62h-.05zm3.81 21.54c-11.2 3.2-34.31 18.33-34.77 27.93l9-2 45 12-1.5 5.5-43-11.5-5 1.87c16.32 7.17 38.32 30.17 38.32 30.17s18 14 39-1 16-8 40-20a29.26 29.26 0 0 0 2.7-1.53l8.83-9.76s-32.21 20-45.16 13.9-25 4-25 4l4.75-18.1a203.5 203.5 0 0 0-20.75-17.9c-4.12-3.09-1.09-9.61 4.67-16.85a142.55 142.55 0 0 0-17.09 3.27zM174.22 801a113.81 113.81 0 0 0 16.53-12.83 267.34 267.34 0 0 1-34.45 2.62c-17 0-19 1.5-22.75-1.25s-7.75-2.25-5.25-6.75 4.5-8.5 6-9.5 7.5-2.25 7.25-8.5a74.6 74.6 0 0 0-1-8.57c-1.24 2.42-2.39 5.35-5.49 8.53-10.58 10.88-30 4.06-21.85 26s39.15 21.09 39.15 21.09c5.91-2.45 10.73-4.68 14.84-6.83 2.61-1.34 4.91-2.66 7.02-4.01z" transform="translate(-.27 -2.16)"/><path class="cls-20" d="M229.42 764.72c.19-5.23-5.94-7.93-23.55-10.55-6.94-1-15.66-2-26.47-3.21-5.43-.58-10-1-14-1.22l-1.76-.1c-18-.91-20.67 1.89-23.08 6.61.06.36.12.73.17 1.1a24.18 24.18 0 0 1 5.43-2c10.7-3.36 24.7-3.36 22 3.06 1.43.84 4 1.08 6.89 1.09h2.41c9.09-.25 20.09-1.66 15.49 5a1.53 1.53 0 0 0-.16.27c1.71 1.1 31.17-.86 19.63 12.5 6.65-.94 12.38-1.28 15.43-7.32l.12-.24a12.9 12.9 0 0 0 1.45-4.99zm83.71-118.28c2.39 3.6 18.83 3.72 27.73 9.18l5.07 3.82c7.68 2.13 15.48-1.77 27.31 7.14a18.54 18.54 0 0 1 4.1 4.47l.28.32a6.4 6.4 0 0 1 .78 1.39c3.53 6.21 5.29 14.75 4 21.49q-.14.74-.33 1.45a17.3 17.3 0 0 1-.57 1.77c.93-.6 1.83-1.2 2.7-1.8s1.47-1 2.16-1.51c5.15-3.67 8.57-6.64 8.57-6.64s-5-29.93-46-40a134.67 134.67 0 0 1-27.1-9.46c-18.13-8.8-25.67-18.71-43.9-25.2-25.29-9-51.86 32.57-80 22.89-18-6.21-46.11-7.53-55.47 12l-.1.18c11.33-4.93 24.34-10.12 32.69-7.21 10.15 3.54 1.55 6.91 24.78 5.31 15.37-1.06 12.48-.72 24.38-5.73 13.21-5.57 5.61 4.85 18.94-6.59 12.11-10.4 38.19-16.84 47 1.75 3.25 2.68 11.49-3.21 20.67 7.84a35.94 35.94 0 0 1 2.31 3.14zm72.79 106.77c-9.17-1.38-24-1.07-38.77.05 8.16 2.92-1 8.35 8.56 8.67 33.42 1.12-.61 5.51 30.49 7.48 17.91 1.14 9.34 6.33 15.44 12.91a10.83 10.83 0 0 1 3 5.69c4.85-14.5-4.35-32.64-18.72-34.8z" transform="translate(-.27 -2.16)"/><path class="cls-11" d="M47.87 946.74s9.52-15.87 17.76-25.06S93 897.24 93 897.24l3.81 32.58s-27.08 1.88-48.94 16.92zm58.32-54.31s-3.54.21-.92 12.74a97.7 97.7 0 0 0 7.54 22.14l40.64-6.06-17.94-30.48s8.49-13.58-29.32 1.66z" transform="translate(-.27 -2.16)"/><path class="cls-11" d="M95.44 971.73l7.12-13.79 19.75 9.19-26.87 4.6z"/><path class="cls-32" d="M788.23 937.69c-169.14 48.5-333.34 125.42-464.56 244.41-3.36 3-7.79 7.49-10.83 10.61h16.45q3.72-3.54 7.46-7l3.64-3.36.77-.71C503 1033.55 710.32 965.24 792.27 943.79q7.39-2.13 14.8-4.19l1-.28-2.8-.35c-.67.05-1.38.15-2.09.24-2.24.3-4.46.58-5.14-.52l-1.44-.15-.95-.1h-.29l-7.12-.74zm-734.76 159.5c152.8-84.06 366.58-192.33 541.65-184.13.78 0 2.4.17 4.49.34l-1.11-.18q-2.65-.35-5.31-.66l-3.41-.37c-6.87-.46-15.25-1.25-17.7-1.38h-.2C396.81 902.59 183 1010.86 30.23 1094.92c-12.85 7.42-23 13.43-30 17.5v15.4c15.44-9.26 33.4-19.72 53.24-30.63z" transform="translate(-.27 -2.16)"/><path class="cls-29" d="M124.83 1192.71c126.68-99.26 340.1-231.53 532.45-270.71l2.33-.47-18.26-2.53-2.34.38c-158.31 26.1-331.87 127.34-460.44 207.72-45.33 28.34-80.33 53.52-96.61 65.58h42.87z" transform="translate(-.27 -2.16)"/><path class="cls-30" d="M165.67 1118.69l79.49 19.5 16.01-9-88.51-24 99.01-49.5 55 19 15-7.5-54.5-23 80-36 35.5 17 9.5-5-34.5-17.5 79-32.5 28.5 16 8.5-2.5-31-20.5 61.99-19.5 22 15 7-1.5-24-18 54.76-14 18.25 14 5.5-2.01-16.25-14.25-1.25-3.75-169.75 39.5-263 113 7.75 47.01z"/><path class="cls-19" d="M1014.19 1110.34c-44.3-7.91-47.3 55.52-46.62 82.37h223.25v-109.85c-6.61.55-13.34.94-15.63.48-5-1-28-14-28-14s-15-4-29-1-13 18-40 18-8 34-64 24z" transform="translate(-.27 -2.16)"/><path class="cls-33" d="M846.19 1144.34c-18.52 2-33.54 29.77-41.59 48.37h163c-.36-14.09.3-38.27 7.41-56.91l-18.79-.46s-16-1-25-4-19 4-25 2-10-6-20-8-12.03 16-40.03 19z" transform="translate(-.27 -2.16)"/><path class="cls-34" d="M1094.18 1151.34c-27.45-5.93-62.6 25-78.92 41.37h175.55V1143c-2.38 2.05-4.39 3.37-5.64 3.37-5.63 0-7-7-15-11s-9 0-15 6-23.99 17.97-60.99 9.97z" transform="translate(-.27 -2.16)"/><path class="cls-29" d="M1025 929.86c6.9 9.68 14.15 19.12 20.75 27.42l13 .75c-7.35-11.77-80.71-124.47-239.29-200.6C754 726 678.47 702.58 610.83 685.78l-7.17-1.78c0 1.08.07 2.1.08 3.06l24 6.6S744 723.82 834.39 771.94 1004.23 900.69 1025 929.86zm-216.92 9.46l6 .75c-4.94-9.72-14.56-25.06-33.29-48.33C741 842.31 680.21 793 621.46 763.53c-44.41-22.25-132.79-56-173.28-71.13q-8.83.32-17.74.6c153.65 51.68 279 104.11 367.19 245l7.66 1h.23c.55 0 1.08.13 2.56.32z" transform="translate(-.27 -2.16)"/><path class="cls-4" d="M887.26 892.87c26.36 31.12 36.08 48.47 39.66 57.26q9.86.76 19.57 1.48c-3.06-8.26-12.31-25.78-40.24-58.75-43.14-50.93-109.08-101.78-172.81-132.11-48.11-22.91-143.79-57.61-187.79-73.24q-8 .54-16.09 1c45.18 16.08 137.81 49.79 184.89 72.21 63.73 30.37 129.67 81.21 172.81 132.15z" transform="translate(-.27 -2.16)"/><path class="cls-31" d="M884.38 911.81l51-6-20-9.5-43.9 2-26.6-34.54 44.5-8.5-11-3.5-39.5 4-21-16.5-6-5-3.5-3.5 26-14.5-10-3-22.5 14-38-30.5 22-16.5-5.06-2.06L757.7 794l-39.63-23.32 24-14.68-9.62-2-21 12.25-25.25-11.38 18.25-14-5.12-1.5-20.13 14.37-28.5-13 18.75-13-5.5-2.75-23.75 14.25-32.5-13.5 25.25-11.25-8.75-3.25-27.25 10.5-28.5-10L598.94 700l-7.75-2-29.75 9.75-28-11.75 26.75-6.5-3.19-2.78-53.73 3.28 62.92 34.47s223.87 83.4 240 150 78.19 37.34 78.19 37.34z" transform="translate(-.27 -2.16)"/><path class="cls-26" d="M586.31 1127.58l28-64 11.2 34.4h21.6l.8 49.6-40-4.8-21.6-15.2z"/><path class="cls-27" d="M722.31 1101.98l2.4 31.2-76.8 14.4-.8-49.6 32 4.8 36.8-25.6 6.4 24.8z"/><path class="cls-28" d="M690.31 1055.58l-76 8 .84 2.59 10.36 31.81h21.6l32 4.8 34.57-24.04 2.23-1.56-25.6-21.6z"/><path class="cls-29" d="M616.1 1070.4c7.26 19.29 3.89 10 10.39 28.73 25.5-.37 25.44.16 52.62 4.59 22.77-15.3 11.3-7.78 34.83-22.82-6.57 5-27 20.58-33.9 25-1.37.87-30.29-4.06-32.78-4.45-1.68 0-21.14-.27-21.49-.3-2.39-.21-9.03-28.44-9.67-30.75z" transform="translate(-.27 -2.16)"/><path class="cls-28" d="M681 1104.64c0 8.2.91 11.12.17 19.6-1.29-7.41-2.41-12-3-19.6H681z" transform="translate(-.27 -2.16)"/><path class="cls-29" d="M627.89 1099.43c-.1 3.52-1 14.6-2.17 16.41-1-1.59-.54-12.12-.57-15.59zm4.61.64c-.15 5 .25 2.56-1.18 7.37a49.82 49.82 0 0 1-1.58-6.63z" transform="translate(-.27 -2.16)"/><path class="cls-4" d="M321.82 638.08c2.23 1.08 4.63 2.15 7.23 3.19 19.2-9 43.25-19.63 65.4-27.24 46.85-16.1 143.9-46.25 231.44-62.94 42.12-8 113-21.18 175.23-32.66l51.41-9.43-12.95-1.08c-11.47 2.46-24.33 4.93-38.37 7.49-119.13 21.65-323 49.23-479.39 122.67zM948 517.64l-12.31-1.21q-28.1 7.27-55.94 14.42c-102.69 26.44-203.26 52.51-305.71 84.75 0 0-56.5 19.5-96.5 39-34 16.57-52.46 33.89-57.24 38.71-.84.85-1.26 1.31-1.26 1.31 6.58-.41 10.64-.95 11.36-1.62 65.23-60.63 327.76-126.52 463.05-161.12 22.05-5.63 40.7-10.43 54.55-14.24zM382.77 665.9C470 608 680.69 558.45 823.79 526.61c24-5.34 46.08-10.18 65.37-14.48l.47-.1-10-.88-.45.1c-16.1 3.57-38.88 8.64-65.32 14.61-82.45 18.61-200.53 45.9-263.13 63.3-82.32 22.89-154.64 55.3-179.92 67.18a58.63 58.63 0 0 1 11.96 9.56z" transform="translate(-.27 -2.16)"/><path class="cls-29" d="M427.19 626.66l18.25 15.25 7.75-4.25-18-15.25 46.75-14.75 13 11.75 8-3.25-11.25-13 46.25-13.25 10.75 10.75 7.75-3-11-10.25 35.5-9.25 8.5 9.75 5.5-1.25 1.63-.87-8.76-9.79 29.88-6.87 6.31 8.37 5.19-1.37-5.87-8.62L652.5 561l5.25 7.25 6-1.5-4.5-8.5 26.5-5 4.25 6.25 5.75-1.25-4-7.75 26.25-5.22 3.75 7.5 6-1.75-4.25-7.5 27.25-5.25 4 7 5.5-1.25-4.5-8.25s23.25-6.78 23.75-4.5 4.5 7.5 4.5 7.5l4.5-1.75-4-7.25 23.11-4.39 4.77 6.14 4.75-1.12-4.63-7.41 26-4.37 4.63 5.62 5-1.25-4.87-5.75 24.74-4.59s10.25 4.24 10 3.12 15.86-3.37 15.86-3.37L863 509.75 474.44 588.7s-69.69 34.46-47.25 37.96z" transform="translate(-.27 -2.16)"/><path class="cls-19" d="M194.53 695.53c-7.14 2.16-15.52 9-19.23 6.79-2-1.18-.84-3.9 1.06-6.92 2.94-4.67 7.76-10.06 5.94-11.58-3-2.5-30.5 14.5-47-11.5-5.12-8.08-6.78-14.12-6.62-18.63-17 5.46-41.71 14.52-25.55 40.85a95.8 95.8 0 0 0 14.29 17.29c4.63 4.6 11.48 7.42 19.6 9l-10.59-26-7.83-19.21 1.79-1.08 1.79-1.08L134.6 695l15.91 27.52c21.65 1.25 47.53-2.58 64.91-4a55.49 55.49 0 0 1 29.38 5.64l38.62-17.09 6.5-11.18h-1.15c-10.05.3-21 2.65-24.49 2.41-4.66-.31-14.35-1.25-21.74-2.61h-.22c-4.39-.82-7.92-1.78-9-2.85-1.88-1.79-3.37-.23-5.2 2.83-1.09 1.82-2.31 4.18-3.8 6.66-4 6.66-15.5-3-23-6.76-1.96-.98-4.32-.79-6.79-.04zM289.11 712l-27 15.21 39 5 2.1-.29c-.55-3.94 1-10.9 4.1-22.05 2.49-9-2.75-12.52-10.4-13.57z" transform="translate(-.27 -2.16)"/><path class="cls-20" d="M313.13 646.44c2.39 3.6 18.83 3.72 27.73 9.18l5.07 3.82c7.68 2.13 15.48-1.77 27.31 7.14a18.54 18.54 0 0 1 4.1 4.47l.28.32a6.4 6.4 0 0 1 .78 1.39c3.53 6.21 5.29 14.75 4 21.49q-.14.74-.33 1.45a17.3 17.3 0 0 1-.57 1.77c.93-.6 1.83-1.2 2.7-1.8s1.47-1 2.16-1.51c5.15-3.67 8.57-6.64 8.57-6.64s-5-29.93-46-40a134.67 134.67 0 0 1-27.1-9.46c-18.13-8.8-25.67-18.71-43.9-25.2-25.29-9-51.86 32.57-80 22.89-18-6.21-46.11-7.53-55.47 12l-.1.18c11.33-4.93 24.34-10.12 32.69-7.21 10.15 3.54 1.55 6.91 24.78 5.31 15.37-1.06 12.48-.72 24.38-5.73 13.21-5.57 5.61 4.85 18.94-6.59 12.11-10.4 38.19-16.84 47 1.75 3.25 2.68 11.49-3.21 20.67 7.84a35.94 35.94 0 0 1 2.31 3.14z" transform="translate(-.27 -2.16)"/><path class="cls-16" d="M611.54 843.49s25.29-28.83 8.23-37.87-10.85-24.38-27.66-23.55-6.42 11.87-17.18 7.72c-2.4-.92-12.78 5.33-14.39 2.55-5-8.68-16.27-3.73-18.91 4.09-3.4 10.06-4.16 2.65-19.27 13.45s-4.63 17.78 6.56 27.4 18.26 15.65 82.62 6.21z" transform="translate(-.27 -2.16)"/><path class="cls-35" d="M603.56 827.8c2.15.37 10.67.05 17-13.59a20.43 20.43 0 0 0 1.94-6.63c11.17 10.64-11 35.91-11 35.91-64.36 9.44-71.45 3.42-82.63-6.21-4.84-4.17-9.55-7.84-12.11-11.54 3.08 2 6.84 2.78 7.64 2.51 1.11-.37 3.38-1.78 5.9 1.07s6.23 6.9 10.3 2.93 15 .79 16.12-.25 2.81 1.31 3.83 2.27 7.48 1.85 8.39 1.68 5.26-2.77 7.4-5.08 4.14 3 9 6.41 8.12-2.35 10.14-8 5.93-1.85 8.08-1.48z" transform="translate(-.27 -2.16)"/><path class="cls-20" d="M592.1 782.08c16.81-.83 10.59 14.51 27.66 23.55a12.36 12.36 0 0 1 2.77 2q0 .34-.08.7c-4.51-.58-10.62-2.38-14.33-7.65-6.44-9.15-9.29-15.67-17.41-15.47s-10.65 7.54-10.65 7.54-2-3.26-9.29.94-10.29 2.21-12.28-.38-7.76-5.66-11.4-.1-3.26 10.72-9.34 12.32-17 3.79-21.26 10a23.73 23.73 0 0 1 5.87-5.57c15.12-10.8 15.88-3.39 19.27-13.45 2.64-7.82 13.87-12.77 18.91-4.09 1.61 2.78 12-3.47 14.39-2.55 10.76 4.07.36-6.96 17.17-7.79z" transform="translate(-.27 -2.16)"/><path class="cls-16" d="M606.68 860.19s-26.68-36.07-4.13-43.39 17.3-25.36 38-21.75 6 14.21 20 11.32c3.11-.64 15 8 17.39 5.13 7.61-8.84 20.71-1.55 22.73 7.56 2.6 11.72 4.72 3.61 21.69 18s2.89 20.49-12.48 29.4-25.12 14.48-103.2-6.27z" transform="translate(-.27 -2.16)"/><path class="cls-36" d="M619 844c-2.71.07-13.21-1.65-18.89-17.82a21 21 0 0 1-1.35-7.67c-15.52 10 7.87 41.65 7.87 41.65 78.08 20.76 87.81 15.2 103.18 6.29 6.65-3.86 13.07-7.18 16.82-10.88-4.13 1.76-8.9 2-9.85 1.57-1.31-.59-3.89-2.52-7.47.25s-8.8 6.67-13.2 1.61-18.64-1.51-19.9-2.85-3.68 1-5.1 1.91-9.54.86-10.65.53-6.06-3.92-8.34-6.83-5.6 2.63-12.12 5.69-9.67-3.91-11.25-10.53S621.76 844 619 844z" transform="translate(-.27 -2.16)"/><path class="cls-20" d="M640.51 795.05c-20.66-3.61-15.41 14.43-38 21.75a15.86 15.86 0 0 0-3.74 1.74v.79c5.67.08 13.52-.94 18.95-6.21 9.42-9.13 14-15.93 24-14.41a14.14 14.14 0 0 1 12 10.08s2.93-3.31 11.34 2.52 12.37 4.09 15.25 1.53 10.5-5.05 14.11 1.71 2.32 12.45 9.58 15.18 20.42 6.92 24.7 14.47a27.87 27.87 0 0 0-6.37-7.12c-17-14.41-19.09-6.3-21.69-18-2-9.11-15.12-16.4-22.73-7.56-2.44 2.83-14.28-5.77-17.39-5.13-13.97 2.87.65-7.73-20.01-11.34z" transform="translate(-.27 -2.16)"/><path class="cls-16" d="M621.52 630.68s-16.31-18.6-5.31-24.42 7-15.73 17.84-15.19 4.14 7.65 11.08 5c1.54-.6 8.24 3.44 9.28 1.65 3.25-5.6 10.49-2.41 12.2 2.64 2.19 6.49 2.68 1.71 12.43 8.67s3 11.47-4.23 17.67-11.81 10.07-53.29 3.98z" transform="translate(-.27 -2.16)"/><path class="cls-35" d="M626.66 620.56c-1.38.24-6.88 0-11-8.76a13.17 13.17 0 0 1-1.25-4.27c-7.21 6.86 7.09 23.16 7.09 23.16 41.51 6.09 46.08 2.2 53.3-4 3.12-2.69 6.16-5.05 7.81-7.44-2 1.31-4.41 1.79-4.93 1.62-.72-.24-2.18-1.15-3.81.69s-4 4.45-6.64 1.89-9.66.51-10.4-.16-1.81.84-2.47 1.46-4.82 1.19-5.41 1.09a15.68 15.68 0 0 1-4.77-3.28c-1.39-1.49-2.67 1.91-5.79 4.14s-5.24-1.52-6.54-5.18-3.85-1.2-5.19-.96z" transform="translate(-.27 -2.16)"/><path class="cls-20" d="M634.05 591.07c-10.84-.54-6.83 9.36-17.84 15.19a7.94 7.94 0 0 0-1.79 1.26c0 .15 0 .3.05.45 2.91-.37 6.85-1.53 9.25-4.93 4.15-5.9 6-10.11 11.23-10a7.59 7.59 0 0 1 6.87 4.87s1.26-2.1 6 .6 6.63 1.42 7.92-.25 5-3.65 7.35-.06 2.1 6.92 6 7.95 11 2.44 13.71 6.43A15.32 15.32 0 0 0 679 609c-9.75-7-10.24-2.19-12.43-8.67-1.7-5-8.95-8.23-12.2-2.64-1 1.79-7.73-2.24-9.28-1.65-6.9 2.68-.19-4.43-11.04-4.97z" transform="translate(-.27 -2.16)"/><path class="cls-16" d="M624.65 641.45s17.21-23.26 2.67-28-11.16-16.35-24.49-14-3.9 9.16-12.91 7.3c-2-.41-9.64 5.13-11.21 3.31-4.91-5.7-13.36-1-14.66 4.88-1.67 7.56-3 2.33-14 11.62s-1.86 13.22 8 19 16.24 9.28 66.6-4.11z" transform="translate(-.27 -2.16)"/><path class="cls-36" d="M616.68 631c1.75 0 8.52-1.06 12.18-11.49a13.54 13.54 0 0 0 .87-5c10 6.48-5.07 26.87-5.07 26.87-50.36 13.39-56.64 9.8-66.55 4.05-4.29-2.49-8.43-4.63-10.85-7 2.66 1.14 5.74 1.28 6.35 1 .85-.38 2.51-1.62 4.82.16s5.68 4.3 8.52 1 12-1 12.84-1.84 2.37.65 3.29 1.23 6.15.55 6.87.34a19.48 19.48 0 0 0 5.38-4.4c1.48-1.88 3.61 1.7 7.82 3.67s6.24-2.52 7.26-6.79 4.52-1.8 6.27-1.8z" transform="translate(-.27 -2.16)"/><path class="cls-20" d="M602.83 599.44c13.32-2.33 9.94 9.31 24.49 14a10.25 10.25 0 0 1 2.41 1.12v.51c-3.66.05-8.72-.61-12.22-4-6.08-5.89-9-10.27-15.48-9.3a9.12 9.12 0 0 0-7.72 6.5s-1.89-2.13-7.32 1.63-8 2.64-9.84 1-6.77-3.26-9.1 1.1-1.5 8-6.18 9.79-13.17 4.46-15.93 9.33a18 18 0 0 1 4.11-4.59c10.94-9.29 12.31-4.06 14-11.62 1.3-5.88 9.75-10.58 14.66-4.88 1.57 1.82 9.21-3.72 11.21-3.31 9.01 1.88-.41-4.96 12.91-7.28z" transform="translate(-.27 -2.16)"/><path class="cls-23" d="M324.7 572.48l84.83-7.58-15.9 28.23L375 605s-38.08 2.8-50 2.8-17.74-3.55-17.74-3.55 4.19-2.26-5.16-4.19 2.75-6.77 2.75-6.77a25.13 25.13 0 0 0-5.48 0c-3.23.32-8.06 2.58-12.58.32-18.84-9.42-8.66-8.58 12.9-16.78 5.1-1.94 20.31-.6 25.01-4.35z" transform="translate(-.27 -2.16)"/><path class="cls-16" d="M406.55 587.28s-16.31-18.6-5.31-24.43 7-15.72 17.84-15.19 4.14 7.65 11.08 5c1.55-.6 8.24 3.44 9.28 1.65 3.25-5.6 10.49-2.41 12.2 2.64 2.19 6.49 2.68 1.71 12.43 8.67s3 11.47-4.23 17.67-11.78 10.08-53.29 3.99z" transform="translate(-.27 -2.16)"/><path class="cls-35" d="M411.7 577.16c-1.38.24-6.89 0-11-8.77a13.19 13.19 0 0 1-1.25-4.27c-7.21 6.86 7.09 23.16 7.09 23.16 41.51 6.09 46.08 2.2 53.3-4 3.12-2.69 6.16-5.05 7.81-7.44-2 1.31-4.41 1.79-4.93 1.62-.72-.24-2.18-1.15-3.81.69s-4 4.45-6.64 1.89-9.65.51-10.4-.16-1.81.84-2.47 1.46-4.82 1.19-5.41 1.09a15.69 15.69 0 0 1-4.77-3.28c-1.38-1.49-2.67 1.91-5.79 4.14s-5.24-1.52-6.54-5.18-3.81-1.19-5.19-.95z" transform="translate(-.27 -2.16)"/><path class="cls-20" d="M419.09 547.67c-10.84-.54-6.83 9.36-17.84 15.19a8 8 0 0 0-1.79 1.26q0 .22.05.45c2.91-.37 6.85-1.53 9.25-4.93 4.15-5.9 6-10.11 11.23-10a7.59 7.59 0 0 1 6.87 4.87s1.26-2.1 6 .6 6.63 1.42 7.92-.25 5-3.65 7.35-.07 2.1 6.92 6 7.95 11 2.44 13.71 6.43a15.29 15.29 0 0 0-3.78-3.59c-9.75-7-10.24-2.19-12.43-8.67-1.7-5-8.95-8.23-12.2-2.64-1 1.79-7.73-2.24-9.28-1.65-6.92 2.7-.22-4.42-11.06-4.95z" transform="translate(-.27 -2.16)"/><path class="cls-16" d="M409.69 598s17.21-23.26 2.66-28-11.16-16.35-24.49-14-3.9 9.17-12.91 7.3c-2-.42-9.64 5.13-11.21 3.31-4.91-5.7-13.36-1-14.66 4.88-1.67 7.56-3 2.33-14 11.62s-1.86 13.21 8 19 16.25 9.33 66.61-4.11z" transform="translate(-.27 -2.16)"/><path class="cls-36" d="M401.71 587.62c1.75 0 8.52-1.06 12.18-11.49a13.54 13.54 0 0 0 .87-4.95c10 6.47-5.07 26.86-5.07 26.86-50.36 13.39-56.64 9.8-66.55 4.05-4.29-2.49-8.43-4.63-10.85-7 2.66 1.14 5.74 1.29 6.36 1 .85-.38 2.51-1.62 4.82.16s5.68 4.3 8.52 1 12-1 12.84-1.84 2.37.65 3.29 1.23 6.15.55 6.87.34a19.47 19.47 0 0 0 5.38-4.4c1.48-1.88 3.61 1.7 7.82 3.67s6.24-2.52 7.26-6.79 4.55-1.88 6.26-1.84z" transform="translate(-.27 -2.16)"/><path class="cls-20" d="M387.87 556c13.32-2.33 9.94 9.31 24.49 14a10.21 10.21 0 0 1 2.41 1.12v.51c-3.66.05-8.72-.61-12.22-4-6.08-5.89-9-10.27-15.48-9.3a9.12 9.12 0 0 0-7.72 6.5s-1.89-2.13-7.32 1.63-8 2.64-9.84 1-6.77-3.26-9.1 1.1-1.5 8-6.18 9.79-13.17 4.46-15.93 9.34a18 18 0 0 1 4.11-4.6c10.95-9.29 12.31-4.06 14-11.62 1.3-5.88 9.75-10.58 14.66-4.88 1.57 1.82 9.21-3.72 11.21-3.31 9.04 1.92-.42-4.92 12.91-7.28z" transform="translate(-.27 -2.16)"/><path class="cls-26" d="M448.06 796.13l10.45-23.88 4.18 12.83h8.06l.3 18.51-14.93-1.79-8.06-5.67z"/><path class="cls-27" d="M498.82 786.58l.89 11.64-28.66 5.37-.3-18.51 11.94 1.79 13.74-9.55 2.39 9.26z"/><path class="cls-28" d="M486.88 769.26l-28.37 2.99.32.96 3.86 11.87h8.06l11.94 1.79 12.91-8.97.83-.58-9.55-8.06z"/><path class="cls-29" d="M459.35 776.14c2.71 7.2 1.45 3.72 3.88 10.72 9.52-.14 9.5.06 19.64 1.71 8.5-5.71 4.22-2.91 13-8.52-2.45 1.85-10.07 7.68-12.65 9.33-.51.33-11.31-1.51-12.23-1.66l-8-.11c-.93-.07-3.4-10.61-3.64-11.47z" transform="translate(-.27 -2.16)"/><path class="cls-28" d="M483.57 788.92c0 3.06.34 4.15.06 7.31a71.74 71.74 0 0 1-1.13-7.31h1.07z" transform="translate(-.27 -2.16)"/><path class="cls-29" d="M463.75 787c0 1.31-.39 5.45-.81 6.12-.37-.59-.2-4.52-.21-5.82zm1.72.21A5.44 5.44 0 0 1 465 790a18.7 18.7 0 0 1-.59-2.47z" transform="translate(-.27 -2.16)"/><path class="cls-26" d="M488.15 799.1l4.5-10.29 1.8 5.53h3.47l.13 7.97-6.43-.77-3.47-2.44z"/><path class="cls-27" d="M510 794.99l.39 5.01-12.34 2.31-.13-7.97 5.14.77 5.92-4.11 1.02 3.99z"/><path class="cls-28" d="M504.86 787.53l-12.21 1.28.13.42 1.67 5.11h3.47l5.14.77 5.56-3.86.36-.25-4.12-3.47z"/><path class="cls-29" d="M493.16 791.72c1.17 3.1.63 1.6 1.67 4.62a32.35 32.35 0 0 1 8.46.74c3.66-2.46 1.82-1.25 5.6-3.67-1.06.8-4.34 3.31-5.45 4a52.9 52.9 0 0 1-5.27-.72h-3.45c-.39-.06-1.46-4.6-1.56-4.97z" transform="translate(-.27 -2.16)"/><path class="cls-28" d="M503.59 797.22a26.62 26.62 0 0 1 0 3.15 30.74 30.74 0 0 1-.49-3.15h.46z" transform="translate(-.27 -2.16)"/><path class="cls-29" d="M495.06 796.39a11.86 11.86 0 0 1-.35 2.64 12.54 12.54 0 0 1-.09-2.51zm.74.1a2.34 2.34 0 0 1-.19 1.18 7.93 7.93 0 0 1-.25-1.07z" transform="translate(-.27 -2.16)"/><path class="cls-26" d="M723.72 702.66l8.41-19.22 3.36 10.33h6.49l.24 14.89-12.01-1.44-6.49-4.56z"/><path class="cls-27" d="M764.56 694.97l.72 9.37-23.06 4.32-.24-14.89 9.61 1.44 11.05-7.69 1.92 7.45z"/><path class="cls-28" d="M754.95 681.04l-22.82 2.4.25.78 3.11 9.55h6.49l9.61 1.44 10.38-7.22.67-.47-7.69-6.48z"/><path class="cls-29" d="M732.85 687c2.18 5.79 1.17 3 3.12 8.63 7.66-.11 7.64 0 15.8 1.38 6.84-4.59 3.39-2.34 10.46-6.85-2 1.49-8.1 6.18-10.18 7.51-.41.26-9.09-1.22-9.84-1.34l-6.45-.09c-.76-.07-2.76-8.55-2.91-9.24z" transform="translate(-.27 -2.16)"/><path class="cls-28" d="M752.35 697.28a50 50 0 0 1 .05 5.88 57.84 57.84 0 0 1-.91-5.88h.86z" transform="translate(-.27 -2.16)"/><path class="cls-29" d="M736.39 695.71a22.11 22.11 0 0 1-.65 4.93c-.3-.48-.16-3.64-.17-4.68zm1.39.19a4.38 4.38 0 0 1-.35 2.21 14.92 14.92 0 0 1-.48-2z" transform="translate(-.27 -2.16)"/><path class="cls-16" d="M910.51 573.45s-20.67-22-8.84-44.36 5.08-17.39 12.7-43.48 49.18-11.08 57.75 12S987 573.83 986 589.37s-18.63 50.34-31 31-44.49-46.92-44.49-46.92z" transform="translate(-.27 -2.16)"/><path class="cls-19" d="M986 589.37c-.8 12.42-12.24 37.17-23.13 36.68v-8.74l-19.17-27.6 12.1 25.12 4.41 8.66c.68 1.33.14 5.76 0 6.45-2.33 9.88-49.68-56.51-49.68-56.51s-20.67-22-8.84-44.36 5.08-17.39 12.7-43.48a22.77 22.77 0 0 1 1.07-2.92l8.93-9s-14.69 34.6-4.38 50 1.82 28.08 1.82 28.08l19.55-3.49s12.45 10.92 25.85 25.55c4.6 5 11.31 2.26 18.13-3.53a148.24 148.24 0 0 1 .64 19.09z" transform="translate(-.27 -2.16)"/><path class="cls-20" d="M972.11 497.65c3.93 10.61 7.38 27.51 9.87 44.2-5.44-9.62-9.33.2-12.13-10.68-9.84-38.23-6.17.11-16.4-35.56-5.89-20.54-9.66-11.32-18.76-19a18.14 18.14 0 0 0-7.3-4c15.4-3.99 38.61 8.39 44.72 25.04z" transform="translate(-.27 -2.16)"/><path class="cls-22" d="M942.25 742s-12.09-36.12-5.51-59.24 32.8-38 32.28-55.58 3.53-39.49 3.53-39.49h-3.47l-7.3 40.22L943 652.39l-10.39.37-17.43-16.09L902 616.55l-3 2.19 10.76 20.11L922.6 659a66.12 66.12 0 0 1-3.54 24.13c-4.38 12.07-7.38 48.63-7.38 48.63l21 2.47 5.09 6.24z" transform="translate(-.27 -2.16)"/><path class="cls-16" d="M870.71 612.16S880 640 906.9 642.61s12.92-13.29 21.44-25.08 21.15-2.68.63-42.56-25.9-46.67-36.63-39.36 3 18.59-5.3 32.41-13.27 20.67-16.33 44.14z" transform="translate(-.27 -2.16)"/><path class="cls-19" d="M875.43 590.33c2.29-6.6 5.14-11.6 8.71-17.52a209.18 209.18 0 0 0 8.47 31.34c5.61 15.19 4.61 17.3 8.88 20.06s5 6.44 9.18 3.24 7.89-5.84 8.5-7.4 0-7.18 7-8.3c3-.48 6.6-.77 9.78-1-2.26 1.62-5.11 3.28-7.6 6.73-8.52 11.79 5.43 27.71-21.44 25.08s-36.19-30.45-36.19-30.45a136.27 136.27 0 0 1 2.64-14.72c.64-2.55 1.31-4.89 2.07-7.06z" transform="translate(-.27 -2.16)"/><path class="cls-20" d="M897.3 533.23c5.71-1.29 10.71 3.6 19.41 18.78 3.43 6 7.43 13.55 12.27 23 2.43 4.73 4.4 8.76 6 12.23l.69 1.55c6.93 15.86 4.73 18.87.32 22l-1.27.08a17.58 17.58 0 0 0 .42-5.28c.18-10.28-4.43-22.79-10.62-19-1.4-1.1-2.5-3.3-3.48-5.92-.26-.7-.51-1.42-.76-2.16-2.72-8.18-4.79-18.31-10.61-12.77a1.52 1.52 0 0 1-.24.2c-1.78-1.29-9.34-28-20.26-14.86-1.15-6.14-2.67-11.33 3-15.35l.23-.16a14.86 14.86 0 0 1 4.9-2.34z" transform="translate(-.27 -2.16)"/><path class="cls-22" d="M960.65 630.48l-.7-9.13-16.1-32.92 1.13-1.01 18.84 29.25-3.17 13.81z"/><path class="cls-15" d="M843.74 734l-13.21-9c2.64-7.13 12.16-16.38 12.16-16.38l15.85 13.48 1.06 7.66-15.86 4.24zm-4.23 9a31.94 31.94 0 0 1 17.49-6.32l11.58-2.68 73.67 8-4.46-1.53-5.09-6.24-21-2.47s.2-2.47.58-6.34c-21.47-3-50.55-6.69-50.55-6.69l-24.31-18.5S811 691.76 803 692.81s-23.25 3.7-28 10.57 8.46 14.8 8.46 14.8-6.87 3.7 4.76 11.63 24.31.53 24.31.53 18.53 19.02 26.98 12.66z" transform="translate(-.27 -2.16)"/><path class="cls-24" d="M926.05 661.37c0-5.29-4.49-9.78-3.7-11.63a17.91 17.91 0 0 1 3-3.66l-5-4.61c-1.81.9-4.38 1.42-8 1.43L922.6 659a66.12 66.12 0 0 1-3.54 24.13c-3.24 8.93-5.73 31.28-6.8 42.3-.38 3.87-.58 6.34-.58 6.34l6.26.73c1.5-19.44 8.11-66.57 8.11-71.13z" transform="translate(-.27 -2.16)"/><path class="cls-37" d="M768.24 212.13h8.71v7.79h-8.71zm21.57 0h8.71v7.79h-8.71zm22.1 0h8.71v7.79h-8.71zm-43.67 26.08h8.71V246h-8.71zm21.57 0h8.71V246h-8.71zm22.1 0h8.71V246h-8.71zm-43.67 25.23h8.71v7.79h-8.71zm21.57 0h8.71v7.79h-8.71zm22.1 0h8.71v7.79h-8.71zm-43.67 24.38h8.71v7.79h-8.71zm21.57 0h8.71v7.79h-8.71zm22.1 0h8.71v7.79h-8.71zm-44.33 21.23h8.71v7.79h-8.71zm21.57 0h8.71v7.79h-8.71zm22.09 0h8.71v7.79h-8.71zm-43.66 26.08h8.71v7.79h-8.71zm21.57 0h8.71v7.79h-8.71zm22.09 0h8.71v7.79h-8.71zm-43.66 25.23h8.71v7.79h-8.71zm21.57 0h8.71v7.79h-8.71zm22.09 0h8.71v7.79h-8.71zm-43.66 24.37h8.71v7.79h-8.71zm21.57 0h8.71v7.79h-8.71zm22.09 0h8.71v7.79h-8.71z"/><path class="cls-37" transform="matrix(1 -.09 .09 1 -26.36 15.96)" d="M186.14 301.02h11.52v6.45h-11.52z"/><path class="cls-37" transform="rotate(-5.06 195.877 303.783)" d="M214.57 298.51h11.52v6.45h-11.52z"/><path class="cls-37" transform="matrix(1 -.09 .09 1 -25.68 21)" d="M243.68 295.93h11.52v6.45h-11.52z"/><path class="cls-37" transform="matrix(1 -.09 .09 1 -28.26 16.21)" d="M188.05 322.53h11.52v6.45h-11.52z"/><path class="cls-37" transform="rotate(-5.06 197.76 325.295)" d="M216.47 320.01h11.52v6.45h-11.52z"/><path class="cls-37" transform="rotate(-5.06 227.008 322.846)" d="M245.58 317.43h11.52v6.45h-11.52z"/><path class="cls-37" transform="rotate(-5.06 171.112 348.495)" d="M189.89 343.33h11.52v6.45h-11.52z"/><path class="cls-37" transform="rotate(-5.06 199.562 346.124)" d="M218.32 340.81h11.52v6.45h-11.52z"/><path class="cls-37" transform="rotate(-5.06 228.7 343.556)" d="M247.43 338.24h11.52v6.45h-11.52z"/><path class="cls-37" transform="rotate(-5.06 172.938 368.757)" d="M191.67 363.44h11.52v6.45h-11.52z"/><path class="cls-37" transform="rotate(-5.06 201.5 366.39)" d="M220.1 360.92h11.52v6.45H220.1z"/><path class="cls-37" transform="rotate(-5.06 230.536 363.592)" d="M249.21 358.34h11.52v6.45h-11.52z"/><path class="cls-9" d="M266.64 416.05l11.57-.68-.02 4.32-11.57.68.02-4.32zm28.65-1.69l11.57-.68-.02 4.32-11.57.68.02-4.32zm29.35-1.73l11.57-.69-.02 4.32-11.57.68.02-4.31zm-58.07 17.87l11.57-.68-.02 4.31-11.57.69.02-4.32zm28.66-1.69l11.57-.68-.02 4.31-11.57.69.02-4.32zm29.34-1.73l11.57-.69-.02 4.32-11.57.68.02-4.31zm-58.06 17.4l11.57-.68-.02 4.31-11.57.69.02-4.32zm28.65-1.69l11.57-.69-.02 4.32-11.57.68.02-4.31zm29.35-1.74l11.57-.68-.02 4.32-11.57.68.02-4.32zm-58.06 16.93l11.57-.68-.02 4.32-11.57.68.02-4.32zm28.65-1.69l11.57-.68-.02 4.32-11.57.68.02-4.32zm29.35-1.73l11.57-.68-.02 4.31-11.57.69.02-4.32zm26.46-42.75l11.57-.31-.02 4.31-11.57.32.02-4.32zm28.66-.77l11.57-.31-.02 4.32-11.57.31.02-4.32zm29.34-.79l11.58-.31-.03 4.32-11.57.31.02-4.32zm-58.06 16l11.57-.31-.02 4.32-11.57.31.02-4.32zm28.65-.76l11.57-.31-.02 4.31-11.57.31.02-4.31zm29.35-.79l11.57-.31-.02 4.32-11.57.31.02-4.32zm-58.06 15.53l11.57-.31-.02 4.32-11.57.31.02-4.32zm28.65-.77l11.57-.31-.02 4.32-11.57.31.02-4.32zm29.35-.78l11.57-.31-.02 4.31-11.57.31.02-4.31zm-58.07 15.06l11.57-.31-.02 4.31-11.57.31.02-4.31zm28.66-.77l11.57-.31-.02 4.31-11.57.31.02-4.31zm29.34-.79l11.57-.31-.02 4.32-11.57.31.02-4.32zm-389.24-7.31l7.53-1.03.31 2.66-7.52 1.03-.32-2.66zm38.29 16.78l7.52-1.03.31 2.65-7.52 1.03-.31-2.65zm-51.51 8.41l7.53-1.03.31 2.65-7.52 1.03-.32-2.65zm24.91-4.04l7.52-1.03.31 2.65-7.52 1.03-.31-2.65zM8.84 491.56l7.53-1.03.31 2.66-7.53 1.02-.31-2.65zm53.02 12.81l7.53-1.02.31 2.65-7.53 1.03-.31-2.66zm-51.5 8.41l7.53-1.03.31 2.66-7.53 1.02-.31-2.65zm24.9-4.04l7.53-1.03.31 2.66-7.53 1.03-.31-2.66zm-13.11-8.35l7.52-1.02.31 2.65-7.52 1.03-.31-2.66zm23.4-25.36l7.53-1.03.31 2.66-7.52 1.02-.32-2.65z"/><path class="cls-38" d="M609.29 331.2h3.43v4.68h-3.43zm8.5 0h3.43v4.68h-3.43zm-8.5 15.66h3.43v4.68h-3.43zm8.5 0h3.43v4.68h-3.43zm-8.5 15.14h3.43v4.68h-3.43zm8.5 0h3.43v4.68h-3.43zm-8.5 14.64h3.43v4.68h-3.43zm8.5 0h3.43v4.68h-3.43zm-8.76 12.74h3.43v4.68h-3.43zm8.5 0h3.43v4.68h-3.43zm-8.5 15.65h3.43v4.68h-3.43zm8.5 0h3.43v4.68h-3.43zm-8.5 15.15h3.43v4.68h-3.43zm8.5 0h3.43v4.68h-3.43zm-8.5 14.63h3.43v4.68h-3.43zm8.5 0h3.43v4.68h-3.43zm52.89-36.7h3.43v4h-3.43zm8.5 1h3.43v4h-3.43zm-8.5 12.39h3.43v4h-3.43zm8.5 0h3.43v4h-3.43zm-8.5 12.96h3.43v4h-3.43zm8.5 0h3.43v4h-3.43zm-8.5 12.51h3.43v4h-3.43zm8.5 0h3.43v4h-3.43zm-8.76 10.91h3.43v4h-3.43zm8.5 0h3.44v4h-3.44zm-8.5 13.39h3.43v4h-3.43zm8.5 0h3.44v4h-3.44zm-8.5 12.95h3.43v4h-3.43zm8.5 0h3.44v4h-3.44zm-8.5 12.52h3.43v4h-3.43zm8.5 0h3.44v4h-3.44z"/><path class="cls-37" d="M453.26 249.18h6.56v11.87h-6.56zm16.24 0h6.56v11.87h-6.56zm16.63 0h6.56v11.87h-6.56zm-32.87 39.73h6.56v11.87h-6.56zm16.24 0h6.56v11.87h-6.56zm16.63 0h6.56v11.87h-6.56zm-32.87 38.43h6.56v11.87h-6.56zm16.24 0h6.56v11.87h-6.56zm16.63 0h6.56v11.87h-6.56zm-32.87 37.14h6.56v11.87h-6.56zm16.24 0h6.56v11.87h-6.56zm16.63 0h6.56v11.87h-6.56z"/><path class="cls-39" d="M204.37 193.27S190.8 191 184.69 193l-6.12 1.9-14.48-1.47-19.85-1.77s5.49-5.33 9.48-4.3 10.18.74 12.73 2.33a27.86 27.86 0 0 0 7 2.57l8.15-3.83 8.18.29z" transform="translate(-.27 -2.16)"/><path class="cls-4" d="M204.37 193.27c-11-5.85-23-9.42-32.49-1.89-6.1-3.44-6.2-5.08-17-4.89-5.69.1-9.94 1.48-10.65 5.12l1.1-.87c4.8-3.88 9.87-2.71 17.26-1.77h-.09a48.94 48.94 0 0 1 7 4.43c3.05 2.13 3.48 1.43 6.16-.89 7.68-6.66 18.92-1.69 28.74.75zm-31-1.05l.22.12z" transform="translate(-.27 -2.16)"/><path class="cls-4" d="M179.68 196.44c-3.27-5-6.84-8-13.12-5.38-.8.33-2.81 1.63-2.42 2.71a.33.33 0 0 1 .33-.18v.56l.38.43a1.09 1.09 0 0 0 .52-.31.19.19 0 0 0 .08.1c5.23 2.63 8.04 3.17 14.23 2.07z" transform="translate(-.27 -2.16)"/><path class="cls-39" d="M662 204.35s-13.56-2.23-19.68-.32l-6.12 1.9-14.48-1.47-19.82-1.76s5.49-5.33 9.48-4.3 10.18.74 12.73 2.33a27.86 27.86 0 0 0 7 2.57l8.15-3.83 8.18.29z" transform="translate(-.27 -2.16)"/><path class="cls-4" d="M662 204.35c-11-5.85-23-9.42-32.49-1.89-6.1-3.44-6.2-5.09-17-4.89-5.69.1-9.94 1.48-10.65 5.12l1.1-.87c4.8-3.88 9.87-2.72 17.26-1.77h-.09a48.92 48.92 0 0 1 7 4.43c3.05 2.13 3.48 1.43 6.16-.89 7.68-6.66 18.91-1.69 28.74.75zm-31-1.05l.22.12z" transform="translate(-.27 -2.16)"/><path class="cls-4" d="M637.33 207.52c-3.27-5-6.83-8-13.12-5.38-.8.33-2.81 1.63-2.42 2.71a.33.33 0 0 1 .33-.18v.56l.38.43a1.08 1.08 0 0 0 .52-.31.19.19 0 0 0 .08.1c5.24 2.63 8.04 3.17 14.23 2.07z" transform="translate(-.27 -2.16)"/><path class="cls-3" d="M285.74 82.09h.44a10.65 10.65 0 0 1-.41-2.24c-.51-6.8 5.4-12.85 13.23-13.53s14.55 4.21 15.05 11v.59c11.2-10.24 31.71-8.92 33.43 6.44.36 3.21-.5-4.54 7.43-6 7.11-2 8.53 5.21 10.69 4.61 32.16-9 35.56 37.38 2.69 40.3-14.29 1.27-25.27-1.86-27.44-7-2.33.88-2.27 1.24-7.56 1.71s-15-1.83-19.33-6.22c.6 1.35.83.53 1 3.65s-7.9 10.43-17.39 11.54-17.57-7.4-19-11.87a15.3 15.3 0 0 1-5 1.49c-15.27 1.74-28.07-5.56-31.47-16.23C237.52 86 261 79.85 261.13 85.74a15.71 15.71 0 0 1 10.22-5.61c8.49-.98 12.36.18 14.39 1.96z" transform="translate(-.27 -2.16)"/><path class="cls-4" d="M243.87 104.28c-3.55-3.9-3.72-12.06.26-16.24 3.69-3.86 12.21-7.24 17.37-3.62 3.73-6.4 15.74-7.56 22.26-5.7-.6-15 22.53-21.28 31.36-4.89 10.13-5.63 23.51-8.21 30.9 2.91l1.83 3.36c3.77-4.4 9.58-5.66 15.16-1.91a8.9 8.9 0 0 1 2.62 2.62c13.07-2.77 24.66 1.93 26.61 16.63.72 5.4-.74 14.74-6.39 17.47A20 20 0 0 0 390.3 98c-2.39-13-11.75-16.67-23.85-13.93-3.63.82-2.61-.57-4.51-2.24-4.38-3.83-10.1-2.28-12.55 3.17-2.06-.84-3.15-1.19-3.75-1.41-1.4-.51-.21-.36-3-4.4-6.77-9.65-18.89-4.92-27.16.07-6.14-2.72-2.6-.55-5.4-4.84-7.12-10.91-25.29-5.61-22.08 7l-3.5 1.16a.67.67 0 0 0 .14.24c-2.46-2.11-18.76-3-21.2 4.21l-2.65.28c-3.34-4.25-12.22-.79-15.25 2-4.84 4.52-2.42 9.85-1.6 14.89zm40.54-21.72z" transform="translate(-.27 -2.16)"/><path class="cls-5" d="M218 108.11l.58-.07a14.18 14.18 0 0 1-.55-3c-.67-9 7.2-17 17.59-17.93s19.36 5.61 20 14.59v.78c14.91-13.63 42.2-11.88 44.5 8.58.48 4.28-.67-6 9.89-8 9.47-2.72 11.36 6.93 14.22 6.13 42.8-12 47.33 49.74 3.58 53.63-19 1.69-33.63-2.47-36.53-9.3-3.1 1.17-3 1.65-10.06 2.28s-20-2.44-25.73-8.28c.79 1.8 1.1.7 1.34 4.86s-10.51 13.88-23.14 15.36-23.38-9.85-25.31-15.8a20.37 20.37 0 0 1-6.68 2c-20.3 2.37-37.34-7.34-41.87-21.54-6.09-19.09 25.17-27.25 25.33-19.41a20.91 20.91 0 0 1 13.6-7.46c11.36-1.33 16.51.21 19.24 2.58z" transform="translate(-.27 -2.16)"/><path class="cls-4" d="M162.25 137.65c-4.73-5.19-5-16.06.35-21.61 4.91-5.14 16.25-9.63 23.12-4.81 5-8.51 20.95-10.06 29.63-7.58-.8-19.94 30-28.32 41.74-6.5 13.48-7.5 31.29-10.92 41.12 3.87l2.43 4.47c5-5.86 12.75-7.54 20.18-2.54a11.86 11.86 0 0 1 3.48 3.49c17.4-3.69 32.82 2.56 35.42 22.13 1 7.19-1 19.61-8.51 23.25a26.67 26.67 0 0 0 5.93-22.53C354 112 341.5 107.1 325.39 110.74c-4.83 1.09-3.47-.76-6-3-5.83-5.12-13.44-3-16.69 4.24-2.75-1.12-4.19-1.58-5-1.87h-.05c-1.86-.68-.28-.48-4.05-5.86-9-12.84-25.14-6.55-36.15.09-8.18-3.62-3.46-.73-7.18-6.45-9.47-14.52-33.66-7.47-29.39 9.38l-4.66 1.55a.89.89 0 0 0 .18.32c-3.28-2.81-25-3.94-28.22 5.6l-3.53.37c-4.45-5.66-16.27-1.06-20.3 2.7-6.44 6-3.22 13.11-2.12 19.82zm54-28.9z" transform="translate(-.27 -2.16)"/><path class="cls-6" d="M186.79 63.26h-.34a8.33 8.33 0 0 0 .32-1.75c.4-5.26-4.22-10-10.3-10.5s-11.34 3.29-11.74 8.54v.46C156 52 140 53 138.65 65c-.28 2.51.39-3.54-5.79-4.69-5.54-1.59-6.65 4.06-8.33 3.59-25.07-7-27.72 29.14-2.1 31.41 11.14 1 19.7-1.45 21.39-5.45 1.82.69 1.77 1 5.89 1.33s11.73-1.43 15.07-4.85c-.47 1.05-.65.41-.78 2.85s6.16 8.13 13.55 9 13.7-5.77 14.82-9.26a11.93 11.93 0 0 0 3.91 1.16c11.89 1.39 21.87-4.3 24.53-12.62 3.57-11.18-14.75-16-14.84-11.37a12.25 12.25 0 0 0-8-4.37c-6.58-.73-9.6.14-11.18 1.53z" transform="translate(-.27 -2.16)"/><path class="cls-4" d="M219.43 80.57c2.77-3 2.9-9.4-.2-12.66-2.87-3-9.52-5.64-13.54-2.82-2.9-5-12.27-5.89-17.35-4.44.47-11.68-17.57-16.59-24.45-3.81-7.9-4.39-18.32-6.4-24.09 2.26l-1.42 2.62c-2.94-3.43-7.47-4.41-11.82-1.49a7 7 0 0 0-2 2c-10.19-2.16-19.22 1.5-20.75 13-.56 4.21.58 11.49 5 13.62a15.63 15.63 0 0 1-3.47-13.2c1.86-10.13 9.16-13 18.59-10.86 2.83.64 2-.45 3.52-1.75 3.41-3 7.87-1.77 9.78 2.49 1.61-.66 2.45-.92 2.93-1.1 1.09-.4.16-.28 2.37-3.43 5.28-7.52 14.73-3.84 21.18.05 4.79-2.12 2-.43 4.21-3.78 5.55-8.51 19.71-4.37 17.22 5.49l2.73.91a.51.51 0 0 1-.11.19c1.92-1.64 14.63-2.31 16.53 3.28l2.06.22c2.6-3.31 9.53-.62 11.89 1.58 3.77 3.52 1.88 7.68 1.24 11.61zm-31.6-16.93z" transform="translate(-.27 -2.16)"/></svg>