<?xml version="1.0" encoding="utf-8"?>
<!-- Generator: Adobe Illustrator 19.2.1, SVG Export Plug-In . SVG Version: 6.00 Build 0)  -->
<svg version="1.1" xmlns="http://www.w3.org/2000/svg" xmlns:xlink="http://www.w3.org/1999/xlink" x="0px" y="0px"
	 viewBox="0 0 519 519" style="enable-background:new 0 0 519 519;" xml:space="preserve">
<style type="text/css">
	.st0{fill:#CCFFFF;}
	.st1{opacity:0.4;clip-path:url(#SVGID_2_);fill:url(#SVGID_3_);}
	.st2{fill:#008265;}
</style>
<g id="Background">
	<g>
		<image style="overflow:visible;opacity:0.24;" width="519" height="519" xlink:href="597D6C3711936385.png" >
		</image>
		<g>
			<path class="st0" d="M59.9,6.4h400c27.6,0,50,22.4,50,50v400c0,27.6-22.4,50-50,50h-400c-27.6,0-50-22.4-50-50v-400
				C9.9,28.8,32.3,6.4,59.9,6.4z"/>
		</g>
	</g>
</g>
<g id="Shadow">
	<g>
		<defs>
			<path id="SVGID_1_" d="M59.9,6.4h400c27.6,0,50,22.4,50,50v400c0,27.6-22.4,50-50,50h-400c-27.6,0-50-22.4-50-50v-400
				C9.9,28.8,32.3,6.4,59.9,6.4z"/>
		</defs>
		<clipPath id="SVGID_2_">
			<use xlink:href="#SVGID_1_"  style="overflow:visible;"/>
		</clipPath>
		<linearGradient id="SVGID_3_" gradientUnits="userSpaceOnUse" x1="135.8552" y1="160.2101" x2="667.123" y2="691.4778">
			<stop  offset="0" style="stop-color:#000000"/>
			<stop  offset="1" style="stop-color:#FFFFFF;stop-opacity:0"/>
		</linearGradient>
		<path class="st1" d="M647.5,594.8c18,0,39.8,1.2,44.6-21.3c2.7-12.4,3.5-35.9-2.6-47.2c-2.4-4.4-7.2-6.9-9.5-11.1
			c-2.6-4.6-1.6-12-2.2-17.6c-1.4-14.6-4.6-29.2-10.4-42.8c-8.1-19-21.7-32.9-36-47.2C593.2,369.5,555,331.2,516.7,293
			c-38-38-76-76-114-114c-23.7-23.7-46.4-52.3-78-65.2C274.2,93.4,201,97.2,159.9,136.2c-21.5,20.4-32.1,48.9-35.1,77.9
			c-0.5,4.4,0,9.4-0.9,13.8c-1.4,7.2-1.6,4.5-6.6,9.7c-5.1,5.3-6.9,11.6-7.4,18.8c-0.6,8-0.1,16.4,0,24.4
			c0.3,19.9,15.1,30.7,28.2,43.8c4.5,4.5,12.5,9.9,15.5,15.5c3,5.7,3.8,3.5-4,9.3c-6.7,5-14.3,9.6-22.4,11.7c6,2.5,5.1,7.4,11.2,9.5
			c-0.3,0.1-4.6,5.3-8,7.6c-5.2,3.6-10.9,6.5-16.9,8.5c46.3,41.7,88.3,88.1,132.4,132.2c43.4,43.4,87.3,87.5,130.7,130.9
			c6.2,6.2,12.1,12.6,18.3,18.3c23.6,22,58.2,28.9,89.8,22.8c9.1-1.8,18-4.6,26.4-8.5c2.8-1.3,7.4-5.1,10.4-5.5
			c3.7-0.6,10.3,2.5,14.1,2.9c10.6,1.1,22.7-3.8,31.8-1c7.4,2.3,14.2,6.9,21.8,9.2c33.5,10.2,73.3,5.5,100-18.5
			c-4.3-1.4-9.3-7.9-11.6-10.9c-2-2.5-7.6-9.5-10.5-10.5c4.5-0.3,9.1-1.4,13.3-3.1c-5.2-1.4-6.9-6.1-11.3-9.3
			c-1.8-1.3-4.9-6.7-7.7-8.7c-2.8-2.1-5.9-7.4-7.7-8.7c-4.8-3.4-5.8-7.4-11.3-9.3c2.2-0.5,1.9-0.9-0.8-1.2c1-2.1,2.7-6.6,4.3-9.7
			C647.2,594.9,646.2,592.5,647.5,594.8z"/>
	</g>
</g>
<g id="Icon">
	<g>
		<g id="XMLID_2_">
			<g>
				<path class="st0" d="M352.7,245.2c0.5,6.2,0.9,12.7,0.9,19.5c0,73.6-61.9,113.8-93.7,113.8c-20.2,0-52.6-16.3-73.5-47.1
					c14.9,7,31.6,9.6,46.7,10.5c3.8,6.9,13.1,11.7,24.1,11.7c14.3,0,25.8-8.2,25.8-18.3S271.5,317,257.2,317
					c-10.6,0-19.6,4.5-23.6,10.9c-21.7-1.4-46.2-6.4-61.1-24.3c-4.2-12.5-6.3-25.6-6.3-38.8c0-3.9,0.2-7.6,0.3-11.3
					c26.4-3.7,50.2-29.9,51-63.5c0-1.1,0.2-1.6,0.5-1.6c1.6,0,7.3,13.5,22.2,23.4c11.2,12.6,45,16.3,61.1,28
					c-1.7-6.4-5.2-12.3-10.2-16.7C318.8,226,340.7,234.3,352.7,245.2z M314.3,264.7C314.3,264.7,314.3,264.7,314.3,264.7
					c0-8.5-6.9-15.4-15.4-15.4c-8.5,0-15.4,6.9-15.4,15.4c0,8.5,6.9,15.4,15.4,15.4C307.4,280,314.3,273.2,314.3,264.7z
					 M236.4,264.7c0-8.5-6.9-15.4-15.4-15.4c-8.5,0-15.4,6.9-15.4,15.4s6.9,15.4,15.4,15.4c4.3,0,8.1-1.7,10.9-4.5
					C234.6,272.8,236.4,268.9,236.4,264.7z"/>
			</g>
			<g>
			</g>
		</g>
		<g id="XMLID_1_">
			<g>
				<path class="st0" d="M380,229.5h-10.2c-3.7-24.4-11.7-44.6-23.7-60c-19.1-24.6-48.1-37.1-86.1-37.1c-38,0-67,12.5-86.1,37.1
					c-12,15.5-19.9,35.6-23.7,60h-10.2c1.7-72.5,43.1-110.8,120-110.8C336.9,118.6,378.2,156.9,380,229.5z"/>
			</g>
			<g>
			</g>
		</g>
		<path class="st2" d="M236.4,264.7c0,8.5-6.9,15.4-15.4,15.4s-15.4-6.9-15.4-15.4c0-8.5,6.9-15.4,15.4-15.4
			S236.4,256.2,236.4,264.7L236.4,264.7z M298.9,249.3c-8.5,0-15.4,6.9-15.4,15.4c0,8.5,6.9,15.4,15.4,15.4
			c8.5,0,15.4-6.9,15.4-15.4c0,0,0,0,0,0C314.3,256.2,307.4,249.3,298.9,249.3C298.9,249.3,298.9,249.3,298.9,249.3L298.9,249.3z
			 M364.7,312v-1.8c-1.8,5-3.8,10-6.2,14.7c0.6,3.9,1.4,7.8,2.5,11.6c6.3,9.8,24.2,22.3,36.4,25.5c-7,2.9-14.8,3.9-22.3,2.8
			c8,10.2,18.9,17.7,31.1,21.8c-32.9,29.7-87.2,30.4-125.2,7.3c-13.8,4.4-28.7,4.4-42.5,0c-37.9,23.1-92.2,22.4-125.2-7.3
			c12.5-4.2,23.5-12,31.6-22.4c-6.1,0.3-12.2-0.8-17.9-3.2c9-2.4,21-9.7,29.2-17.3c2.3-6.1,4-12.4,4.9-18.8
			c-2.3-4.8-4.4-9.7-6.2-14.7v1.8h-18.6c-14.7,0-26.6-11.9-26.6-26.6v-29.3c0-9.8,5.4-18.8,14-23.4c0.3-41.6,12.4-74,36.1-96.5
			c23.5-22.3,57.1-33.5,100-33.5s76.6,11.3,100,33.6c23.7,22.4,35.8,54.9,36.1,96.5c8.6,4.7,13.9,13.6,14,23.4v29.3
			c0,14.7-11.9,26.6-26.6,26.6L364.7,312L364.7,312z M353.6,264.7c0-6.8-0.4-13.3-0.9-19.5c-12-11-34-19.2-61.7-22.2
			c5,4.4,8.5,10.2,10.2,16.7c-16.1-11.8-49.9-15.4-61.1-28l0,0c-17.8-11.8-22.5-28.7-22.7-21.7c-0.7,33.6-24.5,59.8-51,63.5
			c-0.2,3.7-0.3,7.4-0.3,11.3c0,13.2,2.1,26.3,6.3,38.8c14.8,17.9,39.4,23,61.1,24.3c4-6.4,13.1-10.9,23.6-10.9
			c14.3,0,25.8,8.2,25.8,18.3c0,10.1-11.6,18.3-25.8,18.3c-11,0-20.3-4.9-24.1-11.7c-15.2-0.9-31.8-3.5-46.7-10.5
			c20.9,30.8,53.3,47.1,73.5,47.1C291.7,378.5,353.6,338.4,353.6,264.7L353.6,264.7z M369.7,229.4H380
			c-1.7-72.5-43.1-110.8-120-110.8s-118.3,38.3-120,110.8h10.2c3.7-24.4,11.7-44.5,23.7-60c19.1-24.6,48.1-37.1,86.1-37.1
			s67,12.5,86.1,37.1C358.1,184.9,366,205,369.7,229.4L369.7,229.4z"/>
	</g>
</g>
</svg>
