<svg id="Layer_1" xmlns="http://www.w3.org/2000/svg" xmlns:xlink="http://www.w3.org/1999/xlink" viewBox="0 0 319 327"><style>.st0{fill:#fff}.st1{fill:#ca7e00}.st2{fill:#008265}.st3{fill:#0c3e85}</style><title>call</title><g id="Layer_1_1_"><path class="st0" d="M279.8 133.5c-1.8-72.6-43.1-110.8-120-110.8S41.5 61 39.8 133.5H50c0-.2.1-.4.1-.6l-.1-1 .1 1c3.8-24.1 11.7-44 23.6-59.4 19.1-24.6 48.1-37.1 86.1-37.1s67 12.5 86.1 37.1c11.9 15.3 19.9 35.3 23.6 59.4v-.8.8c0 .2.1.4.1.6h10.2z"/><path class="st0" d="M252.5 149.2c-12-10.9-33.9-19.2-61.6-22.1 5 4.4 8.5 10.2 10.2 16.7-16.1-11.7-49.9-15.4-61.1-28-14.9-9.9-20.6-23.4-22.2-23.4-.3 0-.5.5-.5 1.6-.8 33.6-24.6 59.8-51 63.5-.1 3.7-.3 7.4-.3 11.3 0 13 2.1 26 6.2 38.4l.4.2-.4-.2c0 .1.1.3.1.4 14.9 17.9 39.4 22.9 61.1 24.3 4-6.4 13-10.9 23.6-10.9 14.3 0 25.8 8.2 25.8 18.3s-11.5 18.3-25.8 18.3c-11 0-20.3-4.8-24.1-11.7-15.1-.9-31.8-3.5-46.7-10.5.1.1.1.2.2.3l1.4.9-1.4-.9c20.9 30.6 53.2 46.8 73.3 46.8 31.8 0 93.7-40.2 93.7-113.8 0-6.8-.4-13.3-.9-19.5zm-120.8 30.4c-2.9 2.9-6.8 4.5-10.8 4.5-8.5 0-15.4-6.8-15.4-15.3s6.8-15.4 15.3-15.4 15.4 6.8 15.4 15.3c0 4.1-1.7 8-4.5 10.9zm82.4-10.9c0 8.5-6.9 15.4-15.4 15.4s-15.4-6.9-15.4-15.4 6.9-15.4 15.4-15.4 15.4 6.9 15.4 15.4z"/><image width="320" height="328" xlink:href="60F3051C322FA6E6.png" transform="translate(0 -.286) scale(.9969)" overflow="visible" opacity=".16"/><path class="st1" d="M295.7 136.8c-.3-41.6-12.4-74.1-36.1-96.5-23.4-22.3-57.1-33.6-100-33.6s-76.5 11.2-100 33.5c-23.7 22.5-35.8 54.9-36.1 96.5-8.6 4.6-14 13.6-14 23.4v29.3c0 14.7 11.9 26.6 26.6 26.6h18.6v-1.3l-4.2-2.7 4.2 2.7v-.5c0 .1.1.2.1.3l-.9-16.3-1.5-.7 1.5.7-3.8-65.4c0 .2-.1.4-.1.6H39.8c1.7-72.5 43.1-110.8 120-110.8s118.3 38.3 120 110.8h-10.3v-.1l-5.2 81.5c.1-.2.1-.4.2-.6v1.8l18.6.1c14.7 0 26.6-11.9 26.6-26.6v-29.3c-.1-9.8-5.4-18.7-14-23.4z"/><path class="st2" d="M274.9 268.8c7.5 1.1 15.3.1 22.3-2.8-12.2-3.2-30.1-15.7-36.4-25.5-1.1-3.8-1.9-7.7-2.5-11.6 2.3-4.6 4.3-9.3 6-14.1l5.2-81.5c-3.7-24.3-11.6-44.4-23.6-59.9-19.1-24.6-48.1-37.1-86.1-37.1s-67 12.5-86.1 37.1c-11.9 15.4-19.9 35.3-23.6 59.4l3.8 65.4 18.2 8.9c-4.1-12.4-6.2-25.3-6.2-38.3 0-3.9.1-7.6.3-11.3 26.5-3.7 50.3-29.9 51-63.5.2-7 4.9 9.9 22.7 21.7 11.2 12.6 45 16.2 61.1 28-1.7-6.5-5.2-12.3-10.2-16.7 27.7 3 49.7 11.2 61.7 22.2.5 6.2.9 12.7.9 19.5 0 73.7-61.9 113.8-93.8 113.8-20.2 0-52.5-16.2-73.4-46.9l-31.3-20.7c1.8 4.7 3.7 9.4 5.9 14-.9 6.4-2.6 12.7-4.9 18.8-8.1 7.6-20.1 14.9-29.1 17.3 5.7 2.4 11.8 3.5 17.9 3.2-8.1 10.4-19.1 18.2-31.6 22.4 33 29.7 87.3 30.4 125.2 7.3 13.8 4.4 28.7 4.4 42.5 0 38 23.1 92.3 22.4 125.2-7.3-12.3-4.1-23.1-11.7-31.1-21.8z"/><path class="st3" d="M86.1 235.4c14.9 7 31.5 9.6 46.7 10.5 3.8 6.8 13.1 11.7 24.1 11.7 14.2 0 25.8-8.2 25.8-18.3S171.2 221 156.9 221c-10.5 0-19.6 4.5-23.6 10.9-21.7-1.3-46.3-6.4-61.1-24.3-.1-.2-.1-.3-.1-.5l-18.2-8.9.9 16.3c.1.1.1.3.2.4l31.3 20.7c-.1-.1-.2-.1-.2-.2z"/><circle class="st2" cx="120.8" cy="168.7" r="15.4"/><circle class="st2" cx="198.7" cy="168.7" r="15.4"/></g></svg>