<?xml version="1.0" encoding="UTF-8" standalone="no"?>
<!-- Generator: Adobe Illustrator 16.0.0, SVG Export Plug-In . SVG Version: 6.00 Build 0)  -->

<svg
   xmlns:dc="http://purl.org/dc/elements/1.1/"
   xmlns:cc="http://creativecommons.org/ns#"
   xmlns:rdf="http://www.w3.org/1999/02/22-rdf-syntax-ns#"
   xmlns:svg="http://www.w3.org/2000/svg"
   xmlns="http://www.w3.org/2000/svg"
   xmlns:xlink="http://www.w3.org/1999/xlink"
   xmlns:sodipodi="http://sodipodi.sourceforge.net/DTD/sodipodi-0.dtd"
   xmlns:inkscape="http://www.inkscape.org/namespaces/inkscape"
   enable-background="new"
   sodipodi:docname="hammer.svg"
   inkscape:version="0.91 r13725"
   xml:space="preserve"
   style="enable-background:new 0 0 79.542 79.542;"
   viewBox="0 0 79.542 79.542"
   height="79.542px"
   width="79.542px"
   y="0px"
   x="0px"
   id="Capa_1"
   version="1.1"><sodipodi:namedview
     showguides="false"
     inkscape:current-layer="layer1"
     inkscape:window-maximized="1"
     inkscape:window-y="1"
     inkscape:window-x="0"
     inkscape:cy="25.2811"
     inkscape:cx="65.089459"
     inkscape:zoom="2.8847169"
     showgrid="false"
     id="namedview118"
     inkscape:window-height="851"
     inkscape:window-width="1440"
     inkscape:pageshadow="2"
     inkscape:pageopacity="0"
     guidetolerance="10"
     gridtolerance="10"
     objecttolerance="10"
     borderopacity="1"
     bordercolor="#666666"
     pagecolor="#ffffff" /><metadata
     id="metadata122"><rdf:RDF><cc:Work
         rdf:about=""><dc:format>image/svg+xml</dc:format><dc:type
           rdf:resource="http://purl.org/dc/dcmitype/StillImage" /></cc:Work></rdf:RDF></metadata><defs
     id="defs120"><linearGradient
       inkscape:collect="always"
       id="linearGradient19620"><stop
         style="stop-color:#00352e;stop-opacity:1;"
         offset="0"
         id="stop19622" /><stop
         style="stop-color:#00352e;stop-opacity:0;"
         offset="1"
         id="stop19624" /></linearGradient><linearGradient
       inkscape:collect="always"
       id="linearGradient5444"><stop
         style="stop-color:#009984;stop-opacity:1;"
         offset="0"
         id="stop5446" /><stop
         style="stop-color:#00c3a8;stop-opacity:1"
         offset="1"
         id="stop5448" /></linearGradient><linearGradient
       inkscape:collect="always"
       xlink:href="#linearGradient5444"
       id="linearGradient5450"
       x1="83.525063"
       y1="76.78495"
       x2="-4.3910542"
       y2="0.53611696"
       gradientUnits="userSpaceOnUse" /><linearGradient
       inkscape:collect="always"
       xlink:href="#linearGradient19620"
       id="linearGradient19626"
       x1="3.813199"
       y1="6.3979073"
       x2="76.263977"
       y2="79.542"
       gradientUnits="userSpaceOnUse" /><clipPath
       clipPathUnits="userSpaceOnUse"
       id="clipPath19649"><rect
         y="-3.308418"
         x="-6.5864353"
         height="87.010269"
         width="94.636673"
         id="rect19651"
         style="display:inline;opacity:1;fill:url(#linearGradient19653);fill-opacity:1;stroke:none;stroke-width:2;stroke-miterlimit:4;stroke-dasharray:none;stroke-opacity:1" /></clipPath><linearGradient
       inkscape:collect="always"
       xlink:href="#linearGradient5444"
       id="linearGradient19653"
       gradientUnits="userSpaceOnUse"
       x1="83.525063"
       y1="76.78495"
       x2="-4.3910542"
       y2="0.53611696" /><clipPath
       clipPathUnits="userSpaceOnUse"
       id="clipPath19655"><rect
         y="-3.308418"
         x="-6.5864353"
         height="87.010269"
         width="94.636673"
         id="rect19657"
         style="display:inline;opacity:1;fill:url(#linearGradient19659);fill-opacity:1;stroke:none;stroke-width:2;stroke-miterlimit:4;stroke-dasharray:none;stroke-opacity:1" /></clipPath><linearGradient
       inkscape:collect="always"
       xlink:href="#linearGradient5444"
       id="linearGradient19659"
       gradientUnits="userSpaceOnUse"
       x1="83.525063"
       y1="76.78495"
       x2="-4.3910542"
       y2="0.53611696" /><clipPath
       clipPathUnits="userSpaceOnUse"
       id="clipPath19661"><rect
         y="-3.308418"
         x="-6.5864353"
         height="87.010269"
         width="94.636673"
         id="rect19663"
         style="display:inline;opacity:1;fill:url(#linearGradient19665);fill-opacity:1;stroke:none;stroke-width:2;stroke-miterlimit:4;stroke-dasharray:none;stroke-opacity:1" /></clipPath><linearGradient
       inkscape:collect="always"
       xlink:href="#linearGradient5444"
       id="linearGradient19665"
       gradientUnits="userSpaceOnUse"
       x1="83.525063"
       y1="76.78495"
       x2="-4.3910542"
       y2="0.53611696" /></defs><g
     id="g88" /><g
     id="g90" /><g
     id="g92" /><g
     id="g94" /><g
     id="g96" /><g
     id="g98" /><g
     id="g100" /><g
     id="g102" /><g
     id="g104" /><g
     id="g106" /><g
     id="g108" /><g
     id="g110" /><g
     id="g112" /><g
     id="g114" /><g
     id="g116" /><g
     inkscape:groupmode="layer"
     id="layer2"
     inkscape:label="background"
     style="display:none;opacity:1"><rect
       style="opacity:1;fill:url(#linearGradient5450);fill-opacity:1;stroke:none;stroke-width:2;stroke-miterlimit:4;stroke-dasharray:none;stroke-opacity:1"
       id="rect5429"
       width="94.636673"
       height="87.010269"
       x="-6.5864353"
       y="-3.308418" /></g><g
     inkscape:groupmode="layer"
     id="layer1"
     inkscape:label="Hammer"
     style="display:inline;opacity:1"><path
       inkscape:connector-curvature="0"
       id="path86"
       d="m 60.263,48.543 15.887,-15.967 2.507,2.48 0,0 c 1.181,1.183 1.181,3.083 0,4.254 L 66.954,50.96 c -1.165,1.171 -3.086,1.171 -4.267,0 l 0,0 -2.424,-2.417 z M 0,67.185 c 1.113,4.105 4.661,7.42 8.547,8.569 L 39.515,45.064 30.95,36.494 0,67.185 Z M 58.431,42.894 c 0.124,0.274 0.248,0.539 0.341,0.812 0.083,0.223 0.146,0.436 0.202,0.617 0.109,0.414 0.213,0.808 0.233,1.201 4.567,-4.536 9.134,-9.067 13.701,-13.585 0,0 -8.679,-0.484 -11.351,-11.363 C 60.754,19.765 59.926,18.958 59.123,18.137 47.908,6.926 36.074,2.939 24.959,3.936 24.348,3.985 23.123,4.164 22.01,4.324 c -1.973,0.303 -2.151,3.182 -0.005,3.208 1.007,0.01 2.053,0.021 2.534,0.08 2.038,0.274 4.008,0.481 5.955,1.209 8.298,3.169 13.665,12.174 6.587,19.188 -1.9,1.867 -5.676,5.605 -5.676,5.605 L 42.808,44.81 c 0,0 0.813,-0.979 1.32,-1.414 2.278,-1.874 6.954,-4.95 11.692,-3.086 0.74,0.285 1.315,0.762 1.781,1.289 0.218,0.275 0.445,0.564 0.632,0.891 0.073,0.14 0.124,0.269 0.198,0.404 z"
       style="fill:#00352e;fill-opacity:1"
       clip-path="url(#clipPath19661)" /><path
       style="fill:#00352e;fill-opacity:1"
       d="m 140.263,108.543 15.887,-15.967 2.507,2.48 0,0 c 1.181,1.183 1.181,3.083 0,4.254 l -11.703,11.65 c -1.165,1.171 -3.086,1.171 -4.267,0 l 0,0 -2.424,-2.417 z M 80,127.185 c 1.113,4.105 4.661,7.42 8.547,8.569 l 30.968,-30.69 -8.565,-8.57 L 80,127.185 Z m 58.431,-24.291 c 0.124,0.274 0.248,0.539 0.341,0.812 0.083,0.223 0.146,0.436 0.202,0.617 0.109,0.414 0.213,0.808 0.233,1.201 4.567,-4.536 9.134,-9.067 13.701,-13.585 0,0 -8.679,-0.484 -11.351,-11.363 -0.803,-0.811 -1.631,-1.618 -2.434,-2.439 -11.215,-11.211 -23.049,-15.198 -34.164,-14.201 -0.611,0.049 -1.836,0.228 -2.949,0.388 -1.973,0.303 -2.151,3.182 -0.005,3.208 1.007,0.01 2.053,0.021 2.534,0.08 2.038,0.274 4.008,0.481 5.955,1.209 8.298,3.169 13.665,12.174 6.587,19.188 -1.9,1.867 -5.676,5.605 -5.676,5.605 l 11.403,11.196 c 0,0 0.813,-0.979 1.32,-1.414 2.278,-1.874 6.954,-4.95 11.692,-3.086 0.74,0.285 1.315,0.762 1.781,1.289 0.218,0.275 0.445,0.564 0.632,0.891 0.073,0.14 0.124,0.269 0.198,0.404 z"
       id="path18077"
       inkscape:connector-curvature="0"
       clip-path="url(#clipPath19655)" /><path
       style="opacity:0.247;fill:url(#linearGradient19626);fill-opacity:1"
       d="m 29.753906,4.3964844 c -1.40923,-0.0355 -2.809843,0.010141 -4.199218,0.1347656 -0.611001,0.049 -1.836219,0.2286719 -2.949219,0.3886719 -1.681762,0.2582736 -2.053055,2.3822108 -0.798828,3.0214843 0.121558,0.2458138 0.319005,0.4524608 0.591797,0.5917968 0.121494,0.244524 0.316464,0.450945 0.58789,0.589844 0.121252,0.242208 0.315186,0.447737 0.583984,0.585937 0.120942,0.240804 0.315066,0.44414 0.582032,0.582032 0.120776,0.239344 0.312814,0.442634 0.578125,0.580078 0.120693,0.238404 0.313841,0.439037 0.578125,0.576172 0.120162,0.236145 0.308985,0.435638 0.570312,0.572265 0.119687,0.235308 0.308543,0.435624 0.56836,0.572266 0.119632,0.233688 0.310148,0.43039 0.568359,0.566406 0.119046,0.232205 0.306561,0.42862 0.5625,0.564453 0.118842,0.231062 0.305978,0.426998 0.560547,0.5625 0.118674,0.229913 0.305341,0.423455 0.558594,0.558594 0.118308,0.22822 0.30354,0.42196 0.554687,0.556641 0.11784,0.226513 0.301896,0.416501 0.550781,0.550781 0.117472,0.225806 0.301137,0.414594 0.548828,0.548828 0.117387,0.224673 0.300336,0.415032 0.546876,0.548828 0.116918,0.22284 0.298776,0.409655 0.542968,0.542969 0.116634,0.221425 0.296559,0.408137 0.539063,0.541015 0.116153,0.219817 0.296747,0.404626 0.537109,0.53711 0.115969,0.219467 0.295378,0.402704 0.535156,0.535156 0.115371,0.217202 0.292394,0.399429 0.529297,0.53125 0.115448,0.216793 0.292638,0.399673 0.529297,0.53125 0.114771,0.213861 0.29032,0.392777 0.523438,0.523438 0.114637,0.213663 0.290687,0.394733 0.523437,0.52539 0.114258,0.211316 0.289349,0.389743 0.519531,0.519532 0.11377,0.210365 0.28697,0.385968 0.515625,0.515624 0.113624,0.209185 0.286229,0.386447 0.513672,0.515626 0.113264,0.207826 0.283993,0.382968 0.509766,0.511718 0.112873,0.206464 0.28375,0.37948 0.507812,0.507813 0.112473,0.2048 0.281809,0.376143 0.503907,0.503906 0.111975,0.203894 0.279377,0.376275 0.5,0.503906 0.111809,0.202329 0.2809,0.371104 0.5,0.498047 0.111164,0.200877 0.277162,0.369479 0.49414,0.496094 0.0077,0.01383 0.01526,0.02745 0.02344,0.04102 -0.512435,0.912273 -1.19613,1.809503 -2.070313,2.675781 C 35.775781,30.472469 32,34.208984 32,34.208984 l 0.599609,0.587891 c -8e-6,8e-6 -0.0059,0.0059 -0.0059,0.0059 l 0.595703,0.583985 c -8e-6,8e-6 -0.0059,0.0059 -0.0059,0.0059 l 0.591797,0.580078 c -9e-6,8e-6 -0.0059,0.0059 -0.0059,0.0059 l 0.589844,0.578125 c -8e-6,8e-6 -0.0059,0.0059 -0.0059,0.0059 l 0.585937,0.574219 c -8e-6,8e-6 -0.0059,0.0059 -0.0059,0.0059 l 0.583984,0.572266 c -8e-6,8e-6 -0.0059,0.0059 -0.0059,0.0059 l 0.580078,0.568359 c -8e-6,9e-6 -0.0059,0.0059 -0.0059,0.0059 l 0.578124,0.566406 c -8e-6,8e-6 -0.0059,0.0059 -0.0059,0.0059 l 0.574219,0.5625 c -8e-6,8e-6 -0.0059,0.0059 -0.0059,0.0059 l 0.572266,0.560547 c -8e-6,8e-6 -0.0059,0.0059 -0.0059,0.0059 l 0.568359,0.556641 c -8e-6,8e-6 -0.0059,0.0059 -0.0059,0.0059 l 0.566406,0.554688 c -8e-6,8e-6 -0.0059,0.0059 -0.0059,0.0059 l 0.5625,0.550781 c -9e-6,8e-6 -0.0059,0.0059 -0.0059,0.0059 l 0.558594,0.546875 c -8e-6,8e-6 -0.0059,0.0059 -0.0059,0.0059 l 0.55664,0.544922 c -8e-6,8e-6 -0.0059,0.0059 -0.0059,0.0059 l 0.554687,0.542969 c -8e-6,8e-6 -0.0059,0.0059 -0.0059,0.0059 l 0.550781,0.539063 c -8e-6,8e-6 -0.0059,0.0059 -0.0059,0.0059 l 0.548828,0.53711 c -8e-6,8e-6 -0.0059,0.0059 -0.0059,0.0059 l 0.544921,0.533203 c -8e-6,8e-6 -0.0059,0.0059 -0.0059,0.0059 l 0.541016,0.53125 c -6e-6,5e-6 -0.0059,0.0039 -0.0059,0.0039 l 0.539063,0.529297 c -6e-6,5e-6 -0.0059,0.0039 -0.0059,0.0039 l 0.53711,0.527344 c -6e-6,5e-6 -0.0059,0.0039 -0.0059,0.0039 l 0.53125,0.523437 c -3e-6,4e-6 -0.0039,0.0039 -0.0039,0.0039 l 0.527344,0.519531 c -4e-6,3e-6 -0.0039,0.0039 -0.0039,0.0039 l 0.52539,0.517578 c -3e-6,4e-6 -0.0039,0.0039 -0.0039,0.0039 l 0.521484,0.513672 c -3e-6,4e-6 -0.0039,0.0039 -0.0039,0.0039 l 0.519532,0.511718 c -4e-6,4e-6 -0.0039,0.0039 -0.0039,0.0039 l 0.515625,0.507812 c -3e-6,4e-6 -0.0039,0.0039 -0.0039,0.0039 l 0.513672,0.50586 c -4e-6,3e-6 -0.0039,0.0039 -0.0039,0.0039 l 0.509765,0.501953 c -3e-6,4e-6 -0.0039,0.0039 -0.0039,0.0039 l 0.507813,0.5 c -4e-6,4e-6 -0.0039,0.0039 -0.0039,0.0039 l 0.503907,0.496093 c -4e-6,4e-6 -0.0039,0.0039 -0.0039,0.0039 l 0.501953,0.49414 c -3e-6,4e-6 -0.0039,0.0039 -0.0039,0.0039 l 0.498047,0.490235 c -4e-6,3e-6 -0.0039,0.0039 -0.0039,0.0039 l 0.496093,0.488281 c -3e-6,4e-6 -0.0039,0.0039 -0.0039,0.0039 l 0.492188,0.484375 c -4e-6,3e-6 -0.0039,0.0039 -0.0039,0.0039 l 0.490234,0.482422 c -4e-6,3e-6 -0.0039,0.0039 -0.0039,0.0039 l 0.486328,0.478516 c -4e-6,3e-6 -0.0039,0.0039 -0.0039,0.0039 l 0.484374,0.476562 c -3e-6,4e-6 -0.0039,0.0039 -0.0039,0.0039 l 0.480469,0.472656 c -4e-6,3e-6 -0.0039,0.0039 -0.0039,0.0039 l 0.476562,0.46875 c -3e-6,4e-6 -0.0039,0.0039 -0.0039,0.0039 l 0.474609,0.466797 c -3e-6,4e-6 -0.0039,0.0039 -0.0039,0.0039 l 0.472656,0.464844 c -3e-6,4e-6 -0.0039,0.0039 -0.0039,0.0039 l 0.46875,0.460938 c -3e-6,4e-6 -0.0039,0.0039 -0.0039,0.0039 l 0.464844,0.457032 c -4e-6,3e-6 -0.0039,0.0039 -0.0039,0.0039 l 0.462891,0.455078 c -4e-6,3e-6 -0.0039,0.0039 -0.0039,0.0039 l 0.460937,0.453125 c -3e-6,4e-6 -0.0039,0.0039 -0.0039,0.0039 l 0.457031,0.449219 c -3e-6,4e-6 -0.0039,0.0039 -0.0039,0.0039 l 0.453125,0.445313 c -4e-6,3e-6 -0.0039,0.0039 -0.0039,0.0039 l 0.451172,0.443359 c -4e-6,4e-6 -0.0039,0.0039 -0.0039,0.0039 l 0.447266,0.439453 c -4e-6,3e-6 -0.0039,0.0039 -0.0039,0.0039 l 0.445312,0.4375 c -3e-6,4e-6 -0.0039,0.0039 -0.0039,0.0039 l 0.441406,0.433594 c -3e-6,4e-6 -0.0039,0.0039 -0.0039,0.0039 l 0.439453,0.431641 c -3e-6,4e-6 -0.0039,0.0039 -0.0039,0.0039 l 0.435547,0.427735 c -4e-6,3e-6 -0.0039,0.0039 -0.0039,0.0039 l 0.433593,0.425781 c -3e-6,4e-6 -0.0039,0.0039 -0.0039,0.0039 l 0.429687,0.421875 c -3e-6,4e-6 -0.0039,0.0039 -0.0039,0.0039 l 0.427735,0.419921 c -4e-6,4e-6 -0.0039,0.0039 -0.0039,0.0039 l 0.423828,0.416015 c -3e-6,4e-6 -0.0039,0.0039 -0.0039,0.0039 l 0.421875,0.414062 c -3e-6,4e-6 -0.0039,0.0039 -0.0039,0.0039 l 0.417969,0.410157 c -4e-6,3e-6 -0.0039,0.0039 -0.0039,0.0039 l 0.416015,0.408203 c -3e-6,4e-6 -0.0039,0.0039 -0.0039,0.0039 l 0.412109,0.404297 c -3e-6,4e-6 -0.0039,0.0039 -0.0039,0.0039 l 0.408203,0.400391 c -3e-6,4e-6 -0.0039,0.0039 -0.0039,0.0039 l 0.40625,0.398438 c -4e-6,3e-6 -0.0039,0.0039 -0.0039,0.0039 l 0.404297,0.396484 c -4e-6,4e-6 -0.0039,0.0039 -0.0039,0.0039 l 0.400391,0.392578 c -4e-6,3e-6 -0.0039,0.0039 -0.0039,0.0039 l 0.398437,0.390625 c -3e-6,4e-6 -0.0039,0.0039 -0.0039,0.0039 L 65.923828,68.125 c -3e-6,4e-6 -0.0039,0.0039 -0.0039,0.0039 l 0.390625,0.382813 c -4e-6,3e-6 -0.0039,0.0039 -0.0039,0.0039 l 0.388671,0.380859 c -3e-6,4e-6 -0.0039,0.0039 -0.0039,0.0039 l 0.384766,0.376953 c -4e-6,3e-6 -0.0039,0.0039 -0.0039,0.0039 l 0.382812,0.375 c -3e-6,4e-6 -0.0039,0.0039 -0.0039,0.0039 l 0.380859,0.373047 c -3e-6,4e-6 -0.0039,0.0039 -0.0039,0.0039 l 0.375,0.367188 c -4e-6,3e-6 -0.0039,0.0039 -0.0039,0.0039 l 0.375,0.367188 c -4e-6,3e-6 -0.0039,0.0039 -0.0039,0.0039 l 0.371094,0.363281 c -3e-6,4e-6 -0.0039,0.0039 -0.0039,0.0039 l 0.367188,0.359375 c -4e-6,4e-6 -0.0039,0.0039 -0.0039,0.0039 l 0.365235,0.357422 c -4e-6,3e-6 -0.0039,0.0039 -0.0039,0.0039 l 0.361329,0.353515 c -4e-6,4e-6 -0.0039,0.0039 -0.0039,0.0039 l 0.359375,0.351562 c -3e-6,4e-6 -0.0039,0.0039 -0.0039,0.0039 l 0.355469,0.347657 c -4e-6,3e-6 -0.0039,0.0039 -0.0039,0.0039 l 0.353516,0.345703 c -3e-6,4e-6 -0.0039,0.0039 -0.0039,0.0039 l 0.349609,0.341797 c -3e-6,4e-6 -0.0039,0.0039 -0.0039,0.0039 l 0.345703,0.337891 c -3e-6,4e-6 -0.0039,0.0039 -0.0039,0.0039 l 0.34375,0.337891 c -4e-6,3e-6 -0.0039,0.0039 -0.0039,0.0039 l 0.339843,0.333985 c 0,0 -0.002,0.002 -0.002,0.002 l 0.337891,0.330078 c -4e-6,3e-6 -0.0039,0.0039 -0.0039,0.0039 L 73.1114,75.31243 c -3e-6,4e-6 -0.0039,0.0039 -0.0039,0.0039 l 0.332031,0.324219 c -3e-6,4e-6 -0.0039,0.0039 -0.0039,0.0039 l 0.328125,0.320313 c -4e-6,3e-6 -0.0039,0.0039 -0.0039,0.0039 l 0.326172,0.318359 c -4e-6,4e-6 -0.0039,0.0039 -0.0039,0.0039 l 0.324219,0.318359 c -2e-6,2e-6 -0.0039,0.002 -0.0039,0.002 l 0.318359,0.314453 c 0,0 -0.002,0.002 -0.002,0.002 l 0.314453,0.310547 c 0,0 -0.002,0.002 -0.002,0.002 l 0.3125,0.308594 c 0,0 -0.002,0.002 -0.002,0.002 l 0.310547,0.306641 c 0,0 -0.002,0.002 -0.002,0.002 l 0.304687,0.300781 c 0,0 -0.002,0.002 -0.002,0.002 l 0.304687,0.300782 c 0,0 -0.002,0.002 -0.002,0.002 l 0.300782,0.296875 c 0,0 -0.002,0.002 -0.002,0.002 l 0.296874,0.292969 c 0,0 -0.002,0.002 -0.002,0.002 l 0.294922,0.291015 c 0,0 -0.002,0.002 -0.002,0.002 l 0.291016,0.28711 c 0,0 -0.002,0.002 -0.002,0.002 l 0.289062,0.285156 c 0,0 -0.002,0.002 -0.002,0.002 l 0.285156,0.28125 c 0,0 -0.002,0.002 -0.002,0.002 l 0.283203,0.279296 c 0,0 -0.002,0.002 -0.002,0.002 l 0.279297,0.27539 c 0,0 -0.002,0.002 -0.002,0.002 l 0.277344,0.273438 c 0,0 -0.002,0.002 -0.002,0.002 l 0.273437,0.269531 c 0,0 -0.002,0.002 -0.002,0.002 l 0.269531,0.265625 c 0,0 -0.002,0.002 -0.002,0.002 l 0.267578,0.263672 c 0,0 -0.002,0.002 -0.002,0.002 l 0.265625,0.261719 c 0,0 -0.002,0.002 -0.002,0.002 l 0.261723,0.257813 c 0,0 -0.002,0.002 -0.002,0.002 l 0.25977,0.255859 c 0,0 -0.002,0.002 -0.002,0.002 l 0.25585,0.251953 c 0,0 -0.002,0.002 -0.002,0.002 l 0.25195,0.248046 c 0,0 -0.002,0.002 -0.002,0.002 l 0.25,0.246093 c 0,0 -0.002,0.002 -0.002,0.002 l 0.24805,0.244141 c 0,0 -0.002,0.002 -0.002,0.002 l 0.24414,0.240235 c 0,0 -0.002,0.002 -0.002,0.002 l 0.24023,0.236328 c 0,0 -0.002,0.002 -0.002,0.002 l 0.23828,0.234375 c 0,0 -0.002,0.002 -0.002,0.002 l 0.23437,0.230469 c 0,0 -0.002,0.002 -0.002,0.002 l 0.23242,0.228516 c 0,0 -0.002,0.002 -0.002,0.002 l 0.22852,0.224609 c 0,0 -0.002,0.002 -0.002,0.002 l 0.22656,0.222656 c 0,0 -0.002,0.002 -0.002,0.002 l 0.22461,0.220703 c 0,0 -0.002,0.002 -0.002,0.002 l 0.21875,0.214844 c 0,0 -0.002,0.002 -0.002,0.002 l 0.21875,0.214843 c 0,0 -0.002,0.002 -0.002,0.002 l 0.21289,0.208984 c 0,0 -0.002,0.002 -0.002,0.002 l 0.21289,0.208985 c 0,0 -0.002,0.002 -0.002,0.002 l 0.20703,0.203125 c 0,0 -0.002,0.002 -0.002,0.002 l 0.20508,0.201172 c 0,0 -0.002,0.002 -0.002,0.002 l 0.20312,0.199218 c 0,0 -0.002,0.002 -0.002,0.002 l 0.19922,0.195312 c 0,0 -0.002,0.002 -0.002,0.002 l 0.19726,0.19336 c 0,0 -0.002,0.002 -0.002,0.002 l 0.19336,0.189453 c 0,0 -0.002,0.002 -0.002,0.002 l 0.18945,0.185547 c 0,0 -0.002,0.002 -0.002,0.002 l 0.1875,0.183594 c 0,0 -0.002,0.002 -0.002,0.002 l 0.18555,0.181641 c 0,0 -0.002,0.002 -0.002,0.002 l 0.18164,0.177734 c 0,0 -0.002,0.002 -0.002,0.002 l 0.17774,0.173828 c 0,0 -0.002,0.002 -0.002,0.002 l 0.17578,0.171875 c 0,0 -0.002,0.002 -0.002,0.002 l 0.17383,0.169921 c 0,0 -0.002,0.002 -0.002,0.002 l 0.16992,0.166016 c 0,0 -0.002,0.002 -0.002,0.002 l 0.16601,0.16211 c 0,0 -0.002,0.002 -0.002,0.002 l 0.16406,0.160156 c 0,0 -0.002,0.002 -0.002,0.002 l 0.16016,0.15625 c 0,0 -0.002,0.002 -0.002,0.002 l 0.15821,0.154297 c 0,0 -0.002,0.002 -0.002,0.002 L 87.54492,89.75 c 0,0 -0.002,0.002 -0.002,0.002 l 0.15039,0.146485 c 0,0 -0.002,0.002 -0.002,0.002 l 0.15039,0.146484 c 0,0 -0.002,0.002 -0.002,0.002 l 0.14454,0.140625 c 0,0 -0.002,0.002 -0.002,0.002 l 0.14453,0.140625 c 0,0 -0.002,0.002 -0.002,0.002 l 0.13867,0.134766 c 0,0 -0.002,0.002 -0.002,0.002 l 0.13867,0.134766 c 0,0 -0.002,0.002 -0.002,0.002 l 0.13281,0.128906 c 0,0 -0.002,0.002 -0.002,0.002 l 0.13086,0.126953 c 0,0 -0.002,0.002 -0.002,0.002 l 0.12891,0.125 c 0,0 -0.002,0.002 -0.002,0.002 l 0.125,0.121093 c 0,0 -0.002,0.002 -0.002,0.002 l 0.12305,0.11914 c 0,0 -0.002,0.002 -0.002,0.002 l 0.11914,0.115235 c 0,0 -0.002,0.002 -0.002,0.002 l 0.11524,0.111328 c 0,0 -0.002,0.002 -0.002,0.002 l 0.11328,0.109375 c 0,0 -0.002,0.002 -0.002,0.002 l 0.11133,0.107422 c 0,0 -0.002,0.002 -0.002,0.002 l 0.20703,0.207031 0.0996,0.09961 0.0977,0.09766 0.0937,0.09375 0.0898,0.08984 0.0879,0.08789 0.084,0.08398 0.082,0.08203 0.0781,0.07813 0.0762,0.07617 0.0723,0.07227 0.0703,0.07031 0.0664,0.06641 0.0644,0.06445 0.0606,0.06055 0.0586,0.05859 0.0547,0.05469 0.0527,0.05273 0.0937,0.09375 0.043,0.04297 0.041,0.04102 0.0371,0.03711 0.0332,0.0332 0.0606,0.06055 0.0254,0.02539 0.041,0.04102 0.0156,0.01563 0.0254,0.02539 0.0117,0.01172 11.30859,11.101556 0.0215,0.0215 0.0195,0.0195 0.0176,0.0176 0.0137,0.0137 0.01,0.01 0.008,0.008 0.004,0.004 c 0,0 0.81331,-0.97906 1.32031,-1.41406 1.5773,-1.29757 4.30509,-3.16885 7.40625,-3.58007 l 0.81836,0.81445 0.21485,0.21289 -0.002,0.002 0.42188,0.42187 0.20703,0.20508 -0.002,0.002 0.40625,0.40234 -0.002,0.002 0.19727,0.19727 0.38867,0.38476 -0.002,0.002 0.55859,0.55468 -0.002,0.002 0.17969,0.17969 0.52343,0.51953 -0.002,0.002 0.49609,0.49219 -0.002,0.002 0.31641,0.31445 0.48633,0.48438 0.10742,0.10742 0,0.002 0.0508,0.0488 0.0918,0.0898 -0.002,0.002 0.27344,0.27344 0.26172,0.26172 0.12695,0.125 -0.002,0.002 0.69726,0.69336 -0.002,0.002 0.4043,0.40234 0.0937,0.0937 0.0918,0.0898 -0.002,0.002 0.0879,0.0879 0.16797,0.16406 -0.002,0.002 0.15625,0.15234 -0.002,0.002 0.14454,0.14063 -0.002,0.002 0.13282,0.12891 -0.002,0.002 0.1211,0.11719 -0.002,0.002 0.15625,0.1543 0.12891,0.12891 0,0.002 0.17773,0.17578 0,0.002 0.0332,0.0312 0.0156,0.0156 0,0.002 0.0234,0.0215 0.40234,0.40234 0.0586,0.0586 0.006,0.006 0.10351,0.10157 0.0312,0.0312 0.0293,0.0293 0.0586,0.0586 0.0254,0.0254 0.0449,0.0449 0.002,0.002 1.00781,1.00391 0.0449,0.0449 0.0742,0.0742 0.0293,0.0293 0.0254,0.0254 0.0527,0.0527 0.0488,0.0488 0.12891,0.1289 0.0371,0.0371 0.0352,0.0352 0.0586,0.0586 0.0254,0.0254 0.0215,0.0215 0.0195,0.0195 0.0176,0.0176 0.0234,0.0234 0.0117,0.0117 c 0.032,0.0317 0.0705,0.0521 0.10351,0.082 0.11809,0.10721 0.23735,0.2116 0.36719,0.29687 0.16721,0.10981 0.34384,0.20198 0.52539,0.27539 1.09446,0.44258 2.39602,0.22568 3.27148,-0.6543 l 11.70313,-11.65038 c 1.0347,-1.02594 1.16116,-2.61056 0.38281,-3.783206 -0.11005,-0.165805 -0.23651,-0.324156 -0.38281,-0.470703 l -0.006,-0.0039 c -0.002,-0.0024 -0.004,-0.0055 -0.006,-0.0078 l -0.0117,-0.0098 -0.0137,-0.01367 -0.008,-0.0078 c -0.002,-0.0017 -0.002,-0.0042 -0.004,-0.0059 l -0.002,-0.002 -0.002,-0.002 -0.0195,-0.01953 -0.0215,-0.02148 -0.0254,-0.02539 -0.002,-0.002 -0.002,0 -0.002,-0.002 -0.0234,-0.02344 -0.0312,-0.03125 -0.0117,-0.01172 -0.0117,-0.01172 c -0.002,-0.002 -0.004,-0.0039 -0.006,-0.0059 l -0.002,-0.002 -0.002,-0.0039 -0.0371,-0.03711 -0.01,-0.0078 -0.002,-0.002 -0.0117,-0.01172 -0.0176,-0.01758 -0.008,-0.0078 -0.0332,-0.0332 -0.002,-0.002 -0.0352,-0.03516 c -0.001,-0.0013 -0.003,-0.0026 -0.004,-0.0039 l -0.006,-0.0078 -0.0488,-0.04883 -0.0508,-0.05078 -0.002,-0.002 -0.0527,-0.05078 0,-0.002 -0.002,-0.002 -0.0586,-0.05664 -0.0137,-0.01367 -0.0352,-0.03516 -0.004,-0.0059 -0.008,-0.0078 -0.0644,-0.0625 -0.0547,-0.05469 c -0.001,-0.0013 -0.003,-0.0026 -0.004,-0.0039 l -0.008,-0.0098 -0.0703,-0.06836 -0.0606,-0.06055 c -0.001,-0.0013 -0.003,-0.0026 -0.004,-0.0039 l -0.008,-0.0098 -0.0762,-0.07422 -0.0664,-0.06641 c 0,0 -0.002,-0.002 -0.002,-0.002 l -0.01,-0.01172 -0.082,-0.08008 -0.0723,-0.07227 c 0,0 0,-0.002 0,-0.002 l -0.0117,-0.01172 -0.0879,-0.08789 -0.0859,-0.08398 -0.004,-0.0059 -0.0937,-0.09375 -0.0977,-0.0957 -0.0977,-0.0957 -0.002,-0.0039 -0.0898,-0.08789 c -0.005,-0.0047 -0.007,-0.01091 -0.0117,-0.01563 l -0.10547,-0.105469 -0.10937,-0.107421 -0.11133,-0.109376 0,-0.002 -0.0996,-0.09961 c -0.005,-0.005 -0.009,-0.01061 -0.0137,-0.01563 l -0.11719,-0.117187 -0.12109,-0.121094 -0.12305,-0.123047 -0.12695,-0.125 -0.125,-0.125 -0.004,-0.0039 -0.11719,-0.115235 c -0.005,-0.0054 -0.008,-0.0122 -0.0137,-0.01758 l -0.13672,-0.134766 -0.12305,-0.121093 c -0.005,-0.0054 -0.008,-0.0122 -0.0137,-0.01758 l -0.14257,-0.140625 -0.12891,-0.126954 c -0.005,-0.0054 -0.008,-0.0122 -0.0137,-0.01758 l -0.14844,-0.146484 -0.13477,-0.132812 c -0.005,-0.0054 -0.008,-0.0122 -0.0137,-0.01758 l -0.1543,-0.152343 -0.0254,-0.02539 -0.12304,-0.123047 -0.008,-0.0078 -0.14258,-0.140625 c -0.006,-0.0061 -0.01,-0.0135 -0.0156,-0.01953 l -0.16211,-0.160156 -0.14844,-0.146484 c 0,0 -0.002,-0.002 -0.002,-0.002 -0.005,-0.0054 -0.008,-0.0122 -0.0137,-0.01758 l -0.16797,-0.167969 -0.17187,-0.169922 -0.15625,-0.154297 c 0,0 -0.002,-0.002 -0.002,-0.002 -0.005,-0.0054 -0.008,-0.0122 -0.0137,-0.01758 l -0.17773,-0.177735 -0.17188,-0.167968 c -0.003,-0.0034 -0.004,-0.0083 -0.008,-0.01172 l -0.18359,-0.181641 -0.18555,-0.185547 -0.17188,-0.169921 c -0.006,-0.0061 -0.01,-0.01349 -0.0156,-0.01953 l -0.1836,-0.179687 c -0.003,-0.0034 -0.004,-0.0083 -0.008,-0.01172 l -0.18554,-0.183594 c -0.004,-0.0037 -0.006,-0.008 -0.01,-0.01172 L 132,88.400391 c -0.004,-0.0037 -0.006,-0.008 -0.01,-0.01172 l -0.20117,-0.199219 -0.19336,-0.191406 c -0.004,-0.0037 -0.006,-0.008 -0.01,-0.01172 l -0.1875,-0.185547 c -0.007,-0.0068 -0.0109,-0.01478 -0.0176,-0.02148 l -0.21094,-0.208985 -0.19336,-0.191406 c -0.007,-0.0068 -0.0109,-0.01478 -0.0176,-0.02148 l -0.21679,-0.214844 -0.19922,-0.197266 c -0.007,-0.0067 -0.0109,-0.01478 -0.0176,-0.02148 l -0.22266,-0.220703 -0.21484,-0.212891 c -0.004,-0.0037 -0.006,-0.008 -0.01,-0.01172 l -0.20898,-0.207032 c -0.007,-0.0067 -0.0109,-0.01479 -0.0176,-0.02148 l -0.23047,-0.228516 -0.21484,-0.21289 c -0.007,-0.0068 -0.0109,-0.01478 -0.0176,-0.02148 l -0.22461,-0.222656 c -0.004,-0.0044 -0.007,-0.0093 -0.0117,-0.01367 L 128.925,85.326191 c -0.004,-0.0044 -0.007,-0.0093 -0.0117,-0.01367 l -0.23047,-0.228516 c -0.004,-0.0044 -0.007,-0.0093 -0.0117,-0.01367 l -0.23438,-0.232421 c -0.004,-0.0044 -0.007,-0.0093 -0.0117,-0.01367 l -0.23633,-0.234375 c -0.004,-0.0044 -0.007,-0.0093 -0.0117,-0.01367 l -0.23828,-0.236328 c -0.004,-0.0044 -0.007,-0.0093 -0.0117,-0.01367 l -0.24218,-0.240234 c -0.004,-0.0044 -0.007,-0.0093 -0.0117,-0.01367 l -0.2461,-0.244141 c -0.004,-0.0044 -0.007,-0.0093 -0.0117,-0.01367 l -0.24805,-0.246094 c -0.004,-0.0044 -0.007,-0.0093 -0.0117,-0.01367 l -0.26367,-0.261719 -0.25391,-0.251953 c -0.004,-0.0044 -0.007,-0.0093 -0.0117,-0.01367 l -0.24804,-0.246094 c -0.007,-0.0074 -0.0122,-0.01607 -0.0195,-0.02344 l -0.25977,-0.255859 c -0.005,-0.0047 -0.007,-0.01091 -0.0117,-0.01563 l -0.26367,-0.259766 c -0.005,-0.0047 -0.007,-0.01091 -0.0117,-0.01562 l -0.26367,-0.261719 c -0.005,-0.005 -0.009,-0.01061 -0.0137,-0.01563 L 125.267,81.667997 c -0.005,-0.005 -0.009,-0.01061 -0.0137,-0.01563 l -0.26953,-0.265625 c -0.005,-0.0054 -0.008,-0.0122 -0.0137,-0.01758 l -0.27343,-0.271485 c -0.005,-0.005 -0.009,-0.01061 -0.0137,-0.01563 l -0.27539,-0.271484 c -0.005,-0.0054 -0.008,-0.0122 -0.0137,-0.01758 l -0.2793,-0.277344 c -0.005,-0.005 -0.009,-0.01061 -0.0137,-0.01563 l -0.28125,-0.279297 c -0.005,-0.005 -0.009,-0.01061 -0.0137,-0.01563 l -0.28516,-0.28125 c -0.005,-0.0054 -0.008,-0.0122 -0.0137,-0.01758 l -0.30273,-0.300781 -0.28125,-0.279297 c -0.008,-0.0081 -0.0135,-0.01736 -0.0215,-0.02539 l -0.29492,-0.291015 c -0.005,-0.0054 -0.008,-0.01221 -0.0137,-0.01758 l -0.31055,-0.308594 -0.29101,-0.28711 c -0.008,-0.0085 -0.0131,-0.01895 -0.0215,-0.02734 l -0.30273,-0.298829 c -0.005,-0.0054 -0.008,-0.0122 -0.0137,-0.01758 l -0.32032,-0.318359 -0.30859,-0.304687 c -0.005,-0.0054 -0.008,-0.01221 -0.0137,-0.01758 l -0.30274,-0.298828 c -0.008,-0.0085 -0.0131,-0.01895 -0.0215,-0.02734 l -0.3125,-0.310547 c -0.006,-0.0057 -0.01,-0.0119 -0.0156,-0.01758 l -0.33204,-0.330078 -0.31054,-0.308593 c -0.009,-0.0088 -0.0148,-0.01866 -0.0234,-0.02734 l -0.32031,-0.316406 c -0.006,-0.0061 -0.01,-0.01349 -0.0156,-0.01953 l -0.3418,-0.339843 -0.31835,-0.316407 c -0.009,-0.0088 -0.0148,-0.01865 -0.0234,-0.02734 l -0.33008,-0.326172 c -0.006,-0.0061 -0.01,-0.01349 -0.0156,-0.01953 l -0.33398,-0.330078 c -0.006,-0.0061 -0.01,-0.01349 -0.0156,-0.01953 l -0.33594,-0.332031 c -0.006,-0.0061 -0.01,-0.01349 -0.0156,-0.01953 l -0.33984,-0.335938 c -0.006,-0.0061 -0.01,-0.01349 -0.0156,-0.01953 l -0.34179,-0.337891 c -0.006,-0.0061 -0.01,-0.01349 -0.0156,-0.01953 l -0.3457,-0.341797 c -0.006,-0.0061 -0.01,-0.01349 -0.0156,-0.01953 l -0.3457,-0.34375 c -0.006,-0.0064 -0.0112,-0.01319 -0.0176,-0.01953 l -0.34961,-0.345703 c -0.007,-0.0068 -0.0109,-0.01478 -0.0176,-0.02148 l -0.36133,-0.357422 c -0.004,-0.0037 -0.006,-0.008 -0.01,-0.01172 l -0.34765,-0.34375 c -0.009,-0.0091 -0.0144,-0.02023 -0.0234,-0.0293 l -0.36719,-0.363282 c -0.004,-0.0037 -0.006,-0.008 -0.01,-0.01172 l -0.36132,-0.359375 c -0.006,-0.0064 -0.0113,-0.0132 -0.0176,-0.01953 l -0.35547,-0.353515 c -0.009,-0.0094 -0.0161,-0.01994 -0.0254,-0.0293 l -0.36719,-0.363281 c -0.007,-0.0068 -0.0109,-0.01478 -0.0176,-0.02148 l -0.36718,-0.363281 c -0.007,-0.0074 -0.0122,-0.01607 -0.0195,-0.02344 l -0.37305,-0.36914 c -0.007,-0.0068 -0.0109,-0.01478 -0.0176,-0.02148 l -0.37695,-0.373047 c -0.007,-0.0068 -0.0109,-0.01478 -0.0176,-0.02148 l -0.37695,-0.373047 c -0.007,-0.0074 -0.0122,-0.01607 -0.0195,-0.02344 l -0.3789,-0.375 c -0.007,-0.0074 -0.0122,-0.01607 -0.0195,-0.02344 l -0.39453,-0.388672 c -0.004,-0.0041 -0.006,-0.0096 -0.01,-0.01367 l -0.37891,-0.375 c -0.01,-0.0098 -0.0157,-0.02152 -0.0254,-0.03125 L 110.39323,66.7969 c -0.007,-0.0074 -0.0122,-0.01607 -0.0195,-0.02344 l -0.39258,-0.388672 c -0.007,-0.0074 -0.0122,-0.01608 -0.0195,-0.02344 l -0.39453,-0.390625 c -0.007,-0.0074 -0.0122,-0.01607 -0.0195,-0.02344 l -0.40625,-0.400391 c -0.005,-0.0047 -0.007,-0.01092 -0.0117,-0.01563 l -0.39258,-0.388672 c -0.0102,-0.01048 -0.017,-0.02284 -0.0273,-0.0332 l -0.41211,-0.408203 c -0.004,-0.0044 -0.007,-0.0093 -0.0117,-0.01367 l -0.39844,-0.394531 c -0.0102,-0.01048 -0.017,-0.02284 -0.0273,-0.0332 l -0.41797,-0.414063 c -0.004,-0.0044 -0.007,-0.0093 -0.0117,-0.01367 l -0.4043,-0.40039 c -0.0102,-0.01048 -0.017,-0.02284 -0.0273,-0.0332 l -0.42383,-0.417969 c -0.005,-0.0047 -0.007,-0.01092 -0.0117,-0.01563 l -0.41015,-0.40625 c -0.0102,-0.0105 -0.017,-0.02281 -0.0274,-0.0332 l -0.42773,-0.421875 c -0.005,-0.0054 -0.008,-0.0122 -0.0137,-0.01758 l -0.41602,-0.41211 c -0.0102,-0.0105 -0.017,-0.02281 -0.0273,-0.0332 l -0.42774,-0.421875 c -0.008,-0.0078 -0.0118,-0.01766 -0.0195,-0.02539 l -0.42773,-0.421875 c -0.008,-0.0085 -0.0131,-0.01895 -0.0215,-0.02734 l -0.43164,-0.427735 c -0.008,-0.0081 -0.0135,-0.01736 -0.0215,-0.02539 l -0.44336,-0.439454 c -0.005,-0.005 -0.009,-0.01061 -0.0137,-0.01562 l -0.43946,-0.433594 c -0.008,-0.0078 -0.0118,-0.01767 -0.0195,-0.02539 l -0.43359,-0.427734 c -0.0105,-0.01087 -0.0166,-0.0244 -0.0273,-0.03516 l -0.44335,-0.439453 c -0.008,-0.0081 -0.0135,-0.01736 -0.0215,-0.02539 L 101.5957,58 c -0.005,-0.0054 -0.008,-0.01221 -0.0137,-0.01758 l -0.44922,-0.445313 c -0.008,-0.0081 -0.0135,-0.01735 -0.0215,-0.02539 l -0.44336,-0.439453 c -0.0108,-0.01118 -0.0183,-0.0241 -0.0293,-0.03516 l -0.45508,-0.449218 c -0.008,-0.0085 -0.0131,-0.01895 -0.0215,-0.02734 l -0.45898,-0.453125 c -0.008,-0.0085 -0.0131,-0.01895 -0.0215,-0.02734 l -0.45898,-0.453125 c -0.009,-0.0091 -0.0144,-0.02023 -0.0234,-0.0293 l -0.4707,-0.466797 c -0.006,-0.0057 -0.01,-0.0119 -0.0156,-0.01758 L 98.2539,54.660154 c -0.0112,-0.01153 -0.0179,-0.02571 -0.0293,-0.03711 l -0.47656,-0.472656 c -0.006,-0.0057 -0.01,-0.01191 -0.0156,-0.01758 l -0.47265,-0.466796 c -0.008,-0.0085 -0.0131,-0.01894 -0.0215,-0.02734 l -0.47656,-0.470703 c -0.008,-0.0085 -0.0131,-0.01896 -0.0215,-0.02734 l -0.47851,-0.472656 c -0.008,-0.0085 -0.0131,-0.01894 -0.0215,-0.02734 L 95.7578,52.16407 c -0.008,-0.0085 -0.0131,-0.01896 -0.0215,-0.02734 l -0.47461,-0.470703 c -0.0114,-0.01183 -0.0196,-0.02542 -0.0312,-0.03711 l -0.49414,-0.488281 c -0.006,-0.0061 -0.01,-0.0135 -0.0156,-0.01953 l -0.48242,-0.476563 c -0.0112,-0.01155 -0.0179,-0.02569 -0.0293,-0.03711 L 93.7188,50.123058 c -0.01,-0.0098 -0.0157,-0.02154 -0.0254,-0.03125 l -0.49414,-0.488281 c -0.009,-0.0091 -0.0144,-0.02023 -0.0234,-0.0293 l -0.49805,-0.492188 c -0.009,-0.0091 -0.0144,-0.02023 -0.0234,-0.0293 l -0.5,-0.49414 c -0.009,-0.0091 -0.0144,-0.02023 -0.0234,-0.0293 L 91.6271,48.031252 c -0.009,-0.0091 -0.0144,-0.02023 -0.0234,-0.0293 l -0.50586,-0.5 c -0.01,-0.0098 -0.0157,-0.02154 -0.0254,-0.03125 l -0.50782,-0.501953 c -0.01,-0.0098 -0.0157,-0.02154 -0.0254,-0.03125 L 90.02946,46.43164 c -0.009,-0.0094 -0.0161,-0.01994 -0.0254,-0.0293 l -0.51368,-0.507813 c -0.01,-0.0098 -0.0157,-0.02152 -0.0254,-0.03125 l -0.51757,-0.511719 c -0.01,-0.0098 -0.0157,-0.02154 -0.0254,-0.03125 l -0.51954,-0.513671 c -0.01,-0.0098 -0.0157,-0.02152 -0.0254,-0.03125 l -0.52929,-0.523438 c -0.007,-0.0074 -0.0122,-0.01608 -0.0195,-0.02344 l -0.52735,-0.521485 c -0.009,-0.0091 -0.0144,-0.02025 -0.0234,-0.0293 l -0.52148,-0.515625 c -0.0118,-0.01223 -0.0192,-0.02698 -0.0312,-0.03906 L 86.1936,42.597648 c -0.01,-0.0098 -0.0157,-0.02152 -0.0254,-0.03125 l -0.53516,-0.529297 c -0.01,-0.0098 -0.0157,-0.02152 -0.0254,-0.03125 l -0.53711,-0.53125 c -0.01,-0.0098 -0.0157,-0.02152 -0.0254,-0.03125 l -0.54101,-0.535156 c -0.01,-0.0098 -0.0157,-0.02152 -0.0254,-0.03125 L 83.9377,40.341789 c -0.0102,-0.0105 -0.017,-0.02281 -0.0273,-0.0332 l -0.54493,-0.539063 c -0.0102,-0.01048 -0.017,-0.02283 -0.0273,-0.0332 L 82.78934,39.19531 c -0.01,-0.01019 -0.0153,-0.02311 -0.0254,-0.0332 l -0.55078,-0.544921 c -0.0102,-0.0105 -0.017,-0.02281 -0.0273,-0.0332 l -0.55078,-0.544922 c -0.0108,-0.01118 -0.0183,-0.0241 -0.0293,-0.03516 l -0.55664,-0.550781 c -0.0102,-0.0105 -0.017,-0.02281 -0.0273,-0.0332 l -0.55859,-0.552734 c -0.0102,-0.0105 -0.017,-0.02281 -0.0273,-0.0332 l -0.562503,-0.55664 c -0.01019,-0.0105 -0.01697,-0.02281 -0.02734,-0.0332 l -0.574219,-0.56836 c -0.0073,-0.0074 -0.01217,-0.01606 -0.01953,-0.02344 l -2.505859,-2.480469 -1.291016,1.296875 c -0.26031,-0.260313 -0.522466,-0.516709 -0.779297,-0.779297 -0.01094,-0.01094 -0.02226,-0.02032 -0.0332,-0.03125 -0.16089,-0.161922 -0.323109,-0.321491 -0.482422,-0.484375 -0.02023,-0.02023 -0.04031,-0.03842 -0.06055,-0.05859 -0.152706,-0.153784 -0.307718,-0.304327 -0.458984,-0.458984 -0.173407,-0.174355 -0.34792,-0.346026 -0.519531,-0.521484 -0.01127,-0.01126 -0.02193,-0.02195 -0.0332,-0.0332 -0.163837,-0.16485 -0.329979,-0.326342 -0.492188,-0.492187 -0.01161,-0.01161 -0.02354,-0.02161 -0.03516,-0.0332 -0.164165,-0.165177 -0.329656,-0.327966 -0.492188,-0.494141 -0.01161,-0.01161 -0.02354,-0.02161 -0.03516,-0.0332 -0.16482,-0.165827 -0.330966,-0.329261 -0.494141,-0.496094 -0.01161,-0.01161 -0.02354,-0.02161 -0.03516,-0.0332 -0.16613,-0.167129 -0.333584,-0.331851 -0.498047,-0.5 -0.01161,-0.01161 -0.02354,-0.02161 -0.03516,-0.0332 -0.16744,-0.16843 -0.336203,-0.334441 -0.501953,-0.503906 -0.01194,-0.01193 -0.02322,-0.02324 -0.03516,-0.03516 -0.167768,-0.168756 -0.337835,-0.334113 -0.503906,-0.503907 -0.01194,-0.01193 -0.02322,-0.02324 -0.03516,-0.03516 -0.168422,-0.169406 -0.339144,-0.335407 -0.505859,-0.505859 -0.01228,-0.01227 -0.02483,-0.0229 -0.03711,-0.03516 -0.169405,-0.170383 -0.340131,-0.338327 -0.507812,-0.509766 -0.01359,-0.01359 -0.02742,-0.02549 -0.04102,-0.03906 -0.170246,-0.169607 -0.338305,-0.339455 -0.507812,-0.509765 -0.0096,-0.0096 -0.01967,-0.01773 -0.0293,-0.02734 -0.173993,-0.174936 -0.349298,-0.347391 -0.521484,-0.523438 -0.02322,-0.02322 -0.04708,-0.04325 -0.07031,-0.06641 -0.116556,-0.115999 -0.230924,-0.233468 -0.347656,-0.349609 -0.04521,-0.04598 -0.09166,-0.09065 -0.136719,-0.136719 -0.186688,-0.185895 -0.370771,-0.371879 -0.556641,-0.558594 -0.0086,-0.0086 -0.01677,-0.01678 -0.02539,-0.02539 -0.177669,-0.178585 -0.357406,-0.353466 -0.533203,-0.533203 -0.01757,-0.01757 -0.03516,-0.03325 -0.05273,-0.05078 -0.04706,-0.04687 -0.0936,-0.09371 -0.140625,-0.140625 -0.123283,-0.124456 -0.248793,-0.246051 -0.371093,-0.371093 -0.188416,-0.189242 -0.378106,-0.375882 -0.564454,-0.566407 -0.01791,-0.0179 -0.03677,-0.03291 -0.05469,-0.05078 -0.05196,-0.05175 -0.102371,-0.104444 -0.154297,-0.15625 -0.120019,-0.121194 -0.242246,-0.239577 -0.361328,-0.361328 -0.190383,-0.191192 -0.382034,-0.379767 -0.570312,-0.572266 -0.02454,-0.02453 -0.04967,-0.04585 -0.07422,-0.07031 -0.141185,-0.140565 -0.280405,-0.283065 -0.421875,-0.423828 -0.02644,-0.02695 -0.05369,-0.0531 -0.08008,-0.08008 -0.193087,-0.192207 -0.383887,-0.38507 -0.576172,-0.578125 -0.009,-0.009 -0.01839,-0.01645 -0.02734,-0.02539 -0.185062,-0.185917 -0.371632,-0.369481 -0.554688,-0.556641 -0.01792,-0.01791 -0.03677,-0.0329 -0.05469,-0.05078 -0.176614,-0.177538 -0.354536,-0.352571 -0.529297,-0.53125 -0.19563,-0.196391 -0.392509,-0.390126 -0.585937,-0.587891 -0.0136,-0.0136 -0.02741,-0.02549 -0.04102,-0.03906 -0.184008,-0.183191 -0.365555,-0.366816 -0.548828,-0.550781 -0.01029,-0.01028 -0.02096,-0.01903 -0.03125,-0.0293 C 60.092193,19.10698 59.90381,18.92163 59.71875,18.732422 49.905625,8.922797 39.61852,4.6449844 29.753906,4.3964844 Z M 31.544922,37.089844 0.595703,67.78125 c 0.588122,2.169128 1.867341,4.103961 3.505859,5.628906 0.192496,0.203315 0.387137,0.401305 0.591797,0.591797 0.191271,0.201937 0.384614,0.398608 0.587891,0.587891 0.190341,0.200871 0.38176,0.397593 0.583984,0.585937 0.187496,0.197825 0.377142,0.390495 0.576172,0.576172 0.192469,0.203274 0.387167,0.401342 0.591797,0.591797 0.183895,0.193621 0.369493,0.382498 0.564453,0.564453 0.190654,0.201188 0.383364,0.397318 0.585938,0.585938 0.182072,0.19154 0.365686,0.378479 0.558593,0.558593 0.188498,0.198747 0.377987,0.393608 0.578125,0.580078 0.180191,0.189441 0.361939,0.374479 0.552735,0.552735 0.186959,0.196998 0.375816,0.389288 0.574219,0.574219 0.179973,0.189053 0.362195,0.372879 0.552734,0.550781 0.181138,0.190478 0.36283,0.377467 0.554688,0.556641 0.181365,0.190653 0.364535,0.377319 0.55664,0.55664 0.176481,0.185296 0.354376,0.366434 0.541016,0.541016 0.179842,0.189104 0.36037,0.374772 0.550781,0.552734 0.179355,0.188313 0.360942,0.371586 0.550781,0.548828 0.174745,0.183178 0.350476,0.362471 0.535156,0.535156 0.173398,0.181918 0.348052,0.359667 0.53125,0.53125 0.17649,0.185346 0.354362,0.366387 0.541016,0.541016 0.175672,0.184179 0.351396,0.36549 0.53711,0.539063 0.170727,0.178702 0.343241,0.352782 0.523437,0.521484 0.172308,0.180547 0.345376,0.356991 0.527344,0.527344 0.170406,0.178405 0.34164,0.353042 0.521484,0.521484 0.167862,0.175741 0.336646,0.347595 0.513672,0.513672 0.171257,0.179475 0.342633,0.355986 0.523437,0.525391 0.169822,0.177634 0.34035,0.351786 0.519532,0.519531 0.163479,0.170739 0.327857,0.338408 0.5,0.5 0.169784,0.177669 0.340385,0.351749 0.519531,0.519531 0.161791,0.168853 0.323871,0.334241 0.494141,0.494141 0.167608,0.175245 0.334995,0.348053 0.511718,0.513672 0.159894,0.166766 0.320113,0.330253 0.488282,0.488281 0.165759,0.173202 0.333144,0.342068 0.507812,0.505859 0.158218,0.1649 0.316108,0.328026 0.482422,0.484375 0.16392,0.171138 0.329328,0.338058 0.501953,0.5 0.157409,0.163921 0.315056,0.325007 0.480469,0.480469 0.15639,0.163012 0.312257,0.323856 0.476562,0.478516 0.161704,0.168752 0.323969,0.334331 0.494141,0.49414 0.154932,0.161187 0.309979,0.319657 0.472656,0.472657 0.155503,0.161915 0.311294,0.320945 0.47461,0.474609 0.154833,0.161203 0.310077,0.319633 0.472656,0.472656 0.15423,0.160508 0.308792,0.318309 0.470703,0.470703 0.152412,0.158499 0.304937,0.314263 0.464844,0.464844 0.152412,0.158499 0.304937,0.314263 0.464844,0.464844 0.151138,0.157093 0.302433,0.311626 0.460937,0.460937 0.149894,0.155735 0.299896,0.308948 0.457031,0.457031 0.149317,0.155086 0.298579,0.307583 0.455078,0.455079 0.145814,0.151379 0.290696,0.301159 0.44336,0.445309 0.151784,0.15778 0.303678,0.31297 0.46289,0.46289 0.141813,0.14689 0.283368,0.29158 0.431641,0.43164 0.147675,0.15338 0.294516,0.30523 0.449219,0.45118 0.14655,0.15191 0.293816,0.30069 0.447265,0.44531 0.139537,0.1444 0.278045,0.28799 0.423829,0.42578 0.146175,0.15159 0.292266,0.30099 0.445312,0.44531 0.137966,0.14269 0.275852,0.28369 0.419922,0.41992 0.14432,0.14955 0.288442,0.29699 0.439453,0.43946 0.135465,0.13998 0.270766,0.27834 0.412109,0.41211 0.142775,0.14788 0.286227,0.29263 0.435547,0.43359 0.133328,0.13769 0.265277,0.27458 0.404297,0.40625 0.139262,0.14418 0.278338,0.28623 0.423828,0.42383 0.137495,0.14205 0.274423,0.28232 0.417969,0.41797 0.133092,0.13731 0.265542,0.27298 0.404297,0.40429 0.133676,0.13803 0.266855,0.27428 0.40625,0.40625 0.133602,0.13794 0.266935,0.27436 0.40625,0.40625 0.129938,0.13406 0.259192,0.26619 0.394531,0.39454 0.132695,0.13703 0.26401,0.27321 0.402344,0.40429 0.132461,0.1366 0.264277,0.27168 0.402344,0.40235 0.127137,0.13086 0.254428,0.25935 0.386718,0.38476 0.126123,0.12996 0.251608,0.25823 0.382813,0.38281 0.129576,0.13365 0.257633,0.26656 0.392578,0.39454 0.128428,0.13221 0.256939,0.26202 0.390625,0.38867 0.121379,0.12474 0.241117,0.24936 0.367187,0.36914 0.128056,0.13189 0.255384,0.26232 0.388672,0.38867 0.121791,0.1251 0.242632,0.24904 0.369141,0.36914 0.12243,0.12586 0.24389,0.25029 0.371094,0.37109 0.121123,0.12447 0.241394,0.24767 0.367187,0.36719 0.12078,0.12412 0.23981,0.24799 0.365235,0.36719 0.119539,0.12276 0.239195,0.24338 0.363281,0.36133 0.116677,0.1198 0.232506,0.2383 0.353516,0.35351 0.12207,0.12547 0.242325,0.25066 0.36914,0.3711 0.114547,0.11734 0.228949,0.23277 0.347656,0.3457 0.115766,0.11871 0.229588,0.23736 0.34961,0.35156 0.114797,0.1177 0.228673,0.2344 0.347656,0.34766 0.113879,0.1167 0.227708,0.2314 0.345703,0.34375 0.113179,0.11595 0.224553,0.2321 0.341797,0.34375 0.109766,0.11239 0.218442,0.22368 0.332031,0.33203 0.113199,0.11603 0.224528,0.23203 0.341797,0.34375 0.112031,0.11461 0.22384,0.22749 0.339844,0.33789 0.106643,0.10893 0.212027,0.21715 0.322266,0.32227 0.108506,0.11096 0.21589,0.2211 0.328124,0.32812 0.107219,0.1096 0.213362,0.21848 0.324219,0.32422 0.105954,0.10826 0.210808,0.21582 0.320313,0.32031 0.10501,0.10726 0.207908,0.2148 0.316406,0.31836 0.102106,0.10427 0.203189,0.20782 0.308594,0.3086 0.105591,0.10793 0.209237,0.21611 0.318359,0.32031 0.104414,0.10653 0.208551,0.21157 0.316406,0.31445 0.09936,0.10121 0.198314,0.20092 0.300782,0.29883 0.10053,0.1025 0.199014,0.20556 0.302734,0.30469 0.09899,0.10087 0.196747,0.20123 0.298828,0.29883 0.09865,0.10052 0.195159,0.20155 0.296875,0.29882 0.09739,0.0992 0.194539,0.19696 0.294922,0.29297 0.09417,0.0959 0.186235,0.19223 0.283203,0.28516 0.100243,0.10219 0.19932,0.2039 0.302735,0.30273 0.09007,0.0915 0.178867,0.1827 0.271484,0.27149 0.09835,0.10018 0.195474,0.19993 0.296875,0.29687 0.0901,0.0915 0.178831,0.18273 0.271484,0.27149 0.09198,0.0935 0.182698,0.18668 0.277344,0.27734 0.09071,0.0922 0.180139,0.18403 0.273437,0.27344 0.08944,0.0908 0.177579,0.18137 0.269532,0.26953 0.08877,0.0901 0.176329,0.18006 0.267578,0.26758 0.08583,0.0871 0.169668,0.1751 0.257812,0.25976 0.08876,0.0902 0.176343,0.18004 0.267578,0.26758 0.08819,0.0894 0.174995,0.17878 0.265626,0.26563 0.08277,0.0838 0.165085,0.16653 0.25,0.24804 0.08143,0.0825 0.160633,0.16579 0.24414,0.2461 0.08524,0.0865 0.16834,0.17375 0.25586,0.25781 0.08468,0.0858 0.168931,0.17054 0.255859,0.2539 0.07861,0.0795 0.155789,0.15894 0.236328,0.23633 0.07757,0.0785 0.152972,0.15789 0.232422,0.23438 0.08367,0.0848 0.166089,0.16951 0.251953,0.25195 0.07313,0.0738 0.145907,0.1467 0.220703,0.21875 0.07951,0.0805 0.156795,0.16184 0.238281,0.24024 0.07895,0.0798 0.157391,0.15861 0.238282,0.23632 0.07052,0.0711 0.138861,0.14342 0.210937,0.21289 0.07858,0.0795 0.155818,0.15894 0.236328,0.23633 0.0709,0.0714 0.140429,0.14311 0.212891,0.21289 0.07213,0.0728 0.143043,0.14574 0.216797,0.2168 0.07151,0.0721 0.141734,0.1444 0.214843,0.21484 0.07022,0.0708 0.139184,0.14178 0.210938,0.21094 0.06666,0.0672 0.131174,0.13546 0.199219,0.20117 0.07313,0.0738 0.145904,0.14673 0.220703,0.21875 0.0628,0.0632 0.123477,0.1276 0.1875,0.18946 0.06827,0.0688 0.13535,0.13778 0.205078,0.20507 0.06803,0.0685 0.135604,0.13618 0.205078,0.20313 0.06192,0.0622 0.122435,0.12461 0.185547,0.18555 0.06383,0.0642 0.12631,0.12855 0.191406,0.1914 0.06251,0.0628 0.123777,0.12595 0.1875,0.1875 0.05899,0.0593 0.115714,0.11961 0.175781,0.17774 0.06281,0.0632 0.123464,0.12756 0.1875,0.18945 0.06223,0.0625 0.12407,0.12433 0.1875,0.18555 0.05613,0.0562 0.110868,0.11275 0.167969,0.16797 0.05736,0.0575 0.113495,0.1154 0.171875,0.17187 0.05608,0.0562 0.110916,0.11276 0.167969,0.16797 0.05348,0.0536 0.105791,0.10746 0.160156,0.16016 0.05703,0.0573 0.111884,0.11568 0.169922,0.17187 0.05644,0.0566 0.112493,0.11245 0.169922,0.16797 0.05032,0.0503 0.09928,0.10089 0.150391,0.15039 0.05156,0.0516 0.101914,0.10354 0.154296,0.1543 0.05058,0.0506 0.09901,0.10255 0.150391,0.15234 0.04991,0.05 0.09971,0.0993 0.150391,0.14844 0.04865,0.0487 0.09515,0.0986 0.144531,0.14648 0.04766,0.0477 0.09422,0.0957 0.142578,0.14258 0.04672,0.0467 0.09323,0.0927 0.140625,0.13867 0.04604,0.046 0.09002,0.0934 0.136719,0.13867 0.04444,0.0444 0.08777,0.0891 0.132812,0.13282 0.04377,0.0437 0.08649,0.0878 0.13086,0.13086 0.04051,0.0404 0.08008,0.0812 0.121093,0.12109 0.04411,0.0441 0.08615,0.0894 0.13086,0.13281 0.04316,0.043 0.08518,0.0865 0.128906,0.12891 0.03764,0.0375 0.0752,0.0743 0.113281,0.11133 0.03892,0.0388 0.07585,0.0789 0.115235,0.11718 0.03791,0.0378 0.07493,0.076 0.113281,0.11329 0.03661,0.0365 0.07235,0.0734 0.109375,0.10937 0.03599,0.0358 0.07103,0.072 0.107422,0.10742 0.03469,0.0345 0.06846,0.0694 0.103516,0.10352 0.03467,0.0345 0.06848,0.0694 0.103515,0.10351 0.03239,0.0322 0.06299,0.0658 0.0957,0.0977 0.03176,0.0316 0.06364,0.0625 0.0957,0.0937 0.02849,0.0283 0.05525,0.0579 0.08398,0.0859 0.03534,0.0352 0.06975,0.0707 0.105468,0.10547 0.02361,0.0234 0.04654,0.0471 0.07031,0.0703 0.03043,0.0303 0.05913,0.0618 0.08984,0.0918 0.02982,0.0296 0.05975,0.0586 0.08984,0.0879 0.02064,0.0204 0.03978,0.0422 0.06055,0.0625 0.03046,0.0303 0.06105,0.0599 0.0918,0.0898 0.01869,0.0185 0.03589,0.0383 0.05469,0.0566 0.02816,0.028 0.05558,0.0563 0.08398,0.084 0.01674,0.0166 0.03396,0.0324 0.05078,0.0488 0.02328,0.0231 0.04491,0.0474 0.06836,0.0703 0.02297,0.0227 0.04523,0.0458 0.06836,0.0684 0.01379,0.0136 0.02717,0.0275 0.04102,0.041 0.0233,0.0231 0.04684,0.0455 0.07031,0.0684 0.01414,0.0139 0.02682,0.0291 0.04102,0.043 0.0164,0.0162 0.03235,0.0327 0.04883,0.0488 0.01509,0.0149 0.02976,0.0301 0.04492,0.0449 0.01378,0.0136 0.02717,0.0275 0.04102,0.041 0.01314,0.013 0.02587,0.0262 0.03906,0.0391 0.01183,0.0117 0.02329,0.0235 0.03516,0.0351 0.01117,0.011 0.022,0.0222 0.0332,0.0332 0.01017,0.01 0.0191,0.0213 0.0293,0.0312 0.0089,0.009 0.01845,0.0167 0.02734,0.0254 0,0 0.002,0.002 0.002,0.002 0.0043,0.004 0.0094,0.0114 0.01367,0.0156 0.0099,0.01 0.01941,0.0196 0.0293,0.0293 0.0079,0.008 0.01746,0.0176 0.02539,0.0254 0,0 0.002,0.002 0.002,0.002 0.0079,0.008 0.01551,0.0157 0.02344,0.0234 0.0013,0.001 0.0026,0.003 0.0039,0.004 0.002,0.002 0.0039,0.004 0.0059,0.006 6.56e-4,6.4e-4 0.0013,0.001 0.002,0.002 0.0344,0.0338 0.07462,0.0604 0.109375,0.0937 0.0033,0.003 0.0064,0.007 0.0098,0.01 0.01303,0.0125 0.02794,0.0227 0.04102,0.0352 0.331155,0.31489 0.669359,0.62021 1.029297,0.89844 0.417752,0.32334 0.851844,0.61975 1.300781,0.88867 0.897845,0.53782 1.849089,0.96226 2.822266,1.25 l 30.968748,-30.68945 -0.004,-0.004 -0.008,-0.008 -0.01,-0.01 -0.0137,-0.0137 -0.0176,-0.0176 -0.041,-0.041 -0.0254,-0.0254 -0.0273,-0.0273 -0.0312,-0.0312 -0.0352,-0.0352 -0.0371,-0.0371 -0.0391,-0.0391 -0.043,-0.043 -0.0469,-0.0469 -0.0488,-0.0488 -0.0527,-0.0527 -0.0547,-0.0547 -0.0566,-0.0566 -0.0625,-0.0625 -0.0625,-0.0625 -0.13672,-0.13672 -0.14844,-0.14843 -0.0801,-0.0801 -0.0801,-0.0801 -0.0859,-0.0859 -0.0879,-0.0879 -0.0898,-0.0898 -0.0937,-0.0937 -0.0957,-0.0957 -0.0996,-0.0996 -0.10352,-0.10352 -0.10547,-0.10547 -0.10742,-0.10742 -0.11133,-0.11133 -0.11523,-0.11523 -0.11719,-0.11719 -0.24414,-0.24414 -0.125,-0.125 -2.87305,-2.875 -0.51757,-0.51953 -0.29493,-0.29492 -0.18554,-0.18555 -0.002,-0.002 -0.0176,-0.0176 -0.004,-0.004 -0.0898,-0.0898 -0.0195,-0.0195 -0.25586,-0.25586 -0.26563,-0.265626 -1.29492,-1.296874 -0.002,0 -0.01,-0.01172 -0.002,0 -0.10547,-0.107422 -0.002,0 -0.0918,-0.09375 -0.002,0 -0.0176,-0.01758 -0.0176,-0.01953 -0.002,0 -0.17579,-0.177735 -0.002,0 -0.10547,-0.107422 -0.002,0 -0.0352,-0.03516 -0.39257,-0.392578 -0.28321,-0.285156 -0.002,0 -0.26953,-0.271485 -0.002,0 -0.0273,-0.02734 -0.375,-0.376953 -0.002,0 -0.44922,-0.451171 -0.002,0 -0.0937,-0.09375 -0.53516,-0.53711 -0.002,0 -0.27149,-0.273437 -0.002,0 -0.10742,-0.107422 -0.17578,-0.177735 -0.002,0 -0.29492,-0.296875 -0.002,0 -0.30664,-0.308593 -0.002,0 -0.41406,-0.414063 -0.23828,-0.240234 -0.002,0 -0.3418,-0.34375 -0.002,0 -0.53711,-0.539063 -0.002,0 -0.37304,-0.375 -0.002,0 -0.12304,-0.123047 -0.0664,-0.06836 -0.002,0 -0.875,-0.875 -0.125,-0.126953 -0.002,0 -0.41993,-0.421875 -0.002,0 -0.33398,-0.333984 -0.0977,-0.09961 -0.002,0 -0.50586,-0.505859 -0.55078,-0.550781 -0.0781,-0.08008 -0.002,0 -0.47266,-0.474609 -0.002,0 -0.082,-0.08203 -0.15821,-0.160157 -0.002,0 -0.74219,-0.74414 -0.002,0 -0.21875,-0.21875 -0.0332,-0.03516 -0.002,0 -2.136719,-2.138672 -0.002,0 -0.5625,-0.564453 -0.002,0 L 76.976562,82.521484 76.6875,82.230469 76.394531,81.9375 76.099609,81.642578 75.800781,81.34375 l -0.002,0.002 -0.300781,-0.302734 -0.302735,-0.304688 -0.002,0.002 -0.617187,-0.61914 -0.3125,-0.314453 -0.316406,-0.316407 -0.002,0.002 -0.640624,-0.642579 -0.324219,-0.326171 -0.328125,-0.328126 -0.002,0.002 -0.664063,-0.666016 -0.335937,-0.337891 -0.002,0.002 -0.339844,-0.341796 -0.6875,-0.689454 -0.34961,-0.349609 -0.351562,-0.351562 -0.355469,-0.355469 -0.357422,-0.357422 -0.361328,-0.361328 -0.363281,-0.363281 -0.367188,-0.367188 -0.36914,-0.369141 -0.373047,-0.373046 -0.002,0.002 -0.753906,-0.75586 -0.38086,-0.382812 -0.002,0.002 -0.382813,-0.384766 -0.777343,-0.779296 -0.002,0.002 -0.789063,-0.791016 -0.398437,-0.400391 -0.002,0.002 -0.402343,-0.404297 -0.8125,-0.814453 -0.002,0.002 -0.824219,-0.826172 -0.417969,-0.417969 -0.002,0.002 -0.322266,-0.324219 -0.519531,-0.521484 -0.002,0 -0.179687,-0.179688 -0.294922,-0.296874 -0.0293,-0.0293 -0.123047,-0.123047 -0.154297,-0.154297 -2.261719,-2.263672 -0.002,0 -0.445312,-0.445313 -0.449219,-0.451171 -0.453125,-0.453125 -0.002,0.002 -0.914063,-0.916016 -0.460937,-0.462891 -0.464844,-0.464843 -0.002,0.002 -0.9375,-0.939453 -0.472656,-0.47461 -0.476563,-0.476562 -0.002,0.002 -0.478516,-0.480469 -0.482421,-0.484375 -0.002,0.002 -1.958984,-1.960937 -0.496094,-0.498047 -0.002,0.002 -0.5,-0.501953 -3.064453,-3.066406 -0.521484,-0.521485 -0.523438,-0.523437 -0.527344,-0.527344 -0.002,0.002 -1.492187,-1.49414 -0.105469,-0.107422 -0.002,0 -0.25586,-0.25586 -0.28125,-0.283203 -0.002,0 -2.185547,-2.185547 -0.552734,-0.554687 -0.55664,-0.556641 -0.560547,-0.560547 -0.5625,-0.5625 -0.002,0.002 -0.564454,-0.566406 -0.568359,-0.570312 -0.002,0.002 -0.570313,-0.572266 -0.574218,-0.576172 -0.002,0.002 -0.576172,-0.578124 -2.339844,-2.341797 -0.002,0.002 -0.591797,-0.59375 z"
       id="path18792"
       inkscape:connector-curvature="0"
       clip-path="url(#clipPath19649)" /></g></svg>