<svg id="Layer_1" xmlns="http://www.w3.org/2000/svg" xmlns:xlink="http://www.w3.org/1999/xlink" viewBox="0 0 319 340"><style>.st0{fill:#008265}.st1{fill:#0c3e85}.st2{fill:#ca7e00}</style><g id="Layer_1_1_"><g id="Icon"><image width="319" height="340" xlink:href="73E793A9BA3CF943.png" overflow="visible" opacity=".16"/><g id="_Group_"><path id="_Path_" class="st0" d="M75.1 182.8c11 0 19.9-8.9 19.9-19.9S86.1 143 75.1 143s-19.9 8.9-19.9 19.9c0 11 8.9 19.9 19.9 19.9z"/><path id="_Path_2" class="st0" d="M46.2 173.6c4.5 0 8.1-3.6 8.1-8.1s-3.6-8.1-8.1-8.1c-3.8 0-9.8 6.2-18.2 2.2-.9-.4-1.9-.2-2.5.5s-.8 1.7-.3 2.5c2.8 5.1 9.1 11 21 11z"/><path class="st0" d="M131.2 150.3c-1.2-4.4-5.7-6.9-10.1-5.7-2.4.7-4.3 2.3-5.3 4.6l-12 26.5-17 16.6c-2-.9-4.2-1.4-6.4-1.4H69.9c-2 0-4 .4-5.9 1.2l-23-4.6-17.8-16.7c-3.3-3.2-8.5-3.1-11.7.1-3.2 3.3-3.1 8.5.1 11.7.1.1.2.2.3.2l19.6 18.4c1.1 1.1 2.6 1.8 4.1 2.1l18.9 3.8v31.6l-7.4 29.1c-.2.9 0 1.8.5 2.5.6.7 1.4 1.1 2.3 1.1h4.5v46.8c0 4.6 3.7 8.3 8.3 8.3s8.3-3.7 8.3-8.3v-46.8h8.3v46.8c0 4.6 3.7 8.3 8.3 8.3s8.3-3.7 8.3-8.3v-46.8h4.6c.9 0 1.7-.4 2.3-1.1.6-.7.7-1.6.5-2.5l-7.4-29.2v-32l20.6-20.1c.7-.7 1.3-1.6 1.8-2.5l12.6-27.8.3-5.9z"/><path class="st1" d="M237.1 10.1c-9.9-7.3-25.8-2.4-35.5 10.8-7.9 10.8-9.1 23.6-4.1 32-3.7-2.7-9.2-5.6-15.5-4.9-7.3.8-13.7 6.2-19 16-5.5 10.3-4.6 21.3-3.3 32.1-2.2-1-4.4-1.7-6.8-2.1-5.2-.6-10.5.6-15 3.4 6.1-8.3 5.1-22.1-3.2-33.4-9.7-13.3-25.6-18.1-35.5-10.8s-10.1 23.9-.4 37.1c8.7 11.9 22.4 17 32.3 12.6l1.5 8.4c.2 1.3 1.1 2.4 2.4 2.9 1.2.5 2.6.3 3.7-.5l6.2-4.5c1.1-.8 1.7-2.1 1.6-3.4-.1-1.3-.9-2.5-2.1-3.2l-2.5-1.3c3.2-1.6 6.8-2.3 10.3-1.9 3 .5 5.8 1.6 8.2 3.4 1.8 17.5 1 33.9-29.1 47.5l-.4 6c32.4-13.7 36.3-31.4 35.3-48.4 6.1 6.9 6.8 10.6 8.7 19.9 2.9 14.2 6.9 33.5 32.8 40.4l.4-5.8c-21.6-6.3-25.1-21.9-27.9-35.9-2.2-10.7-3.8-18-14.6-26.8-.1-.9-.2-1.8-.3-2.6-1.3-10.9-2.5-21.2 2.5-30.6 4.4-8.1 9.4-12.6 14.9-13.2 5-.6 9.6 2.1 12.5 4.4l-3.3 1.8c-1.9 1-2.7 3.3-1.7 5.2.3.5.7 1 1.2 1.4l6.2 4.5c1.1.8 2.5 1 3.7.5s2.1-1.6 2.4-2.9l1.5-8.4c9.9 4.4 23.6-.6 32.3-12.6 9.7-13.3 9.5-29.9-.4-37.1z"/><path class="st0" d="M305.4 213.8l-29.3-19.3c-2.7-2.2-6-3.3-9.5-3.3h-10.5c-3.4 0-6.6 1.1-9.3 3.2l-17.4-7.3-5.6-23.6c-1-4.5-5.4-7.2-9.9-6.2h-.1c-2.6.7-4.7 2.6-5.7 5.1l-.4 5.8 6.4 27c.6 2.6 2.4 4.8 4.9 5.8l21.5 9v108.7c0 4.6 3.7 8.3 8.3 8.3s8.3-3.7 8.3-8.3v-46.8h8.3v46.8c0 4.6 3.7 8.3 8.3 8.3 4.6 0 8.3-3.7 8.3-8.3V218.4l9.9 6.5-2.2 21.5c-.5 4.6 2.8 8.6 7.4 9.1s8.6-2.8 9.1-7.4l2.7-26.5c.5-3.1-.9-6.1-3.5-7.8z"/><path id="_Path_3" class="st0" d="M261.3 183.2c11 0 19.9-8.9 19.9-19.9s-8.9-19.9-19.9-19.9-19.9 8.9-19.9 19.9c0 11 8.9 19.9 19.9 19.9z"/></g></g></g><path class="st2" d="M137.9 97.4c6.1-8.3 5.1-22.1-3.2-33.4-9.7-13.3-25.6-18.1-35.5-10.8s-10.1 23.9-.4 37.1c8.7 11.9 22.4 17 32.3 12.6l1.5 8.4c.2 1.3 1.1 2.4 2.4 2.9 1.2.5 2.6.3 3.7-.5l6.2-4.5c1.1-.8 1.7-2.1 1.6-3.4-.1-1.3-.9-2.5-2.1-3.2l-2.5-1.3m53.3-43.6l-3.3 1.8c-1.9 1-2.7 3.3-1.7 5.2.3.5.7 1 1.2 1.4l6.2 4.5c1.1.8 2.5 1 3.7.5s2.1-1.6 2.4-2.9l1.5-8.4c9.9 4.4 23.6-.6 32.3-12.6 9.7-13.3 9.5-29.9-.4-37.1-9.9-7.3-25.8-2.4-35.5 10.8-7.9 10.8-9.1 23.6-4.1 32"/></svg>