<?xml version="1.0" encoding="utf-8"?>
<!-- Generator: Adobe Illustrator 19.2.1, SVG Export Plug-In . SVG Version: 6.00 Build 0)  -->
<svg version="1.1" xmlns="http://www.w3.org/2000/svg" xmlns:xlink="http://www.w3.org/1999/xlink" x="0px" y="0px"
	 viewBox="0 0 519 519" style="enable-background:new 0 0 519 519;" xml:space="preserve">
<style type="text/css">
	.st0{fill:#CCFFFF;}
	.st1{clip-path:url(#SVGID_2_);}
	.st2{fill:url(#SVGID_3_);}
	.st3{fill:url(#SVGID_4_);}
	.st4{fill:#008265;}
</style>
<g id="Background_1_">
	<g>
		<image style="overflow:visible;opacity:0.24;" width="519" height="519" xlink:href="8EA41B60230797A6.png" >
		</image>
		<g>
			<path class="st0" d="M59.8,6.7h400c27.6,0,50,22.4,50,50v400c0,27.6-22.4,50-50,50h-400c-27.6,0-50-22.4-50-50v-400
				C9.8,29.1,32.2,6.7,59.8,6.7z"/>
		</g>
	</g>
</g>
<g id="Shadow">
	<g>
		<defs>
			<path id="SVGID_1_" d="M59.8,6.7h400c27.6,0,50,22.4,50,50v400c0,27.6-22.4,50-50,50h-400c-27.6,0-50-22.4-50-50v-400
				C9.8,29.1,32.2,6.7,59.8,6.7z"/>
		</defs>
		<clipPath id="SVGID_2_">
			<use xlink:href="#SVGID_1_"  style="overflow:visible;"/>
		</clipPath>
		<g class="st1">
			<linearGradient id="SVGID_3_" gradientUnits="userSpaceOnUse" x1="174.9382" y1="151.1978" x2="613.33" y2="589.5895">
				<stop  offset="2.392344e-03" style="stop-color:#000000;stop-opacity:0.7"/>
				<stop  offset="1" style="stop-color:#FFFFFF;stop-opacity:0"/>
			</linearGradient>
			<path class="st2" d="M606.3,512.5c-10.1-12.3-23.1-22.9-34.2-34.3c9.1-5.8,12-18.1,6.3-27.3c-3.4-5.5-9.4-10.1-13.9-14.7
				c-8.1-8.1-16.2-16.2-24.3-24.3c-16-16-32-32-48-48c-32-32-64-64-96-96c-9-9-17.9-17.9-26.9-26.9c-7-7-14.2-14-25.1-10.9
				c-11.9,3.3-18,17-12.5,28.1c-18.7-18.5-37.2-37.2-55.8-55.8c-19.1-19.1-37.5-39.5-57.6-57.6c-8.6-7.8-23-13.5-32.7-4
				c-8.8,8.7-6.2,23.3-0.4,32.8c7.6,12.3,21.2,22.7,31.4,32.9c18.8,18.8,37.6,37.6,56.5,56.5c9.5,9.5,19,19,28.5,28.5
				c4.7,4.7,9.5,9.5,14.2,14.2c3.5,3.5,11.2,8.7,12.9,13.2c0.8,2.2,0,7.2,0,9.6c0,6.4,0,12.8,0,19.2c0,16,0,31.9,0,47.9
				c0,3.2-0.6,7,0.2,10.2c1.5,6.4,9.8,12.1,14.4,16.8c9.3,9.3,18.6,18.6,28,28c19,19,38,38,57,57c37.5,37.5,73.8,77,112.9,112.9
				c9.3,8.5,16.3,2.4,16.3-8.6c5.8,6.2,22.2,22.9,24.9,4.8c1-6.6,0-14.1,0-20.7c0-18.3,0-36.6,0-54.9c7.1,6.1,20.5,22.1,24.3,3.6
				C607.9,538,612.4,517.6,606.3,512.5C606,512.1,608.4,514.3,606.3,512.5z"/>
			<linearGradient id="SVGID_4_" gradientUnits="userSpaceOnUse" x1="169.4821" y1="187.3156" x2="537.9846" y2="555.8181">
				<stop  offset="2.392344e-03" style="stop-color:#000000;stop-opacity:0.7"/>
				<stop  offset="1" style="stop-color:#FFFFFF;stop-opacity:0"/>
			</linearGradient>
			<path class="st3" d="M577.4,348.2c-17.6-19.6-37.5-37.5-56.2-56.2c-18.7-18.7-37.5-37.5-56.2-56.2c-37-37-74.1-74.1-111.1-111.1
				c-5.4-5.4-10.8-10.8-16.2-16.2c-4.9-4.9-10-12-16.6-14.5c-22.8-8.9-47.4,25.2-35.6,45c-21.5-15.7-38.7,10.3-38.8,30.2
				c-0.1,12.4,4,25,1.5,37.5c-1.5,7.2-5.2,13.3-10.6,18.2c-3.8,3.5-8.3,6.3-12.9,8.7c-6.4,3.4-3.6,1.4-8.4-1.5
				c-12-7.3-17.2,13.5-20.7,21.2c-7-6.7-13.7-16.1-22-21.3c-13.1-8.2-30.6,1.7-30.4,17c-6.1-5.2-7.7-5.9-15.3-3.5
				c-5.4,1.7-18.5-3.1-13,5.6c5.6,9,16.7,16.9,24.2,24.4c-3.7-0.7-7.8-1-10.9-2.8c-4.8-2.7-9.3-8.7-13.3-12.5
				c-4-3.8-8.7-8.2-14.3-3.8c-6,4.6-2.5,10.5,1.5,14.7c5.8,6.1,11.9,11.9,17.8,17.9c5.8,5.8,11.7,11.6,17.5,17.5
				c5.3,5.3,5.7,7.8,5.1,16c-0.6,9.5-4.8,18.6-6.5,28c-0.8,4.1-0.8,5.1,2.1,8.5c2.1,2.5,3.6,3.1,4.3,6c2.5,10.1,0,23.9,0,34.3
				c0,11.7,9.6,18,17.4,25.9c8.7,8.7,17.5,17.5,26.2,26.2c35.2,35.2,70.4,70.4,105.5,105.5c19.6,19.6,39.1,39.1,58.7,58.7
				c10,10,20,20,30,30c4.9,4.9,9.6,10.6,15,15c9.5,7.8,14.8-1.1,14.8-10.1c4.7,4,9.9,13.2,16.6,13.2c8.1,0,8.3-7.7,8.3-13.6
				c0-6.7,0-13.4,0-20.1c0-4.9-2-14.9,0-19.4c0.7-1.5-0.1-1.2,0.7-2c2.5-2.7,5.4,2.8,6.6-3.7c0.9-4.6-3.4-13.6-4.6-18.1
				c-2.6-10.4-2.8-19-2.8-29.8c0-3.4-1.4-10.1,0-13.1c2-4.2,9-8.8,12.3-12c8.5-8.3,12.2-15.3,17.2-26.2c1.6-3.5,3-9.3,5.5-12.2
				c2.8-3.1,10.6-5,14.3-7.4c4.8-3.1,9.4-6.8,12.9-11.3c8.6-11,8.7-24.2,7.5-37.4c-1.2-12.7-3.4-25.2,4-36.7
				c2.2-3.4,6.7-9.9,10.8-8.4c1.5,0.5,3.6,3.6,4.8,4.8c3,3,5.9,6,9.3,8.5c8.5,6,9.4-1.1,10.7-8.5
				C568.2,407.5,597.6,366.3,577.4,348.2C577.1,347.8,586,355.9,577.4,348.2z"/>
		</g>
	</g>
</g>
<g id="Icon">
	<g id="XMLID_135_">
		<path id="XMLID_3_" class="st4" d="M163.1,268.8c11,0,19.9-8.9,19.9-19.9s-8.9-19.9-19.9-19.9s-19.9,8.9-19.9,19.9
			S152.1,268.8,163.1,268.8z"/>
		<path id="XMLID_2_" class="st4" d="M134.2,259.6c4.5,0,8.1-3.6,8.1-8.1s-3.6-8.1-8.1-8.1c-3.8,0-9.8,6.2-18.2,2.2
			c-0.8-0.4-1.8-0.2-2.5,0.5c-0.6,0.7-0.8,1.7-0.3,2.5C116,253.7,122.3,259.6,134.2,259.6z"/>
		<path class="st4" d="M219.2,236.3c-0.7-2.2-2.2-4.2-4.4-5.2c-4.2-1.9-9.1,0-11,4.1l-12,26.5l-17,16.6c-2-0.9-4.1-1.4-6.4-1.4
			h-10.5c-2.1,0-4.1,0.4-5.9,1.2l-23-4.6l-17.8-16.7c-3.3-3.1-8.6-3-11.7,0.4c-3.1,3.3-3,8.6,0.4,11.7l19.6,18.4
			c1.1,1.1,2.5,1.8,4.1,2.1l18.9,3.8v31.6l-7.4,29.1c-0.2,0.9,0,1.8,0.5,2.5c0.6,0.7,1.4,1.1,2.3,1.1h4.5v46.8
			c0,4.6,3.7,8.3,8.3,8.3c4.6,0,8.3-3.7,8.3-8.3v-46.8h8.3v46.8c0,4.6,3.7,8.3,8.3,8.3c4.6,0,8.3-3.7,8.3-8.3v-46.8h4.6
			c0.9,0,1.7-0.4,2.3-1.1c0.6-0.7,0.7-1.6,0.5-2.5l-7.4-29.2v-32l20.6-20.1c0.7-0.7,1.3-1.6,1.8-2.5l12.6-27.8c0,0,0,0,0,0
			L219.2,236.3C219.2,236.3,219.2,236.3,219.2,236.3z"/>
		<path class="st4" d="M325.1,96.1c-9.9-7.3-25.8-2.4-35.5,10.8c-7.9,10.8-9.1,23.6-4.1,32c-3.7-2.7-9.2-5.6-15.5-4.9
			c-7.3,0.8-13.7,6.2-19,16c-5.5,10.3-4.6,21.3-3.3,32.1c-2.2-1-4.5-1.8-6.8-2.1c-6.3-0.8-11.6,1.4-15,3.4
			c6.1-8.3,5.1-22.1-3.2-33.4c-9.7-13.3-25.6-18.1-35.5-10.8c-9.9,7.3-10.1,23.9-0.4,37.1c8.7,11.9,22.4,17,32.3,12.6l1.5,8.4
			c0.2,1.3,1.1,2.4,2.4,2.9c1.2,0.5,2.7,0.3,3.7-0.5l6.2-4.5c1.1-0.8,1.7-2.1,1.6-3.4c-0.1-1.3-0.9-2.5-2.1-3.2l-2.5-1.3
			c2.6-1.3,6.2-2.4,10.3-1.9c2.8,0.3,5.5,1.6,8.2,3.4c1.8,17.5,1,33.9-29.1,47.5l-0.4,6c32.4-13.7,36.3-31.4,35.3-48.4
			c6.1,6.9,6.8,10.6,8.7,19.9c2.9,14.2,6.9,33.5,32.8,40.4l0.4-5.8c-21.6-6.3-25.1-21.9-27.9-35.9c-2.2-10.7-3.8-18-14.6-26.8
			c-0.1-0.9-0.2-1.8-0.3-2.6c-1.3-10.9-2.5-21.2,2.5-30.6c4.4-8.1,9.4-12.6,14.9-13.2c5-0.6,9.6,2.1,12.5,4.4l-3.3,1.8
			c-1.2,0.6-2,1.8-2.1,3.2c-0.1,1.3,0.5,2.6,1.6,3.4l6.2,4.5c1.1,0.8,2.5,1,3.7,0.5s2.1-1.6,2.4-2.9l1.5-8.4
			c9.9,4.4,23.6-0.6,32.3-12.6C335.2,119.9,335,103.3,325.1,96.1z"/>
		<path class="st4" d="M393.4,299.8l-29.3-19.3c-2.6-2.1-5.9-3.3-9.5-3.3h-10.5c-3.5,0-6.7,1.2-9.3,3.2l-17.4-7.3l-5.6-23.6
			c-1.1-4.5-5.5-7.3-10-6.2c-2.8,0.7-4.7,2.7-5.7,5.1c0,0,0,0,0,0l-0.4,5.8c0,0,0,0,0,0l6.4,27c0.6,2.6,2.4,4.7,4.9,5.8l21.5,9v27.1
			v81.6c0,4.6,3.7,8.3,8.3,8.3s8.3-3.7,8.3-8.3v-46.8h8.3v46.8c0,4.6,3.7,8.3,8.3,8.3s8.3-3.7,8.3-8.3v-81.8v-18.5l9.9,6.5
			l-2.2,21.5c-0.5,4.6,2.9,8.6,7.4,9.1c4.8,0.4,8.7-3,9.1-7.4l2.7-26.5C397.4,304.5,396,301.5,393.4,299.8z"/>
		<path id="XMLID_1_" class="st4" d="M349.3,269.2c11,0,19.9-8.9,19.9-19.9s-8.9-19.9-19.9-19.9s-19.9,8.9-19.9,19.9
			C329.4,260.3,338.3,269.2,349.3,269.2z"/>
	</g>
</g>
</svg>
