<?xml version="1.0" encoding="utf-8"?>
<!-- Generator: Adobe Illustrator 19.2.1, SVG Export Plug-In . SVG Version: 6.00 Build 0)  -->
<svg version="1.1" id="Layer_1" xmlns="http://www.w3.org/2000/svg" xmlns:xlink="http://www.w3.org/1999/xlink" x="0px" y="0px"
	 viewBox="0 0 319 340" style="enable-background:new 0 0 319 340;" xml:space="preserve">
<style type="text/css">
	.st0{fill:#008265;}
	.st1{fill:#0C3E85;}
	.st2{fill:#CA7E00;}
</style>
<g>
	<g id="Layer_1_1_">
		<g id="Icon">
			
				<image style="overflow:visible;opacity:0.16;enable-background:new    ;" width="319" height="340" xlink:href="73E793A9BA3CF943.png" >
			</image>
			<g id="_Group_">
				<path id="_Path_" class="st0" d="M75.1,182.8c11,0,19.9-8.9,19.9-19.9S86.1,143,75.1,143s-19.9,8.9-19.9,19.9l0,0
					C55.2,173.9,64.1,182.8,75.1,182.8L75.1,182.8z"/>
				<path id="_Path_2" class="st0" d="M46.2,173.6c4.5,0,8.1-3.6,8.1-8.1s-3.6-8.1-8.1-8.1l0,0c-3.8,0-9.8,6.2-18.2,2.2
					c-0.9-0.4-1.9-0.2-2.5,0.5s-0.8,1.7-0.3,2.5C28,167.7,34.3,173.6,46.2,173.6z"/>
				<path class="st0" d="M131.2,150.3c-1.2-4.4-5.7-6.9-10.1-5.7c-2.4,0.7-4.3,2.3-5.3,4.6l-12,26.5l-17,16.6
					c-2-0.9-4.2-1.4-6.4-1.4H69.9c-2,0-4,0.4-5.9,1.2l-23-4.6l-17.8-16.7c-3.3-3.2-8.5-3.1-11.7,0.1c-3.2,3.3-3.1,8.5,0.1,11.7
					c0.1,0.1,0.2,0.2,0.3,0.2l19.6,18.4c1.1,1.1,2.6,1.8,4.1,2.1l18.9,3.8v31.6l-7.4,29.1c-0.2,0.9,0,1.8,0.5,2.5
					c0.6,0.7,1.4,1.1,2.3,1.1h4.5v46.8c0,4.6,3.7,8.3,8.3,8.3s8.3-3.7,8.3-8.3v-46.8h8.3v46.8c0,4.6,3.7,8.3,8.3,8.3
					s8.3-3.7,8.3-8.3v-46.8h4.6c0.9,0,1.7-0.4,2.3-1.1c0.6-0.7,0.7-1.6,0.5-2.5l-7.4-29.2v-32l20.6-20.1c0.7-0.7,1.3-1.6,1.8-2.5
					l12.6-27.8l0,0L131.2,150.3L131.2,150.3L131.2,150.3z"/>
				<path class="st1" d="M237.1,10.1c-9.9-7.3-25.8-2.4-35.5,10.8c-7.9,10.8-9.1,23.6-4.1,32c-3.7-2.7-9.2-5.6-15.5-4.9
					c-7.3,0.8-13.7,6.2-19,16c-5.5,10.3-4.6,21.3-3.3,32.1c-2.2-1-4.4-1.7-6.8-2.1c-5.2-0.6-10.5,0.6-15,3.4
					c6.1-8.3,5.1-22.1-3.2-33.4c-9.7-13.3-25.6-18.1-35.5-10.8s-10.1,23.9-0.4,37.1c8.7,11.9,22.4,17,32.3,12.6l1.5,8.4
					c0.2,1.3,1.1,2.4,2.4,2.9c1.2,0.5,2.6,0.3,3.7-0.5l6.2-4.5c1.1-0.8,1.7-2.1,1.6-3.4c-0.1-1.3-0.9-2.5-2.1-3.2l-2.5-1.3
					c3.2-1.6,6.8-2.3,10.3-1.9c3,0.5,5.8,1.6,8.2,3.4c1.8,17.5,1,33.9-29.1,47.5l-0.4,6c32.4-13.7,36.3-31.4,35.3-48.4
					c6.1,6.9,6.8,10.6,8.7,19.9c2.9,14.2,6.9,33.5,32.8,40.4l0.4-5.8c-21.6-6.3-25.1-21.9-27.9-35.9c-2.2-10.7-3.8-18-14.6-26.8
					c-0.1-0.9-0.2-1.8-0.3-2.6c-1.3-10.9-2.5-21.2,2.5-30.6c4.4-8.1,9.4-12.6,14.9-13.2c5-0.6,9.6,2.1,12.5,4.4l-3.3,1.8
					c-1.9,1-2.7,3.3-1.7,5.2c0.3,0.5,0.7,1,1.2,1.4l6.2,4.5c1.1,0.8,2.5,1,3.7,0.5s2.1-1.6,2.4-2.9l1.5-8.4
					c9.9,4.4,23.6-0.6,32.3-12.6C247.2,33.9,247,17.3,237.1,10.1z"/>
				<path class="st0" d="M305.4,213.8l-29.3-19.3c-2.7-2.2-6-3.3-9.5-3.3h-10.5c-3.4,0-6.6,1.1-9.3,3.2l-17.4-7.3l-5.6-23.6
					c-1-4.5-5.4-7.2-9.9-6.2h-0.1c-2.6,0.7-4.7,2.6-5.7,5.1l0,0l-0.4,5.8l0,0l6.4,27c0.6,2.6,2.4,4.8,4.9,5.8l21.5,9v108.7
					c0,4.6,3.7,8.3,8.3,8.3s8.3-3.7,8.3-8.3v-46.8h8.3v46.8c0,4.6,3.7,8.3,8.3,8.3c4.6,0,8.3-3.7,8.3-8.3l0,0V218.4l9.9,6.5
					l-2.2,21.5c-0.5,4.6,2.8,8.6,7.4,9.1s8.6-2.8,9.1-7.4l2.7-26.5C309.4,218.5,308,215.5,305.4,213.8z"/>
				<path id="_Path_3" class="st0" d="M261.3,183.2c11,0,19.9-8.9,19.9-19.9s-8.9-19.9-19.9-19.9s-19.9,8.9-19.9,19.9l0,0
					C241.4,174.3,250.3,183.2,261.3,183.2L261.3,183.2z"/>
			</g>
		</g>
	</g>
</g>
<path class="st2" d="M137.9,97.4c6.1-8.3,5.1-22.1-3.2-33.4c-9.7-13.3-25.6-18.1-35.5-10.8s-10.1,23.9-0.4,37.1
	c8.7,11.9,22.4,17,32.3,12.6l1.5,8.4c0.2,1.3,1.1,2.4,2.4,2.9c1.2,0.5,2.6,0.3,3.7-0.5l6.2-4.5c1.1-0.8,1.7-2.1,1.6-3.4
	c-0.1-1.3-0.9-2.5-2.1-3.2l-2.5-1.3"/>
<path class="st2" d="M195.2,57.7l-3.3,1.8c-1.9,1-2.7,3.3-1.7,5.2c0.3,0.5,0.7,1,1.2,1.4l6.2,4.5c1.1,0.8,2.5,1,3.7,0.5
	s2.1-1.6,2.4-2.9l1.5-8.4c9.9,4.4,23.6-0.6,32.3-12.6c9.7-13.3,9.5-29.9-0.4-37.1c-9.9-7.3-25.8-2.4-35.5,10.8
	c-7.9,10.8-9.1,23.6-4.1,32"/>
<path class="st2" d="M207.7,168.2"/>
</svg>
