<?xml version="1.0" encoding="utf-8"?>
<!-- Generator: Adobe Illustrator 19.2.1, SVG Export Plug-In . SVG Version: 6.00 Build 0)  -->
<svg version="1.1" id="Layer_1" xmlns="http://www.w3.org/2000/svg" xmlns:xlink="http://www.w3.org/1999/xlink" x="0px" y="0px"
	 viewBox="0 0 550 400" style="enable-background:new 0 0 550 400;" xml:space="preserve">
<style type="text/css">
	.st0{fill-rule:evenodd;clip-rule:evenodd;}
</style>
<path class="st0" d="M364.2,227.2v87.3L194.4,182.8V95.5l105.6,81.7V95.4l64.3,49.9V227.2L364.2,227.2z M223.4,256.3
	c8,0,14.9,2.8,20.5,8.5c5.7,5.7,8.6,12.6,8.6,20.6c0,8-2.9,14.9-8.6,20.5c-5.7,5.7-12.5,8.6-20.5,8.6c-8,0-14.9-2.9-20.6-8.6
	c-5.1-5.1-7.9-11.2-8.4-18.2v-4.5c0.5-7.1,3.3-13.2,8.4-18.4C208.5,259.1,215.4,256.3,223.4,256.3z"/>
</svg>
