<?xml version="1.0" encoding="utf-8"?>
<!-- Generator: Adobe Illustrator 19.2.1, SVG Export Plug-In . SVG Version: 6.00 Build 0)  -->
<svg version="1.1" id="Layer_1" xmlns="http://www.w3.org/2000/svg" xmlns:xlink="http://www.w3.org/1999/xlink" x="0px" y="0px"
	 viewBox="0 0 519 519" style="enable-background:new 0 0 519 519;" xml:space="preserve">
<style type="text/css">
	.st0{fill:#FAE2EF;}
	.st1{opacity:0.39;clip-path:url(#SVGID_2_);fill:url(#SVGID_3_);enable-background:new    ;}
	.st2{fill:#CA7E00;}
</style>
<g id="Layer_3">
	<g>
		
			<image style="overflow:visible;opacity:0.24;enable-background:new    ;" width="519" height="519" xlink:href="9B9BC8F337C2E4EB.png" >
		</image>
		<g>
			<path class="st0" d="M59.6,6.7h400c27.6,0,50,22.4,50,50v400c0,27.6-22.4,50-50,50h-400c-27.6,0-50-22.4-50-50v-400
				C9.6,29.1,32,6.7,59.6,6.7z"/>
		</g>
	</g>
</g>
<g id="Capa_1">
	<g>
		<g>
			<defs>
				<path id="SVGID_1_" d="M59.6,6.7h400c27.6,0,50,22.4,50,50v400c0,27.6-22.4,50-50,50h-400c-27.6,0-50-22.4-50-50v-400
					C9.6,29.1,32,6.7,59.6,6.7z"/>
			</defs>
			<clipPath id="SVGID_2_">
				<use xlink:href="#SVGID_1_"  style="overflow:visible;"/>
			</clipPath>
			
				<linearGradient id="SVGID_3_" gradientUnits="userSpaceOnUse" x1="152.6227" y1="397.5226" x2="674.5226" y2="-124.3773" gradientTransform="matrix(1 0 0 -1 0 520)">
				<stop  offset="0" style="stop-color:#000000"/>
				<stop  offset="0.7895" style="stop-color:#FFFFFF;stop-opacity:0"/>
			</linearGradient>
			<path class="st1" d="M699.6,430.3c-5-1.9-10-10-14.1-14.1c-4.2-4.2-9.2-8.7-13.6-13.2c-8.9-9.3-19-18.1-27.6-27.3
				c-18-19.1-36.8-36.8-54.9-54.9c-37.3-37.3-74.6-73.1-110.8-111.5c-9.8-10.4-20.7-20.1-31-31c-4.5-4.8-10.2-9.6-15-14.6
				c-5-5.3-11.9-9.9-16-16.4c-0.9,0.6-0.4,0.8-1.6,0.2c-0.6-3.1-6.9-7.4-9.9-9.9c-2.2-1.8-2.8-3.9-7.9-5.8
				c-4.4-1.6-8.8-2.1-13.4-2.2c-14.3-0.4-28.6,0-42.9,0c-49.7,0-99.4,0-149.2,0c-15.4,0-35.8-3-49.8,4.7
				c18.4,16.9,35.1,35.3,52.8,52.7c17.8,17.4,35.3,34.9,52.8,52.7c9.5,9.7,19.1,19.8,29.2,29.3c-12.5,6.9-36.7-31.1-41.8-26.6
				c-31.1-32.5-71.5-64.3-106.9-95.3c-6.7,10.7-5.8,22.4-5.8,34.3c0,16.3,0,32.6,0,48.9c0,28.6-0.9,57.3,0,85.9
				c0.1,3.5,0.4,6.9,1.3,10.3c1.8,6.4,4.6,8.4,6.8,10.9c2.1,2.5,10.4,9.1,9.7,11.4c8.3,5.2,14.3,14,21.5,20.7
				c6.5,6.1,12.6,13.8,19.5,19.9c14.4,12.7,26.7,27.2,41,40.6c27.2,25.6,52.7,55,79.9,80.6c28.3,26.7,53.6,54.6,82,81.2
				c6.5,6.1,12.6,13.8,19.5,19.9c7.1,6.3,12.8,15.3,20.8,20.6c8.5,5.7,18.8,5,28.5,5c12.4,0,24.8,0,37.1,0c58.8,0,117.8,1.5,176.6,0
				c7.5-0.2,14.5-1.7,21-5.8c-31.9-35.7-62.7-72.8-95.9-107.3c-4.3-4.4-8.9-8.9-13.4-13.3c2.3-2,6.8-4.6,8.2-7.2
				c28.5,30.6,59.2,59.2,88.7,88.7c8.6,8.6,17,16.6,25.3,25.4c5-9,4.8-18.1,4.8-27.9c0-12.5,0-24.9,0-37.4c0-29.7,0-59.3,0-89
				C705.4,452.3,706.2,440.8,699.6,430.3z"/>
		</g>
	</g>
</g>
<g id="Shadow_Layer">
	<g>
		<path class="st2" d="M422.6,317.4c0,6.6-1.8,12.7-4.8,18l-94.7-106l93.7-82c3.6,5.8,5.8,12.6,5.8,19.9L422.6,317.4L422.6,317.4z
			 M272.6,248.7L403,134.6c-5.4-2.9-11.4-4.7-17.9-4.7h-225c-6.5,0-12.5,1.8-17.9,4.7L272.6,248.7z M309,241.8l-30.2,26.4
			c-1.8,1.5-4,2.3-6.2,2.3s-4.4-0.8-6.2-2.3l-30.2-26.4l-95.9,107.3c5.7,3.6,12.5,5.8,19.8,5.8h225c7.3,0,14-2.2,19.8-5.8L309,241.8
			z M128.4,147.5c-3.6,5.8-5.8,12.6-5.8,19.9v150c0,6.6,1.8,12.7,4.8,18l94.7-106L128.4,147.5z"/>
	</g>
</g>
</svg>
