<?xml version="1.0" encoding="utf-8"?>
<!-- Generator: Adobe Illustrator 19.2.1, SVG Export Plug-In . SVG Version: 6.00 Build 0)  -->
<svg version="1.1" xmlns="http://www.w3.org/2000/svg" xmlns:xlink="http://www.w3.org/1999/xlink" x="0px" y="0px"
	 viewBox="0 0 519 519" style="enable-background:new 0 0 519 519;" xml:space="preserve">
<style type="text/css">
	.st0{fill:#CCFFFF;}
	.st1{opacity:0.5;clip-path:url(#SVGID_2_);fill:url(#SVGID_3_);}
	.st2{fill:#008265;}
</style>
<g id="Background">
	<g>
		<image style="overflow:visible;opacity:0.24;" width="519" height="519" xlink:href="B87ADD01424E7FE6.png" >
		</image>
		<g>
			<path class="st0" d="M59.8,6.7h400c27.6,0,50,22.4,50,50v400c0,27.6-22.4,50-50,50h-400c-27.6,0-50-22.4-50-50v-400
				C9.8,29.1,32.2,6.7,59.8,6.7z"/>
		</g>
	</g>
</g>
<g id="Clipping_Layer">
	<g>
		<defs>
			<path id="SVGID_1_" d="M59.8,6.7h400c27.6,0,50,22.4,50,50v400c0,27.6-22.4,50-50,50h-400c-27.6,0-50-22.4-50-50v-400
				C9.8,29.1,32.2,6.7,59.8,6.7z"/>
		</defs>
		<clipPath id="SVGID_2_">
			<use xlink:href="#SVGID_1_"  style="overflow:visible;"/>
		</clipPath>
		<linearGradient id="SVGID_3_" gradientUnits="userSpaceOnUse" x1="151.1348" y1="156.278" x2="663.3358" y2="668.479">
			<stop  offset="0" style="stop-color:#000000"/>
			<stop  offset="0.7512" style="stop-color:#FFFFFF;stop-opacity:0.5"/>
		</linearGradient>
		<path class="st1" d="M694.5,548.5c-3.2-37.8-25.7-62.9-51.1-88.3c-7.3-7.3-14.5-14.5-21.8-21.8c-2.3-2.3-8.4-6.4-9.5-9.5
			c-1.2-3.2,0.7-10.6,0.2-14.2c-1-6.2-3.3-12.2-7-17.4c-12-17.1-30.7-31.6-45.5-46.3c-14.5-14.5-29.1-29.1-43.6-43.6
			c-57.7-57.7-115.4-115.4-173.1-173.1c-8.2-8.2-16.2-16.7-24.6-24.6c-16.8-15.7-42.6-17.7-59.5-0.7c-16.9,16.9-15,42.7,0.7,59.6
			c7.9,8.4,16.4,16.3,24.5,24.5c-10-0.8-17-10.6-22.7-16.6c-5.2-5.5-11.3-15-17.9-18.4c-2.4-1.2-3.4-0.5-7.1-0.3
			c-6.8,0.3-8-0.1-14.3-2.8c-8.8-3.9-18.3-6.1-27.8-7.4c-10.1-1.3-39.6-6.1-40.4,9.6c-0.4,7.9,7.4,18.3,10.7,25
			c0.8,1.6,4.4,6.6,4.1,8.4c-0.3,2-6.8,6.6-8.4,8.3c-3.7,3.9-7.2,8-10.4,12.4c-5.3,7.3-8.3,19.7-14.1,25.9c-3,3.2-6.7,2-11.8,2.1
			c-10.4,0.1-15.9,2.9-16.4,14c-0.4,10.2-0.6,20.8,0,30.9c0.6,9.4,5.7,13.5,12.1,20c14.6,14.6,27.4,30.3,41.5,45.1
			c6.2,6.5,12.7,12.8,19.1,19.1c7.6,7.6,8.5,9,8.5,19.7c0,11.1-1.5,19.4,6.4,28c5.8,6.3,12.2,12.2,18.3,18.3
			c12,12,23.9,23.9,35.9,35.9c24.2,24.2,48.3,48.3,72.5,72.5c48.5,48.5,97.1,97.1,145.6,145.6c7.4,7.4,12.1,11.2,22.7,11.3
			c8.1,0.1,18.3,1.7,26.2-0.3c13.8-3.4,7.9-16.9,16.7-23.8c3.7-2.9,20.4,0.3,25.8,0.2c8.4-0.3,9.5-0.8,15.1,4.8
			c6.2,6.2,13.5,16.7,22.2,18.8c8.2,2,18.9,0.4,27.2,0.3c15.9-0.3,19-11.9,26-24.9c10.9-20.1,21.8-40.2,31.2-61.1
			C690.1,592.6,696.5,571.7,694.5,548.5C692.3,522.4,696,565.4,694.5,548.5z"/>
	</g>
</g>
<g id="Icon">
	<g>
		<path class="st2" d="M376.1,193c-12.1-11.2-26.2-19.9-41.3-26.2c-2,3-4.2,5.8-6.8,8.3c-3.4,3.4-7.2,6.3-11.3,8.6
			c4.4,1.4,8.6,3.1,12.6,5c4.1,1.9,5.7,7,3.4,10.9l0,0c-2,3.5-6.4,4.9-10,3.1c-27.5-13-58.2-10.6-71.7-8.5c-4,0.6-7.8-1.9-8.7-5.8v0
			c-1.1-4.4,1.9-8.8,6.4-9.5c2.4-0.4,5.4-0.8,8.7-1.1c-1-0.9-2-1.8-2.9-2.7c-4.8-4.8-8.5-10.3-11.1-16.5c-0.3-0.7-0.6-1.3-0.8-2
			c-4.1,0.7-8.2,1.6-12.1,2.6c-23.1-13.4-50.8-13.5-67.3-11.9c-7.2,0.7-11.4,8.3-8.3,14.8l14,28.6c-15.5,13.5-27.2,30.1-33.8,48.5
			l-17-0.1c-5.7,0-10.4,4.6-10.4,10.3v38.2c0,3.9,2.1,7.4,5.6,9.2l22.1,11.5c9.2,25.5,28.4,47.3,53.6,62.4v33.8
			c0,6.7,5.4,12.1,12.1,12.1h31c4.8,0,9.1-2.9,11.1-7.2l7.8-17.8c6.7,0.8,13.5,1.2,20.4,1.2c11,0,21.6-1,31.9-3v14.8
			c0,6.7,5.4,12.1,12.1,12.1H346c4.4,0,8.6-2.4,10.7-6.4c16.4-30.8,34.2-61.8,47.4-94c6.7-16.3,9.1-33.7,7.6-50.6
			C409.3,238.3,396.9,212.1,376.1,193z"/>
		<g id="XMLID_1_">
			<g>
				<path class="st0" d="M190.9,226.1c8.6,0,15.5,6.9,15.5,15.5c0,8.6-6.9,15.5-15.5,15.5c-8.6,0-15.5-6.9-15.5-15.5
					C175.4,233.1,182.3,226.1,190.9,226.1z"/>
			</g>
			<g>
			</g>
		</g>
		<path class="st2" d="M273.1,177c4.7,1.9,9.9,2.9,15.3,2.9c2.7,0,5.2-0.2,7.7-0.7c10.6-2,19.7-7.9,25.8-16.2
			c5.1-6.9,8.1-15.4,8.1-24.7c0-23-18.6-41.6-41.6-41.6c-23,0-41.6,18.6-41.6,41.6c0,6,1.2,11.6,3.5,16.8
			C254.7,165.1,262.9,173,273.1,177z"/>
	</g>
</g>
</svg>
