<?xml version="1.0" encoding="utf-8"?>
<!-- Generator: Adobe Illustrator 19.2.1, SVG Export Plug-In . SVG Version: 6.00 Build 0)  -->
<svg version="1.1" id="Layer_1" xmlns="http://www.w3.org/2000/svg" xmlns:xlink="http://www.w3.org/1999/xlink" x="0px" y="0px"
	 viewBox="0 0 324 339" style="enable-background:new 0 0 324 339;" xml:space="preserve">
<style type="text/css">
	.st0{fill:#008265;}
	.st1{fill:#FFFFFF;}
	.st2{fill:#CA7E00;stroke:#0C3E85;stroke-width:4;stroke-miterlimit:10;}
</style>
<title>money</title>
<g>
	<g id="Layer_1_1_">
		
			<image style="overflow:visible;opacity:0.16;enable-background:new    ;" width="324" height="289" xlink:href="90244E76701C93D.png"  transform="matrix(1 0 0 1 0 50)">
		</image>
		<path class="st0" d="M278.1,103C266,91.9,252,83,236.8,76.8c-2,3-4.2,5.8-6.8,8.3c-3.4,3.4-7.2,6.3-11.3,8.6
			c4.3,1.4,8.5,3.1,12.6,5c3.9,1.8,5.5,6.4,3.7,10.3c-0.1,0.2-0.2,0.4-0.3,0.6l0,0c-2,3.5-6.4,4.9-10,3.1
			c-27.5-13-58.2-10.6-71.7-8.5c-4,0.6-7.8-1.9-8.7-5.8l0,0c-1-4.2,1.6-8.4,5.7-9.4c0.2-0.1,0.4-0.1,0.7-0.1
			c2.4-0.4,5.4-0.8,8.7-1.1c-1-0.9-2-1.8-2.9-2.7c-4.7-4.7-8.5-10.3-11.1-16.5c-0.3-0.6-0.6-1.3-0.8-2c-4.1,0.7-8.2,1.6-12.1,2.6
			c-23.1-13.4-50.8-13.5-67.3-11.9c-5.7,0.6-9.8,5.6-9.3,11.3c0.1,1.2,0.5,2.4,1,3.5l14,28.6c-15.5,13.5-27.2,30.1-33.8,48.5
			l-17-0.1c-5.7,0-10.4,4.6-10.4,10.3v38.2c0,3.9,2.1,7.4,5.6,9.2l22.1,11.5c9.2,25.5,28.4,47.3,53.6,62.4v33.8
			c0,6.7,5.4,12.1,12.1,12.1l0,0h31c4.8,0,9.1-2.9,11.1-7.2l7.8-17.8c6.8,0.8,13.6,1.2,20.4,1.2c10.7,0,21.4-1,31.9-3v14.8
			c0,6.7,5.4,12.1,12.1,12.1l0,0H248c4.5,0,8.6-2.5,10.7-6.4c16.4-30.8,34.2-61.8,47.4-94c6.5-16,9.2-33.4,7.6-50.6
			C311.3,147.9,298.6,121.9,278.1,103z"/>
		<path class="st1" d="M92.9,136.1c8.6,0,15.5,6.9,15.5,15.5s-6.9,15.5-15.5,15.5s-15.5-6.9-15.5-15.5
			C77.4,143.1,84.3,136.1,92.9,136.1L92.9,136.1z"/>
		
			<image style="overflow:visible;opacity:0.16;enable-background:new    ;" width="102" height="102" xlink:href="90244E76701C942.png"  transform="matrix(1 0 0 1 139 0)">
		</image>
		<path class="st2" d="M175.1,87c4.9,1.9,10.1,2.9,15.3,2.9c2.6,0,5.2-0.2,7.7-0.7c22.6-4.2,37.5-26,33.3-48.7
			c-4.2-22.6-26-37.5-48.7-33.3c-22.6,4.2-37.5,26-33.3,48.7C152.1,70,161.8,81.7,175.1,87z"/>
	</g>
</g>
</svg>
