<svg id="Layer_1" data-name="Layer 1" xmlns="http://www.w3.org/2000/svg" viewBox="0 0 206.29 94.12"><defs><style>.cls-1,.cls-2{fill:#fff}.cls-2{isolation:isolate;font-size:24px;font-family:Britannic Bold}</style></defs><title>norstar-white</title><path class="cls-1" d="M68.8 0v28.31c-.73 1.2-3 2.77-4 3.85-1.43 1.68-2.28 4-3.6 5.76-1.14 1.55-3.31 2.45-3.12 4.56.71 1.06 3.54 0 4.08 1.2A50.55 50.55 0 0 1 59.31 48l-1.66-.1a4.88 4.88 0 0 0 .71-1.38c-.84-1.15-4.29-1.14-4.56-3.12-.47-3.49 5.47-5.66 4.56-9.84-.22-1-2.86-2.56-4.08-4.08-2.17-2.73-2.88-5.33-3.36-9.12-4.1.17-4.19 4.71-5.52 7.68-.33.74-1.06 1.41-1.44 2.16a23.36 23.36 0 0 1-1 2.64c-2.9 4.77-8 8.27-9.6 13 3.38.22 5 2.22 7.44 3.36-3.3 5.8-10.24 8-13.4 13.92 2.43.73 8.32-1.31 9.6 1.2-2.48 4-6.69 5.9-9.6 9.36-.88 1-1.12 2.45-1.92 3.6-1 1.45-3.26 2.26-3.6 4.32a13 13 0 0 0 6 4.8A45.22 45.22 0 0 0 36 89.28c2 .33 4.33-.65 6 .72a9.54 9.54 0 0 1 0 4.12H0V0h68.8z"/><path class="cls-1" d="M63.4 81.36c.27 2.91-.21 8.92 0 12.76h-8.71c-.16-2.24.55-5.44.31-8.2-5.34-1.5-11.86-.34-15.12-3.84a38.27 38.27 0 0 0 5.12-5l1 .92a2.11 2.11 0 0 0-.82 2.6c1.53 3.68 16 1.24 18.22.76z"/><path class="cls-1" d="M57.65 47.94l1.66.06c-2.41 3.42-5.31 7.1-7.67 10.32-1.25 1.72-3.81 3.19-3.6 5 .4 3.49 8.25 1.63 11.76 2.88-3 3.68-6.8 6.61-10.32 9.8A18.36 18.36 0 0 0 46 78l-1-.91c1-1 1.87-2.09 2.8-3.17 1.31-1.5 4-3.21 2.64-6-1.94-1.42-6.53-.19-7.44-2.64a83 83 0 0 1 11.28-14.16 25.18 25.18 0 0 0 3.37-3.18zm120.85 5.44h-5a7 7 0 0 1-.48-2.77v-2.2q0-2.76-2.22-2.76v-1.28h.14c1.75 0 2.63-.92 2.63-2.75s-.88-2.76-2.63-2.76v-1.47h1.3a7.34 7.34 0 0 1 4.29 1.13 3.51 3.51 0 0 1 1.6 3q0 2.91-3.44 3.78a4.73 4.73 0 0 1 2.31 1.44 7.23 7.23 0 0 1 .71 3 7.2 7.2 0 0 0 .79 3.64zm-7.65-16v1.47h-.94v5.51h.8v1.34h-.8v7.68h-4.64v-16h5.58zm-11.29 0l4.45 16h-4.66l-.95-3.46h-4.82l-1 3.46h-1.82l4.73-16h4.07zM158 48.31l-1.89-7.09-2 7.09H158zm-6.91-10.92V39h-3.93v14.38h-4.92V39h-3.95v-1.6h12.8zm-13.95 4.47l-2.15.4a5.5 5.5 0 0 0 .14-1.08q0-2.78-3.39-2.78-2.67 0-2.67 1.92c0 1 1 1.78 3 2.47q5.76 2 5.76 5.86a4.57 4.57 0 0 1-1.61 3.65 6.43 6.43 0 0 1-4.31 1.38q-5.94 0-5.94-4.61a8.58 8.58 0 0 1 .06-.92l2.24-.5a7.48 7.48 0 0 0-.26 1.77q0 3 3.41 3c1.82 0 2.73-.72 2.73-2.14 0-1.07-1.09-2-3.27-2.81-3.14-1.15-4.72-3-4.72-5.54a4.3 4.3 0 0 1 1.58-3.47 6.23 6.23 0 0 1 4.14-1.32c3.51-.02 5.26 1.56 5.26 4.72zm-12.38 11.52h-5a7 7 0 0 1-.48-2.77v-2.2c0-1.84-.74-2.76-2.23-2.76v-1.28h.14c1.76 0 2.64-.92 2.64-2.75s-.88-2.76-2.64-2.76v-1.47h1.3a7.34 7.34 0 0 1 4.29 1.13 3.52 3.52 0 0 1 1.61 3q0 2.91-3.45 3.78a4.77 4.77 0 0 1 2.3 1.44 7.26 7.26 0 0 1 .7 3 7.18 7.18 0 0 0 .82 3.64zm-7.66-16v1.47h-.93v5.51h.83v1.34h-.79v7.68h-4.64v-16h5.57zm-14.61-.28q7 0 7 8.27t-7.12 8.27v-1.26a1.79 1.79 0 0 0 1.78-1.45 21.62 21.62 0 0 0 .46-5.55 21.52 21.52 0 0 0-.46-5.54 1.79 1.79 0 0 0-1.78-1.46v-1.26h.12zm-.17 0v1.26a1.79 1.79 0 0 0-1.77 1.45 21.48 21.48 0 0 0-.47 5.55 21.48 21.48 0 0 0 .47 5.55 1.79 1.79 0 0 0 1.77 1.45v1.27q-7.07 0-7.07-8.46 0-7.96 7.07-8.05zm-9 .27v16h-3.59L83 43.26v10.12h-1.51v-16h2.94l7.29 10.93V37.39h1.56z"/><text class="cls-2" transform="translate(80.04 76.03)">INDUSTRIES</text></svg>