<?xml version="1.0" encoding="utf-8"?>
<!-- Generator: Adobe Illustrator 19.2.1, SVG Export Plug-In . SVG Version: 6.00 Build 0)  -->
<svg version="1.1" id="Layer_1" xmlns="http://www.w3.org/2000/svg" xmlns:xlink="http://www.w3.org/1999/xlink" x="0px" y="0px"
	 viewBox="0 0 308.1 94.1" style="enable-background:new 0 0 308.1 94.1;" xml:space="preserve">
<style type="text/css">
	.st0{fill-rule:evenodd;clip-rule:evenodd;fill:#008265;}
	.st1{fill:#008265;}
</style>
<g>
	<path class="st0" d="M68.8,0H0v94.1h42c0.2-1,0.4-3.2,0-4.1c-1.7-1.4-4-0.4-6-0.7c-2.1-0.4-6-1.9-8.2-2.9c-2.6-1.1-4.8-2.8-6-4.8
		c0.3-2.1,2.6-2.9,3.6-4.3c0.8-1.1,1-2.5,1.9-3.6c2.9-3.5,7.1-5.4,9.6-9.4c-1.3-2.5-7.2-0.5-9.6-1.2c3.2-6,10.1-8.1,13.4-13.9
		c-2.5-1.1-4.1-3.1-7.4-3.4c1.6-4.7,6.7-8.2,9.6-13c0.4-0.7,0.5-1.7,1-2.6c0.4-0.7,1.1-1.4,1.4-2.2c1.3-3,1.4-7.5,5.5-7.7
		c0.5,3.8,1.2,6.4,3.4,9.1c1.2,1.5,3.9,3,4.1,4.1c0.9,4.2-5,6.3-4.6,9.8c0.3,2,3.7,2,4.6,3.1c-0.7,2-2.7,3.2-4.1,4.6
		c-4.2,4.1-7.9,9-11.3,14.2c0.9,2.4,5.5,1.2,7.4,2.6c1.3,2.8-1.3,4.5-2.6,6c-2.5,2.8-4.8,5.8-7.9,8.2c3.3,3.5,9.8,2.3,15.1,3.8
		c0.2,2.8-0.5,6-0.3,8.2h8.7c-0.2-3.8,0.3-9.8,0.1-12.8c-2.2,0.5-16.7,2.9-18.2-0.7c-1-2.4,2.5-3.6,4.3-4.6
		c3.5-3.2,7.3-6.2,10.3-9.8C56.3,65,48.4,66.9,48,63.4c-0.2-1.8,2.3-3.3,3.6-5c3.4-4.7,8-10.3,10.6-14.6c-0.5-1.2-3.4-0.1-4.1-1.2
		c-0.2-2.1,2-3,3.1-4.6c1.3-1.8,2.2-4.1,3.6-5.8c0.9-1.1,3.2-2.6,4-3.9V0z"/>
</g>
<g>
	<path class="st1" d="M93.3,37.4v16h-3.6L83,43.3v10.1h-1.6v-16h2.9l7.3,10.9V37.4H93.3z"/>
	<path class="st1" d="M102.5,37.1c4.7,0,7,2.8,7,8.3s-2.4,8.3-7.1,8.3c-4.7,0-7.1-2.8-7.1-8.5C95.2,39.8,97.7,37.1,102.5,37.1z
		 M102.4,38.4c-0.9,0-1.5,0.5-1.8,1.4c-0.3,1-0.5,2.8-0.5,5.5c0,2.7,0.2,4.6,0.5,5.5c0.3,1,0.9,1.4,1.8,1.4s1.5-0.5,1.8-1.4
		c0.3-1,0.5-2.8,0.5-5.5c0-2.7-0.2-4.6-0.5-5.5C103.8,38.9,103.2,38.4,102.4,38.4z"/>
	<path class="st1" d="M111.5,53.4v-16h6.9c1.8,0,3.2,0.4,4.3,1.1c1.1,0.8,1.6,1.8,1.6,3c0,1.9-1.1,3.2-3.4,3.8
		c1.2,0.4,1.9,0.9,2.3,1.4c0.3,0.5,0.6,1.5,0.7,3c0.1,1.8,0.4,3,0.9,3.6h-5c-0.3-0.7-0.5-1.7-0.5-2.8l0-0.9l0-1.2
		c0-1.8-0.7-2.8-2.2-2.8h-0.8v7.7H111.5z M116.2,44.4h0.9c1.8,0,2.6-0.9,2.6-2.8s-0.9-2.8-2.6-2.8h-0.9V44.4z"/>
	<path class="st1" d="M137.1,41.9l-2.2,0.4c0.1-0.4,0.1-0.8,0.1-1.1c0-1.9-1.1-2.8-3.4-2.8c-1.8,0-2.7,0.6-2.7,1.9c0,1,1,1.8,3,2.5
		c3.8,1.3,5.8,3.3,5.8,5.9c0,1.5-0.5,2.7-1.6,3.7c-1.1,0.9-2.5,1.4-4.3,1.4c-4,0-5.9-1.5-5.9-4.6c0-0.2,0-0.6,0.1-0.9l2.2-0.5
		c-0.2,0.7-0.3,1.3-0.3,1.8c0,2,1.1,3,3.4,3c1.8,0,2.7-0.7,2.7-2.1c0-1.1-1.1-2-3.3-2.8c-3.1-1.2-4.7-3-4.7-5.5
		c0-1.4,0.5-2.6,1.6-3.5c1.1-0.9,2.4-1.3,4.1-1.3C135.4,37.1,137.1,38.7,137.1,41.9z"/>
	<path class="st1" d="M151.1,37.4V39h-3.9v14.4h-4.9V39h-3.9v-1.6H151.1z"/>
	<path class="st1" d="M159.6,37.4l4.5,16h-4.7l-0.9-3.5h-4.8l-1,3.5h-1.8l4.7-16H159.6z M154,48.3h3.9l-1.9-7.1L154,48.3z"/>
	<path class="st1" d="M165.3,53.4v-16h6.9c1.8,0,3.2,0.4,4.3,1.1c1.1,0.8,1.6,1.8,1.6,3c0,1.9-1.1,3.2-3.4,3.8
		c1.2,0.4,1.9,0.9,2.3,1.4c0.3,0.5,0.6,1.5,0.7,3c0.1,1.8,0.4,3,0.9,3.6h-5c-0.3-0.7-0.5-1.7-0.5-2.8l0-0.9l0-1.2
		c0-1.8-0.7-2.8-2.2-2.8h-0.8v7.7H165.3z M169.9,44.4h0.9c1.8,0,2.6-0.9,2.6-2.8s-0.9-2.8-2.6-2.8h-0.9V44.4z"/>
	<path class="st1" d="M91.9,59.4V61h-5.7v4.8H91v1.6h-4.8v6.3h6.7v1.6H81.6v-16H91.9z"/>
	<path class="st1" d="M106.1,59.4v16h-3.6l-6.7-10.1v10.1h-1.6v-16h2.9l7.3,10.9V59.4H106.1z"/>
	<path class="st1" d="M120.3,59.4l-4.6,16h-4.2l-4.2-16h4.7l3.2,12.1l3.5-12.1H120.3z"/>
	<path class="st1" d="M126.1,59.4v16h-4.6v-16H126.1z"/>
	<path class="st1" d="M128.9,75.4v-16h6.9c1.8,0,3.2,0.4,4.3,1.1c1.1,0.8,1.6,1.8,1.6,3c0,1.9-1.1,3.2-3.4,3.8
		c1.2,0.4,1.9,0.9,2.3,1.4c0.3,0.5,0.6,1.5,0.7,3c0.1,1.8,0.4,3,0.9,3.6h-5c-0.3-0.7-0.5-1.7-0.5-2.8l0-0.9l0-1.2
		c0-1.8-0.7-2.8-2.2-2.8h-0.8v7.7H128.9z M133.6,66.4h0.9c1.8,0,2.6-0.9,2.6-2.8c0-1.8-0.9-2.8-2.6-2.8h-0.9V66.4z"/>
	<path class="st1" d="M150.6,59.1c4.7,0,7,2.8,7,8.3s-2.4,8.3-7.1,8.3c-4.7,0-7.1-2.8-7.1-8.5C143.4,61.8,145.8,59.1,150.6,59.1z
		 M150.5,60.4c-0.9,0-1.5,0.5-1.8,1.4c-0.3,1-0.5,2.8-0.5,5.5s0.2,4.6,0.5,5.5c0.3,1,0.9,1.4,1.8,1.4s1.5-0.5,1.8-1.4
		c0.3-1,0.5-2.8,0.5-5.5c0-2.7-0.2-4.6-0.5-5.5C152,60.9,151.4,60.4,150.5,60.4z"/>
	<path class="st1" d="M171.3,59.4v16h-3.6l-6.7-10.1v10.1h-1.6v-16h2.9l7.3,10.9V59.4H171.3z"/>
	<path class="st1" d="M188.9,59.4v16h-4.5V64.2l-3.1,11.1h-2.6l-3.2-10.9v10.9h-1.6v-16h4.7l2.7,9.7l2.7-9.7H188.9z"/>
	<path class="st1" d="M202,59.4V61h-5.7v4.8h4.8v1.6h-4.8v6.3h6.7v1.6h-11.3v-16H202z"/>
	<path class="st1" d="M216.1,59.4v16h-3.6l-6.7-10.1v10.1h-1.6v-16h2.9l7.3,10.9V59.4H216.1z"/>
	<path class="st1" d="M230,59.4V61h-3.9v14.4h-4.9V61h-3.9v-1.6H230z"/>
	<path class="st1" d="M238.5,59.4l4.5,16h-4.7l-0.9-3.5h-4.8l-1,3.5h-1.8l4.7-16H238.5z M233,70.3h3.9l-1.9-7.1L233,70.3z"/>
	<path class="st1" d="M248.8,59.4v14.4h6.6v1.6h-11.2v-16H248.8z"/>
	<path class="st1" d="M268.2,59.4v14.4h6.6v1.6h-11.2v-16H268.2z"/>
	<path class="st1" d="M287,59.4V61h-3.9v14.4h-4.9V61h-3.9v-1.6H287z"/>
	<path class="st1" d="M288.2,75.4v-16h6.6c4.7,0,7.1,2.7,7.1,8c0,5.3-2.4,8-7.3,8H288.2z M292.9,74.1h1.2c1.1,0,1.9-0.5,2.3-1.4
		c0.4-1,0.6-2.7,0.6-5.2c0-2.5-0.2-4.3-0.6-5.2c-0.4-1-1.2-1.4-2.3-1.4h-1.2V74.1z"/>
	<path class="st1" d="M306,71.5c1.4,0,2.1,0.7,2.1,2.1s-0.7,2.1-2.1,2.1s-2.1-0.7-2.1-2.1S304.6,71.5,306,71.5z"/>
</g>
</svg>
