<?xml version="1.0" encoding="utf-8"?>
<!-- Generator: Adobe Illustrator 19.2.1, SVG Export Plug-In . SVG Version: 6.00 Build 0)  -->
<svg version="1.1" id="Layer_1" xmlns="http://www.w3.org/2000/svg" xmlns:xlink="http://www.w3.org/1999/xlink" x="0px" y="0px"
	 viewBox="0 0 519 519" style="enable-background:new 0 0 519 519;" xml:space="preserve">
<style type="text/css">
	.st0{fill:#CA7E00;}
</style>
<g id="Capa_1">
	
		<image style="overflow:visible;opacity:0.16;" width="319" height="319" xlink:href="D98F63BC88BB556.png"  transform="matrix(1 0 0 1 100 100)">
	</image>
	<g>
		<g>
			<g>
				<g>
					<path class="st0" d="M409.3,343.5c0.6,4.9-0.8,9.1-4.4,12.7l-42.2,41.9c-1.9,2.1-4.4,3.9-7.5,5.4s-6.1,2.4-9,2.9
						c-0.2,0-0.8,0.1-1.9,0.2s-2.4,0.2-4.1,0.2c-4,0-10.5-0.7-19.5-2.1s-20-4.8-33-10.2c-13-5.4-27.8-13.5-44.3-24.3
						s-34.1-25.6-52.7-44.5c-14.8-14.6-27.1-28.6-36.8-41.9s-17.6-25.7-23.5-37c-5.9-11.3-10.4-21.6-13.3-30.8s-5-17.1-6-23.8
						c-1.1-6.7-1.5-11.9-1.3-15.7s0.3-5.9,0.3-6.4c0.4-3,1.4-6,2.9-9.1s3.3-5.6,5.4-7.5l42.2-42.2c3-3,6.4-4.4,10.2-4.4
						c2.8,0,5.2,0.8,7.3,2.4s3.9,3.5,5.4,5.9l34,64.5c1.9,3.4,2.4,7.1,1.6,11.1c-0.8,4-2.6,7.4-5.4,10.2l-15.6,15.6
						c-0.4,0.4-0.8,1.1-1.1,2.1s-0.5,1.7-0.5,2.4c0.8,4.4,2.8,9.5,5.7,15.2c2.5,5.1,6.5,11.3,11.8,18.6c5.3,7.3,12.8,15.7,22.5,25.2
						c9.5,9.7,18,17.3,25.4,22.7c7.4,5.4,13.6,9.4,18.6,11.9s8.8,4.1,11.4,4.6l4,0.8c0.4,0,1.1-0.2,2.1-0.5s1.6-0.7,2.1-1.1
						l18.1-18.4c3.8-3.4,8.3-5.1,13.3-5.1c3.6,0,6.5,0.6,8.6,1.9h0.3l61.3,36.2C405.8,335.7,408.5,339.2,409.3,343.5z"/>
				</g>
			</g>
		</g>
	</g>
</g>
</svg>
