<?xml version="1.0" encoding="utf-8"?>
<!-- Generator: Adobe Illustrator 19.2.1, SVG Export Plug-In . SVG Version: 6.00 Build 0)  -->
<svg version="1.1" id="Layer_1" xmlns="http://www.w3.org/2000/svg" xmlns:xlink="http://www.w3.org/1999/xlink" x="0px" y="0px"
	 viewBox="0 0 519 519" style="enable-background:new 0 0 519 519;" xml:space="preserve">
<style type="text/css">
	.st0{fill:#FAE2EF;}
	.st1{clip-path:url(#SVGID_2_);fill:url(#SVGID_3_);}
	.st2{fill:#CA7E00;}
</style>
<g id="Background">
	<g>
		
			<image style="overflow:visible;opacity:0.24;enable-background:new    ;" width="519" height="519" xlink:href="583786E9C1CCB7C6.png" >
		</image>
		<g>
			<path class="st0" d="M59.3,6.1h400c27.6,0,50,22.4,50,50v400c0,27.6-22.4,50-50,50h-400c-27.6,0-50-22.4-50-50v-400
				C9.3,28.5,31.7,6.1,59.3,6.1z"/>
		</g>
	</g>
</g>
<g id="Shadow">
	<g>
		<g>
			<defs>
				<path id="SVGID_1_" d="M59.3,6.1h400c27.6,0,50,22.4,50,50v400c0,27.6-22.4,50-50,50h-400c-27.6,0-50-22.4-50-50v-400
					C9.3,28.5,31.7,6.1,59.3,6.1z"/>
			</defs>
			<clipPath id="SVGID_2_">
				<use xlink:href="#SVGID_1_"  style="overflow:visible;"/>
			</clipPath>
			
				<linearGradient id="SVGID_3_" gradientUnits="userSpaceOnUse" x1="157.1343" y1="390.7914" x2="610.5006" y2="-62.5747" gradientTransform="matrix(1 0 0 -1 0 520)">
				<stop  offset="0" style="stop-color:#000000;stop-opacity:0.7"/>
				<stop  offset="1" style="stop-color:#FFFFFF;stop-opacity:0"/>
			</linearGradient>
			<path class="st1" d="M594.6,361.5C531,297,466.5,233.4,402.5,169.4c-16-16-32-32-48-48c-27.5-27.5-60.7-45-100.6-43.3
				c-72.5,3.1-126.8,69-118.4,140.4c7.7,65.4,47.6,125.7,87.3,176.3c22.9,29.3,49.3,54.7,75.6,80.9c64,64,128.1,128.1,192.1,192.1
				c7.1,7.1,14.5,18.4,24.5,10.1c3.4-2.8,6.2-6.7,9.1-10c15.9-18.6,30.8-38.1,44.5-58.3c37.6-55.3,80.2-130.9,56.7-199.6
				C618.9,391.8,608.3,375.1,594.6,361.5C594.2,361.1,617.6,384.2,594.6,361.5z"/>
		</g>
	</g>
</g>
<g id="Capa_1">
	<g>
		<g id="XMLID_1_">
			<g>
				<path class="st0" d="M259.3,122.6c44.3,0,80.4,36.1,80.4,80.4s-36,80.4-80.4,80.4s-80.4-36.1-80.4-80.4S215,122.6,259.3,122.6z"
					/>
				<path class="st2" d="M384.3,203c0,5.2-0.4,10.3-1,15.3c-10.4,97.7-114,210.4-114,210.4c-1.9,2-3.7,3.4-5.4,4.3l-0.1,0.1
					l-3.5,1.1l-3.5-1.1l-0.1-0.1c-1.7-0.9-3.5-2.2-5.4-4.3c0,0-105.1-112.5-115.8-210.2c-0.6-5.1-1.1-10.2-1.1-15.5
					c0-69,56-125,125-125S384.3,134,384.3,203z M339.7,203c0-44.3-36-80.4-80.4-80.4s-80.4,36.1-80.4,80.4s36.1,80.4,80.4,80.4
					S339.7,247.3,339.7,203z"/>
			</g>
		</g>
	</g>
</g>
</svg>
