<svg id="Layer_1" xmlns="http://www.w3.org/2000/svg" xmlns:xlink="http://www.w3.org/1999/xlink" viewBox="0 0 319 197"><style>.st0{fill:#008265}.st1{fill:#fff}.st2{fill:#ca7e00}.st3{fill:#0c3e85}</style><title>recycle</title><g id="Layer_1_1_"><image width="319" height="197" xlink:href="5B871B96D557798C.png" overflow="visible" opacity=".16"/><path class="st0" d="M303 107.2h-2V62.5c0-1.8-.7-3.5-2-4.8L276.8 35c-1.3-1.3-3.1-2.1-4.9-2.1h-59c-3.8 0-6.9 3.1-6.9 6.9v84.3h-14.5V13.5c0-3.8-3.1-6.9-6.9-6.9H25.7c-3.8 0-6.9 3.1-6.9 6.9v93.7h-2.1c-3.8 0-6.9 3.1-6.9 6.9v31.7c0 3.8 3.1 6.9 6.9 6.9h17.5c0 17.7 14.3 32 32 32s32-14.3 32-32h.3c0 17.7 14.3 32 32 32s32-14.3 32-32h58.8c0 17.7 14.3 32 32 32s32-14.3 32-32h17.5c3.8 0 6.9-3.1 6.9-6.9v-31.7c.2-3.7-2.7-6.7-6.3-6.9h-.4z"/><path class="st1" d="M253.5 141.3c6.3 0 11.4 5.1 11.4 11.4s-5.1 11.4-11.4 11.4c-6.3 0-11.4-5.1-11.4-11.4 0-6.2 5-11.4 11.2-11.4h.2zm-122.8 0c6.3-.1 11.4 5 11.5 11.3s-5 11.4-11.3 11.5-11.4-5-11.5-11.3v-.1c0-6.3 5-11.4 11.3-11.4z"/><path class="st2" d="M147.4 74.7c.3.5.3 1.1 0 1.6-1.5 2.8-6.8 12.2-10.5 18.1-1.9 3-4.4 4.7-6.9 4.7h-22.2c-.5 0-.9-.2-1.2-.5-.3-.3-.5-.8-.5-1.2V83c0-.9.8-1.7 1.7-1.7h23.6l-6.7-12.2-1.8 1c-.6.4-1.5.3-2-.2-.6-.5-.7-1.3-.4-2l5.7-10.7c.3-.6.9-1 1.6-1l13.1.4c.6 0 1.2.4 1.5.9.1.1.1.3.1.4.2.7-.1 1.5-.8 1.9l-1.8 1 7.5 13.9zM131.1 47c.2.4.3.9.2 1.3-.1.4-.4.8-.8 1L118 56.5c-.8.5-1.8.2-2.3-.5v-.1L104 35.5l-7.2 11.9 1.8 1.1c.7.4 1 1.2.8 1.9s-.8 1.2-1.5 1.3l-12.1.4c-.7.1-1.3-.3-1.6-.9L78 39.6c-.3-.5-.3-1.2.1-1.7l.3-.3c.5-.5 1.3-.6 2-.3l1.8 1.1 8.2-13.5c.3-.5.8-.8 1.4-.8h21c4 0 6.2 1.5 7.5 3.6L131.1 47zm-30.5 42c.4.6.4 1.3.1 1.9L94 102.2c-.3.5-.9.9-1.5.9-.1 0-.3 0-.4-.1-.7-.2-1.3-.8-1.3-1.6v-2H75c-.6 0-1.1-.3-1.4-.8-1.7-2.6-7.5-11.8-10.9-17.9-1.7-3.1-2-6.1-.8-8.3l10.6-19.6c.2-.4.6-.7 1-.8s.9-.1 1.3.1L87.5 59c.8.5 1.1 1.5.7 2.3L77 81.9h13.9v-2c0-1 .7-1.8 1.7-1.8.6 0 1.1.2 1.4.7l6.6 10.2z" id="XMLID_1_"/><path class="st1" d="M279.9 68.5V87c0 1.7-1.3 3-3 3h-46.8c-1.7 0-3-1.3-3-3V55.8c0-1.7 1.3-3 3-3h34.4c.8 0 1.6.3 2.1.9L279 66.4c.6.6.9 1.3.9 2.1z"/></g><path id="Wheel" class="st3" d="M66.3 120.6c17.7 0 32.1 14.3 32.1 32.1S84 184.8 66.3 184.8s-32.1-14.3-32.1-32.1c0-17.7 14.4-32.1 32.1-32.1z"/><path id="Well" class="st1" d="M66.3 141.3c6.3 0 11.4 5.1 11.4 11.4s-5.1 11.4-11.4 11.4-11.4-5.1-11.4-11.4c0-6.3 5.1-11.4 11.4-11.4z"/><path id="Wheel_1_" class="st3" d="M253.5 120.6c17.7 0 32.1 14.3 32.1 32.1s-14.3 32.1-32.1 32.1-32.1-14.3-32.1-32.1c0-17.7 14.4-32.1 32.1-32.1z"/><path id="Well_1_" class="st1" d="M253.5 141.3c6.3 0 11.4 5.1 11.4 11.4s-5.1 11.4-11.4 11.4c-6.3 0-11.4-5.1-11.4-11.4 0-6.3 5.1-11.4 11.4-11.4z"/><path id="Wheel_2_" class="st3" d="M130.8 120.6c17.7 0 32.1 14.3 32.1 32.1s-14.3 32.1-32.1 32.1-32.1-14.3-32.1-32.1c0-17.7 14.4-32.1 32.1-32.1z"/><path id="Well_2_" class="st1" d="M130.8 141.3c6.3 0 11.4 5.1 11.4 11.4s-5.1 11.4-11.4 11.4-11.4-5.1-11.4-11.4c0-6.3 5.1-11.4 11.4-11.4z"/></svg>