<?xml version="1.0" encoding="utf-8"?>
<!-- Generator: Adobe Illustrator 19.2.1, SVG Export Plug-In . SVG Version: 6.00 Build 0)  -->
<svg version="1.1" id="Layer_1" xmlns="http://www.w3.org/2000/svg" xmlns:xlink="http://www.w3.org/1999/xlink" x="0px" y="0px"
	 viewBox="0 0 319 197" style="enable-background:new 0 0 319 197;" xml:space="preserve">
<style type="text/css">
	.st0{fill:#008265;}
	.st1{fill:#FFFFFF;}
	.st2{fill:#CA7E00;}
	.st3{fill:#0C3E85;}
</style>
<title>recycle</title>
<g id="Layer_1_1_">
	
		<image style="overflow:visible;opacity:0.16;enable-background:new    ;" width="319" height="197" xlink:href="5B871B96D557798C.png" >
	</image>
	<path class="st0" d="M303,107.2h-2V62.5c0-1.8-0.7-3.5-2-4.8L276.8,35c-1.3-1.3-3.1-2.1-4.9-2.1h-59c-3.8,0-6.9,3.1-6.9,6.9v84.3
		h-14.5V13.5c0-3.8-3.1-6.9-6.9-6.9H25.7c-3.8,0-6.9,3.1-6.9,6.9v93.7h-2.1c-3.8,0-6.9,3.1-6.9,6.9v31.7c0,3.8,3.1,6.9,6.9,6.9h17.5
		c0,17.7,14.3,32,32,32s32-14.3,32-32h0.3c0,17.7,14.3,32,32,32s32-14.3,32-32h58.8c0,17.7,14.3,32,32,32s32-14.3,32-32h17.5
		c3.8,0,6.9-3.1,6.9-6.9v-31.7c0.2-3.7-2.7-6.7-6.3-6.9C303.2,107.2,303.1,107.2,303,107.2z"/>
	<path class="st1" d="M253.5,141.3c6.3,0,11.4,5.1,11.4,11.4s-5.1,11.4-11.4,11.4c-6.3,0-11.4-5.1-11.4-11.4l0,0
		c0-6.2,5-11.4,11.2-11.4C253.4,141.3,253.4,141.3,253.5,141.3z"/>
	<path class="st1" d="M130.7,141.3c6.3-0.1,11.4,5,11.5,11.3s-5,11.4-11.3,11.5s-11.4-5-11.5-11.3v-0.1
		C119.4,146.4,124.4,141.3,130.7,141.3z"/>
	<g id="XMLID_1_">
		<g>
			<path class="st2" d="M147.4,74.7c0.3,0.5,0.3,1.1,0,1.6c-1.5,2.8-6.8,12.2-10.5,18.1c-1.9,3-4.4,4.7-6.9,4.7h-22.2
				c-0.5,0-0.9-0.2-1.2-0.5c-0.3-0.3-0.5-0.8-0.5-1.2V83c0-0.9,0.8-1.7,1.7-1.7l0,0h23.6l-6.7-12.2l-1.8,1c-0.6,0.4-1.5,0.3-2-0.2
				c-0.6-0.5-0.7-1.3-0.4-2l5.7-10.7c0.3-0.6,0.9-1,1.6-1l13.1,0.4c0.6,0,1.2,0.4,1.5,0.9c0.1,0.1,0.1,0.3,0.1,0.4
				c0.2,0.7-0.1,1.5-0.8,1.9l-1.8,1L147.4,74.7z"/>
			<path class="st2" d="M131.1,47c0.2,0.4,0.3,0.9,0.2,1.3c-0.1,0.4-0.4,0.8-0.8,1L118,56.5c-0.8,0.5-1.8,0.2-2.3-0.5v-0.1L104,35.5
				l-7.2,11.9l1.8,1.1c0.7,0.4,1,1.2,0.8,1.9s-0.8,1.2-1.5,1.3l-12.1,0.4c-0.7,0.1-1.3-0.3-1.6-0.9L78,39.6
				c-0.3-0.5-0.3-1.2,0.1-1.7l0.3-0.3c0.5-0.5,1.3-0.6,2-0.3l1.8,1.1l8.2-13.5c0.3-0.5,0.8-0.8,1.4-0.8h21c4,0,6.2,1.5,7.5,3.6
				L131.1,47z"/>
			<path class="st2" d="M100.6,89c0.4,0.6,0.4,1.3,0.1,1.9L94,102.2c-0.3,0.5-0.9,0.9-1.5,0.9c-0.1,0-0.3,0-0.4-0.1
				c-0.7-0.2-1.3-0.8-1.3-1.6v-2H75c-0.6,0-1.1-0.3-1.4-0.8c-1.7-2.6-7.5-11.8-10.9-17.9c-1.7-3.1-2-6.1-0.8-8.3l10.6-19.6
				c0.2-0.4,0.6-0.7,1-0.8s0.9-0.1,1.3,0.1L87.5,59c0.8,0.5,1.1,1.5,0.7,2.3L77,81.9h13.9v-2c0-1,0.7-1.8,1.7-1.8
				c0.6,0,1.1,0.2,1.4,0.7L100.6,89z"/>
		</g>
	</g>
	<path class="st1" d="M279.9,68.5V87c0,1.7-1.3,3-3,3h-46.8c-1.7,0-3-1.3-3-3V55.8c0-1.7,1.3-3,3-3h34.4c0.8,0,1.6,0.3,2.1,0.9
		L279,66.4C279.6,67,279.9,67.7,279.9,68.5z"/>
</g>
<path id="Wheel" class="st3" d="M66.3,120.6c17.7,0,32.1,14.3,32.1,32.1S84,184.8,66.3,184.8s-32.1-14.3-32.1-32.1l0,0
	C34.2,135,48.6,120.6,66.3,120.6L66.3,120.6z"/>
<path id="Well" class="st1" d="M66.3,141.3c6.3,0,11.4,5.1,11.4,11.4s-5.1,11.4-11.4,11.4s-11.4-5.1-11.4-11.4l0,0
	C54.9,146.4,60,141.3,66.3,141.3L66.3,141.3z"/>
<path id="Wheel_1_" class="st3" d="M253.5,120.6c17.7,0,32.1,14.3,32.1,32.1s-14.3,32.1-32.1,32.1s-32.1-14.3-32.1-32.1l0,0
	C221.4,135,235.8,120.6,253.5,120.6L253.5,120.6z"/>
<path id="Well_1_" class="st1" d="M253.5,141.3c6.3,0,11.4,5.1,11.4,11.4s-5.1,11.4-11.4,11.4c-6.3,0-11.4-5.1-11.4-11.4l0,0
	C242.1,146.4,247.2,141.3,253.5,141.3L253.5,141.3z"/>
<path id="Wheel_2_" class="st3" d="M130.8,120.6c17.7,0,32.1,14.3,32.1,32.1s-14.3,32.1-32.1,32.1s-32.1-14.3-32.1-32.1l0,0
	C98.7,135,113.1,120.6,130.8,120.6L130.8,120.6z"/>
<path id="Well_2_" class="st1" d="M130.8,141.3c6.3,0,11.4,5.1,11.4,11.4s-5.1,11.4-11.4,11.4s-11.4-5.1-11.4-11.4l0,0
	C119.4,146.4,124.5,141.3,130.8,141.3L130.8,141.3z"/>
</svg>
