<?xml version="1.0" encoding="utf-8"?>
<!-- Generator: Adobe Illustrator 19.2.1, SVG Export Plug-In . SVG Version: 6.00 Build 0)  -->
<svg version="1.1" id="Layer_1" xmlns="http://www.w3.org/2000/svg" xmlns:xlink="http://www.w3.org/1999/xlink" x="0px" y="0px"
	 viewBox="0 0 519 519" style="enable-background:new 0 0 519 519;" xml:space="preserve">
<style type="text/css">
	.st0{fill:#CCFFFF;}
	.st1{clip-path:url(#SVGID_2_);fill:url(#SVGID_3_);}
	.st2{fill:#008265;}
</style>
<g id="Background">
	<g>
		
			<image style="overflow:visible;opacity:0.24;enable-background:new    ;" width="519" height="519" xlink:href="F9C1123F01F500B8.png" >
		</image>
		<g>
			<path class="st0" d="M59.9,6.6h400c27.6,0,50,22.4,50,50v400c0,27.6-22.4,50-50,50h-400c-27.6,0-50-22.4-50-50v-400
				C9.9,29,32.3,6.6,59.9,6.6z"/>
		</g>
	</g>
</g>
<g id="Shadow">
	<g>
		<g>
			<defs>
				<path id="SVGID_1_" d="M60.9,7.6h400c27.6,0,50,22.4,50,50v400c0,27.6-22.4,50-50,50h-400c-27.6,0-50-22.4-50-50v-400
					C10.9,30,33.3,7.6,60.9,7.6z"/>
			</defs>
			<clipPath id="SVGID_2_">
				<use xlink:href="#SVGID_1_"  style="overflow:visible;"/>
			</clipPath>
			
				<linearGradient id="SVGID_3_" gradientUnits="userSpaceOnUse" x1="141.7245" y1="368.7606" x2="602.6529" y2="-92.1679" gradientTransform="matrix(1 0 0 -1 0 520)">
				<stop  offset="0" style="stop-color:#000000;stop-opacity:0.8"/>
				<stop  offset="0.811" style="stop-color:#FFFFFF;stop-opacity:0"/>
			</linearGradient>
			<path class="st1" d="M655.7,518.1c-5.3-6.9-6.3-5.6-6.3-14.4c0-8.9,0-17.7,0-26.6c0-13.2-13.5-21.9-22.2-30.7
				c-8.1-8.2-16.3-16.3-24.4-24.4c-16.3-16.3-32.6-32.6-48.9-49c-16.3-16.4-32.7-32.7-49-49c-16.3-16.2-32.5-32.5-48.8-48.8
				s-32.6-32.6-48.9-48.9c-8.1-8.2-16.3-16.3-24.5-24.5c-3-3-5.5-6.2-9.9-7c-5.2-1-11.5,0-16.8,0c-9.3,0-18.6,0-28,0
				c-3.6,0-10.1,1.3-13.5-0.1c-6.1-2.5-13.2-13.2-18-17.9c-4-4-6.9-7.7-12.7-8.2c-10.9-0.9-22.3,0-33.3,0c-35.3,0-70.7,0-106,0
				c-6.9,0-22.2-3-24.6,5.8c-2.8,10-0.2,24.2-0.2,34.4c0,17.4,0,34.9,0,52.3c0,1.5,0.6,4.8,0,6.2c-1.3,2.9,0.4-0.4-2.1,1.8
				c-3.2,2.9-6.1,1.8-6.9,7.5c-0.5,3.4,0,7.2,0,10.6c0,6.4-1.2,14.1,0,20.4c1.5,7.5,11.5,14.4,16.8,19.7
				c12.1,12.1,24.2,24.2,36.3,36.3c24.6,24.6,49.3,49.3,73.9,73.9c24.4,24.4,48.8,48.8,73.3,73.3c12.1,12.1,24.2,24.2,36.3,36.3
				c2.9,2.9,5.7,5.7,8.6,8.6c4.1,4.1,6.2,4.8,11.3,6.4c6.7,2.1,12.8,10.6,18,15.8c8.4,8.4,16.6,16.2,29.4,16.2
				c13.3,0,25.5-8.6,30.1-21c8.4,8.8,17.1,18.9,29.8,20.7c13.8,1.9,27.6-5.5,33.4-18.1c1.3-2.8,2.2-12.6,3.7-13.6c1.8-1.1,8,0,10,0
				c9.6,0,19.2,0,28.8,0c8.2,0,10.5,4.5,16.4,10.3c8.1,8.1,15.8,18,27.6,20.8c14.1,3.3,29.1-3.5,35.8-16.4
				c1.9-3.7,2.5-13.2,4.7-14.7c1.7-1.2,8.6,0,11,0c12.1,0,12.3-5.9,12.3-16.2C658.4,539.7,661.6,522.6,655.7,518.1
				C655.4,517.7,657.3,519.4,655.7,518.1z"/>
		</g>
	</g>
</g>
<g id="Capa_1">
	<g>
		<path class="st2" d="M403,268.2h-2v-44.7c0-1.8-0.7-3.5-2-4.8L376.8,196c-1.3-1.3-3.1-2.1-4.9-2.1h-59c-3.8,0-6.9,3.1-6.9,6.9
			v84.3h-14.5V174.5c0-3.8-3.1-6.9-6.9-6.9H125.7c-3.8,0-6.9,3.1-6.9,6.9v93.7h-2.1c-3.8,0-6.9,3.1-6.9,6.9v31.7
			c0,3.8,3.1,6.9,6.9,6.9h8.9h8.6c0,17.7,14.3,32,32,32s32-14.3,32-32h0.3c0,17.7,14.3,32,32,32s32-14.3,32-32h56.2h2.6
			c0,17.7,14.3,32,32,32s32-14.3,32-32h8.6h8.9c3.8,0,6.9-3.1,6.9-6.9v-31.7C409.9,271.3,406.8,268.2,403,268.2z"/>
		<g id="XMLID_4_">
			<g>
				<path class="st0" d="M230.7,302.3c6.3,0,11.4,5.1,11.4,11.4s-5.1,11.4-11.4,11.4c-6.3,0-11.3-5.1-11.3-11.4
					S224.4,302.3,230.7,302.3z"/>
				<path class="st0" d="M166.3,302.3c6.3,0,11.4,5.1,11.4,11.4s-5.1,11.4-11.4,11.4c-6.3,0-11.4-5.1-11.4-11.4
					S160.1,302.3,166.3,302.3z"/>
			</g>
		</g>
		<g id="XMLID_3_">
			<g>
				<path class="st0" d="M247.4,235.7c0.3,0.5,0.3,1.1,0,1.6c-1.5,2.8-6.8,12.2-10.5,18.1c-1.9,3-4.4,4.7-6.9,4.7h-22.2
					c-0.5,0-0.9-0.2-1.2-0.5s-0.5-0.8-0.5-1.2V244c0-1,0.8-1.7,1.7-1.7h23.6l-6.7-12.2l-1.8,1c-0.6,0.4-1.5,0.3-2-0.2
					c-0.6-0.5-0.7-1.3-0.4-2l5.7-10.7c0.3-0.6,0.9-1,1.6-1l13.1,0.4c0.6,0,1.2,0.4,1.5,0.9c0.1,0.1,0.1,0.2,0.1,0.4
					c0.2,0.7-0.1,1.5-0.8,1.9l-1.8,1L247.4,235.7z"/>
				<path class="st0" d="M231.1,208c0.2,0.4,0.3,0.9,0.2,1.3c-0.1,0.4-0.4,0.8-0.8,1l-12.5,7.2c-0.8,0.5-1.9,0.2-2.3-0.6L204,196.5
					l-7.2,11.9l1.8,1.1c0.7,0.4,1,1.1,0.8,1.9c-0.2,0.7-0.8,1.3-1.5,1.3l-12.1,0.4c-0.7,0.1-1.3-0.3-1.6-0.9l-6.2-11.6
					c-0.3-0.5-0.3-1.2,0.1-1.7c0.1-0.1,0.2-0.2,0.3-0.3c0.5-0.5,1.4-0.6,2-0.3l1.8,1.1l8.2-13.5c0.3-0.5,0.9-0.8,1.4-0.8h21
					c4,0,6.2,1.5,7.5,3.6L231.1,208z"/>
				<path class="st0" d="M200.6,250c0.4,0.6,0.4,1.3,0.1,1.9l-6.7,11.3c-0.3,0.5-0.9,0.9-1.5,0.9c-0.1,0-0.3,0-0.4-0.1
					c-0.7-0.2-1.3-0.8-1.3-1.6v-2H175c-0.6,0-1.1-0.3-1.4-0.8c-1.7-2.6-7.5-11.8-10.9-17.9c-1.7-3.1-2-6.1-0.8-8.3l10.6-19.6
					c0.2-0.4,0.6-0.7,1-0.8s0.9-0.1,1.3,0.1l12.7,6.9c0.8,0.5,1.1,1.5,0.7,2.3L177,242.9h13.9v-2c0-0.8,0.4-1.4,1.2-1.7
					c0.7-0.2,1.5,0,1.9,0.6L200.6,250z"/>
			</g>
		</g>
		<g id="XMLID_2_">
			<g>
				<path class="st0" d="M353.5,302.3c6.3,0,11.3,5.1,11.3,11.4s-5.1,11.4-11.3,11.4c-6.3,0-11.4-5.1-11.4-11.4
					S347.2,302.3,353.5,302.3z"/>
			</g>
		</g>
		<g id="XMLID_1_">
			<g>
				<path class="st0" d="M379.9,229.5V248c0,1.6-1.3,3-3,3h-46.8c-1.7,0-3-1.3-3-3v-31.2c0-1.6,1.3-3,3-3h34.4
					c0.8,0,1.6,0.3,2.1,0.9l12.4,12.7C379.5,227.9,379.9,228.7,379.9,229.5z"/>
			</g>
		</g>
	</g>
</g>
</svg>
